%TF.GenerationSoftware,KiCad,Pcbnew,9.0.3*%
%TF.CreationDate,2026-02-01T20:01:01-08:00*%
%TF.ProjectId,White paper,57686974-6520-4706-9170-65722e6b6963,rev?*%
%TF.SameCoordinates,Original*%
%TF.FileFunction,Copper,L2,Inr*%
%TF.FilePolarity,Positive*%
%FSLAX46Y46*%
G04 Gerber Fmt 4.6, Leading zero omitted, Abs format (unit mm)*
G04 Created by KiCad (PCBNEW 9.0.3) date 2026-02-01 20:01:01*
%MOMM*%
%LPD*%
G01*
G04 APERTURE LIST*
%TA.AperFunction,ComponentPad*%
%ADD10C,2.050000*%
%TD*%
%TA.AperFunction,ComponentPad*%
%ADD11C,2.250000*%
%TD*%
%TA.AperFunction,ViaPad*%
%ADD12C,0.250000*%
%TD*%
%TA.AperFunction,Conductor*%
%ADD13C,0.349250*%
%TD*%
%TA.AperFunction,Profile*%
%ADD14C,0.050000*%
%TD*%
G04 APERTURE END LIST*
D10*
%TO.N,Net-(J10-In)*%
%TO.C,J10*%
X94060000Y-134090000D03*
D11*
%TO.N,GND*%
X91520000Y-131550000D03*
X91520000Y-136630000D03*
X96600000Y-131550000D03*
X96600000Y-136630000D03*
%TD*%
D10*
%TO.N,Net-(J10-In)*%
%TO.C,J9*%
X64060000Y-134090000D03*
D11*
%TO.N,GND*%
X61520000Y-131550000D03*
X61520000Y-136630000D03*
X66600000Y-131550000D03*
X66600000Y-136630000D03*
%TD*%
D10*
%TO.N,Net-(J2-In)*%
%TO.C,J2*%
X64060000Y-121590000D03*
D11*
%TO.N,GND*%
X61520000Y-119050000D03*
X61520000Y-124130000D03*
X66600000Y-119050000D03*
X66600000Y-124130000D03*
%TD*%
D10*
%TO.N,Net-(J1-In)*%
%TO.C,J1*%
X64060000Y-71530000D03*
D11*
%TO.N,GND*%
X61520000Y-68990000D03*
X61520000Y-74070000D03*
X66600000Y-68990000D03*
X66600000Y-74070000D03*
%TD*%
D10*
%TO.N,Net-(J4-In)*%
%TO.C,J4*%
X136260000Y-71620000D03*
D11*
%TO.N,GND*%
X133720000Y-69080000D03*
X133720000Y-74160000D03*
X138800000Y-69080000D03*
X138800000Y-74160000D03*
%TD*%
D10*
%TO.N,Net-(J6-In)*%
%TO.C,J6*%
X136120000Y-84060000D03*
D11*
%TO.N,GND*%
X133580000Y-81520000D03*
X133580000Y-86600000D03*
X138660000Y-81520000D03*
X138660000Y-86600000D03*
%TD*%
D10*
%TO.N,Net-(J3-In)*%
%TO.C,J3*%
X106260000Y-71650000D03*
D11*
%TO.N,GND*%
X103720000Y-69110000D03*
X103720000Y-74190000D03*
X108800000Y-69110000D03*
X108800000Y-74190000D03*
%TD*%
D10*
%TO.N,Net-(J11-In)*%
%TO.C,J12*%
X94060000Y-84030000D03*
D11*
%TO.N,GND*%
X91520000Y-81490000D03*
X91520000Y-86570000D03*
X96600000Y-81490000D03*
X96600000Y-86570000D03*
%TD*%
D10*
%TO.N,Net-(J5-In)*%
%TO.C,J5*%
X106090000Y-84030000D03*
D11*
%TO.N,GND*%
X103550000Y-81490000D03*
X103550000Y-86570000D03*
X108630000Y-81490000D03*
X108630000Y-86570000D03*
%TD*%
D10*
%TO.N,Net-(J11-In)*%
%TO.C,J11*%
X64030000Y-84030000D03*
D11*
%TO.N,GND*%
X61490000Y-81490000D03*
X61490000Y-86570000D03*
X66570000Y-81490000D03*
X66570000Y-86570000D03*
%TD*%
D10*
%TO.N,Net-(J8-In)*%
%TO.C,J8*%
X64060000Y-109090000D03*
D11*
%TO.N,GND*%
X61520000Y-106550000D03*
X61520000Y-111630000D03*
X66600000Y-106550000D03*
X66600000Y-111630000D03*
%TD*%
D10*
%TO.N,Net-(J13-In)*%
%TO.C,J13*%
X64030000Y-96530000D03*
D11*
%TO.N,GND*%
X61490000Y-93990000D03*
X61490000Y-99070000D03*
X66570000Y-93990000D03*
X66570000Y-99070000D03*
%TD*%
D10*
%TO.N,Net-(J13-In)*%
%TO.C,J14*%
X79030000Y-96530000D03*
D11*
%TO.N,GND*%
X76490000Y-93990000D03*
X76490000Y-99070000D03*
X81570000Y-93990000D03*
X81570000Y-99070000D03*
%TD*%
D10*
%TO.N,Net-(J7-In)*%
%TO.C,J7*%
X106090000Y-96500000D03*
D11*
%TO.N,GND*%
X108630000Y-93960000D03*
X103550000Y-93960000D03*
X108630000Y-99040000D03*
X103550000Y-99040000D03*
%TD*%
D12*
%TO.N,GND*%
X93390000Y-124300000D03*
X93090000Y-123240000D03*
X94790000Y-124300000D03*
X94090000Y-124300000D03*
X95010000Y-123240000D03*
X79500000Y-120500000D03*
X104500000Y-130500000D03*
X99500000Y-140500000D03*
X124500000Y-135500000D03*
X84500000Y-60500000D03*
X99500000Y-125500000D03*
X84500000Y-70500000D03*
X144500000Y-85500000D03*
X119500000Y-60500000D03*
X99500000Y-130500000D03*
X94500000Y-60500000D03*
X109500000Y-70500000D03*
X94500000Y-65500000D03*
X124500000Y-60500000D03*
X129500000Y-120500000D03*
X144500000Y-80500000D03*
X104500000Y-70500000D03*
X139500000Y-100500000D03*
X109500000Y-85500000D03*
X94500000Y-70500000D03*
X125119999Y-125195000D03*
X139500000Y-130500000D03*
X84500000Y-95500000D03*
X114500000Y-90500000D03*
X54500000Y-110500000D03*
X69500000Y-110500000D03*
X104500000Y-75500000D03*
X134500000Y-105500000D03*
X126100000Y-126000000D03*
X144500000Y-120500000D03*
X89500000Y-80500000D03*
X114500000Y-100500000D03*
X139500000Y-80500000D03*
X139500000Y-120500000D03*
X109500000Y-65500000D03*
X54500000Y-60500000D03*
X139500000Y-125500000D03*
X84500000Y-140500000D03*
X114500000Y-75500000D03*
X54500000Y-70500000D03*
X74500000Y-130500000D03*
X124500000Y-115500000D03*
X114500000Y-65500000D03*
X84500000Y-75500000D03*
X89500000Y-75500000D03*
X124500000Y-80500000D03*
X104500000Y-115500000D03*
X109500000Y-90500000D03*
X129500000Y-95500000D03*
X84500000Y-115500000D03*
X114500000Y-120500000D03*
X139500000Y-85500000D03*
X134500000Y-110500000D03*
X134500000Y-130500000D03*
X69500000Y-60500000D03*
X134500000Y-115500000D03*
X109500000Y-100500000D03*
X64500000Y-140500000D03*
X54500000Y-140500000D03*
X139500000Y-135500000D03*
X104500000Y-135500000D03*
X84500000Y-110500000D03*
X72800000Y-69200000D03*
X59500000Y-60500000D03*
X84500000Y-90500000D03*
X104500000Y-85500000D03*
X54500000Y-120500000D03*
X139500000Y-90500000D03*
X99500000Y-95500000D03*
X54500000Y-135500000D03*
X74500000Y-60500000D03*
X114500000Y-135500000D03*
X79500000Y-125500000D03*
X144500000Y-110500000D03*
X73400000Y-72830000D03*
X99500000Y-90500000D03*
X134500000Y-135500000D03*
X144500000Y-130500000D03*
X99500000Y-105500000D03*
X134500000Y-120500000D03*
X69500000Y-90500000D03*
X124500000Y-90500000D03*
X119500000Y-125500000D03*
X139500000Y-115500000D03*
X119500000Y-90500000D03*
X89500000Y-120500000D03*
X144500000Y-100500000D03*
X89500000Y-85500000D03*
X89500000Y-110500000D03*
X89500000Y-60500000D03*
X94500000Y-120500000D03*
X70800000Y-70229178D03*
X109500000Y-120500000D03*
X124500000Y-130500000D03*
X109500000Y-110500000D03*
X129500000Y-100500000D03*
X144500000Y-90500000D03*
X69500000Y-115500000D03*
X59500000Y-130500000D03*
X127039999Y-125195000D03*
X119500000Y-105500000D03*
X134500000Y-95500000D03*
X94500000Y-100500000D03*
X79500000Y-60500000D03*
X129500000Y-90500000D03*
X129500000Y-140500000D03*
X119500000Y-95500000D03*
X129500000Y-115500000D03*
X104500000Y-105500000D03*
X104500000Y-100500000D03*
X95020000Y-110740000D03*
X114500000Y-60500000D03*
X134500000Y-65500000D03*
X59500000Y-65500000D03*
X59500000Y-105500000D03*
X99500000Y-70500000D03*
X54500000Y-80500000D03*
X54500000Y-105500000D03*
X72100000Y-73800000D03*
X114500000Y-105500000D03*
X54500000Y-85500000D03*
X72100000Y-69200000D03*
X129500000Y-110500000D03*
X64500000Y-90500000D03*
X119500000Y-120500000D03*
X109500000Y-105500000D03*
X104500000Y-80500000D03*
X104500000Y-95500000D03*
X89500000Y-130500000D03*
X129500000Y-130500000D03*
X64500000Y-65500000D03*
X129500000Y-65500000D03*
X144500000Y-125500000D03*
X139500000Y-65500000D03*
X89500000Y-100500000D03*
X124500000Y-75500000D03*
X109500000Y-60500000D03*
X109500000Y-95500000D03*
X134500000Y-85500000D03*
X54500000Y-130500000D03*
X144500000Y-95500000D03*
X109500000Y-140500000D03*
X59500000Y-90500000D03*
X59500000Y-100500000D03*
X124500000Y-65500000D03*
X69500000Y-70500000D03*
X74500000Y-80500000D03*
X74500000Y-110500000D03*
X69500000Y-80500000D03*
X89500000Y-105500000D03*
X71400000Y-73800000D03*
X94500000Y-105500000D03*
X64500000Y-100500000D03*
X54500000Y-100500000D03*
X79500000Y-65500000D03*
X134500000Y-80500000D03*
X64500000Y-115500000D03*
X114500000Y-115500000D03*
X69500000Y-105500000D03*
X89500000Y-90500000D03*
X134500000Y-140500000D03*
X134500000Y-75500000D03*
X99500000Y-135500000D03*
X84500000Y-135500000D03*
X114500000Y-130500000D03*
X99500000Y-60500000D03*
X124500000Y-95500000D03*
X84500000Y-100500000D03*
X84500000Y-130500000D03*
X124500000Y-125500000D03*
X144500000Y-70500000D03*
X89500000Y-70500000D03*
X79500000Y-130500000D03*
X79500000Y-135500000D03*
X94500000Y-125500000D03*
X74500000Y-65500000D03*
X79500000Y-110500000D03*
X109500000Y-125500000D03*
X74500000Y-140500000D03*
X64500000Y-60500000D03*
X119500000Y-115500000D03*
X109500000Y-130500000D03*
X139500000Y-95500000D03*
X84500000Y-120500000D03*
X54500000Y-90500000D03*
X74500000Y-90500000D03*
X59500000Y-95500000D03*
X109500000Y-75500000D03*
X89500000Y-140500000D03*
X94500000Y-90500000D03*
X64500000Y-105500000D03*
X54500000Y-65500000D03*
X69500000Y-130500000D03*
X129500000Y-80500000D03*
X69500000Y-100500000D03*
X74500000Y-75500000D03*
X69500000Y-120500000D03*
X109500000Y-135500000D03*
X74500000Y-115500000D03*
X94100000Y-111800000D03*
X144500000Y-60500000D03*
X54500000Y-115500000D03*
X119500000Y-75500000D03*
X104500000Y-60500000D03*
X104500000Y-110500000D03*
X139500000Y-60500000D03*
X59500000Y-85500000D03*
X79500000Y-75500000D03*
X129500000Y-135500000D03*
X124500000Y-105500000D03*
X94500000Y-85500000D03*
X79500000Y-105500000D03*
X99500000Y-120500000D03*
X94800000Y-111800000D03*
X79500000Y-100500000D03*
X119500000Y-65500000D03*
X59500000Y-75500000D03*
X124500000Y-120500000D03*
X134500000Y-100500000D03*
X72800000Y-73800000D03*
X124500000Y-140500000D03*
X114500000Y-125500000D03*
X134500000Y-60500000D03*
X84500000Y-105500000D03*
X79500000Y-80500000D03*
X144500000Y-65500000D03*
X93400000Y-111800000D03*
X74500000Y-100500000D03*
X119500000Y-110500000D03*
X89500000Y-65500000D03*
X69500000Y-125500000D03*
X104500000Y-120500000D03*
X94500000Y-80500000D03*
X79500000Y-115500000D03*
X114500000Y-140500000D03*
X74500000Y-95500000D03*
X109500000Y-115500000D03*
X104500000Y-65500000D03*
X139500000Y-75500000D03*
X114500000Y-95500000D03*
X59500000Y-120500000D03*
X94500000Y-115500000D03*
X64500000Y-80500000D03*
X71400000Y-69200000D03*
X94500000Y-140500000D03*
X93100000Y-110740000D03*
X144500000Y-135500000D03*
X74500000Y-125500000D03*
X125400000Y-126000000D03*
X54500000Y-95500000D03*
X99500000Y-100500000D03*
X74500000Y-70500000D03*
X139500000Y-140500000D03*
X69500000Y-75500000D03*
X79500000Y-90500000D03*
X59500000Y-135500000D03*
X69500000Y-85500000D03*
X129500000Y-75500000D03*
X119500000Y-80500000D03*
X144500000Y-105500000D03*
X104500000Y-90500000D03*
X74500000Y-105500000D03*
X59500000Y-140500000D03*
X99500000Y-75500000D03*
X99500000Y-80500000D03*
X59500000Y-115500000D03*
X64500000Y-135500000D03*
X119500000Y-100500000D03*
X144500000Y-115500000D03*
X99500000Y-115500000D03*
X79500000Y-140500000D03*
X99500000Y-110500000D03*
X144500000Y-75500000D03*
X59500000Y-80500000D03*
X64500000Y-85500000D03*
X124500000Y-100500000D03*
X69500000Y-95500000D03*
X139500000Y-70500000D03*
X139500000Y-110500000D03*
X69500000Y-135500000D03*
X134500000Y-90500000D03*
X99500000Y-85500000D03*
X64500000Y-110500000D03*
X99500000Y-65500000D03*
X119500000Y-140500000D03*
X59500000Y-110500000D03*
X73370000Y-70230000D03*
X119500000Y-135500000D03*
X69500000Y-65500000D03*
X134500000Y-70500000D03*
X84500000Y-80500000D03*
X129500000Y-105500000D03*
X79500000Y-70500000D03*
X74500000Y-135500000D03*
X70800000Y-72830000D03*
X126800000Y-126000000D03*
X129500000Y-60500000D03*
X74500000Y-120500000D03*
X144500000Y-140500000D03*
X64500000Y-75500000D03*
X89500000Y-125500000D03*
X124500000Y-110500000D03*
X89500000Y-115500000D03*
X109500000Y-80500000D03*
X84500000Y-125500000D03*
X139500000Y-105500000D03*
X84500000Y-65500000D03*
X94500000Y-75500000D03*
X54500000Y-125500000D03*
X129500000Y-125500000D03*
X134500000Y-125500000D03*
X54500000Y-75500000D03*
X119500000Y-130500000D03*
X59500000Y-125500000D03*
X104500000Y-140500000D03*
X69500000Y-140500000D03*
X59500000Y-70500000D03*
X114500000Y-80500000D03*
X64500000Y-125500000D03*
X89500000Y-95500000D03*
X89500000Y-135500000D03*
%TO.N,Net-(J4-In)*%
X127800000Y-72950000D03*
X122730000Y-72950000D03*
X123130003Y-72950000D03*
X127230000Y-72950000D03*
X118230000Y-72950000D03*
%TO.N,Net-(J6-In)*%
X129030000Y-85330000D03*
X129030000Y-82730000D03*
X124030000Y-85330000D03*
X119040000Y-82730000D03*
X119030000Y-85330000D03*
%TD*%
D13*
%TO.N,Net-(J6-In)*%
X119040000Y-85330000D02*
X124030000Y-85330000D01*
%TD*%
%TA.AperFunction,Conductor*%
%TO.N,GND*%
G36*
X149442539Y-50520185D02*
G01*
X149488294Y-50572989D01*
X149499500Y-50624500D01*
X149499500Y-149375500D01*
X149479815Y-149442539D01*
X149427011Y-149488294D01*
X149375500Y-149499500D01*
X50624500Y-149499500D01*
X50557461Y-149479815D01*
X50511706Y-149427011D01*
X50500500Y-149375500D01*
X50500500Y-145381995D01*
X52699500Y-145381995D01*
X52699500Y-145618004D01*
X52699501Y-145618020D01*
X52730306Y-145852010D01*
X52791394Y-146079993D01*
X52881714Y-146298045D01*
X52881719Y-146298056D01*
X52952677Y-146420957D01*
X52999727Y-146502450D01*
X52999729Y-146502453D01*
X52999730Y-146502454D01*
X53143406Y-146689697D01*
X53143412Y-146689704D01*
X53310295Y-146856587D01*
X53310301Y-146856592D01*
X53497550Y-147000273D01*
X53628918Y-147076118D01*
X53701943Y-147118280D01*
X53701948Y-147118282D01*
X53701951Y-147118284D01*
X53920007Y-147208606D01*
X54147986Y-147269693D01*
X54381989Y-147300500D01*
X54381996Y-147300500D01*
X54618004Y-147300500D01*
X54618011Y-147300500D01*
X54852014Y-147269693D01*
X55079993Y-147208606D01*
X55298049Y-147118284D01*
X55502450Y-147000273D01*
X55689699Y-146856592D01*
X55856592Y-146689699D01*
X56000273Y-146502450D01*
X56118284Y-146298049D01*
X56208606Y-146079993D01*
X56269693Y-145852014D01*
X56300500Y-145618011D01*
X56300500Y-145381995D01*
X143699500Y-145381995D01*
X143699500Y-145618004D01*
X143699501Y-145618020D01*
X143730306Y-145852010D01*
X143791394Y-146079993D01*
X143881714Y-146298045D01*
X143881719Y-146298056D01*
X143952677Y-146420957D01*
X143999727Y-146502450D01*
X143999729Y-146502453D01*
X143999730Y-146502454D01*
X144143406Y-146689697D01*
X144143412Y-146689704D01*
X144310295Y-146856587D01*
X144310301Y-146856592D01*
X144497550Y-147000273D01*
X144628918Y-147076118D01*
X144701943Y-147118280D01*
X144701948Y-147118282D01*
X144701951Y-147118284D01*
X144920007Y-147208606D01*
X145147986Y-147269693D01*
X145381989Y-147300500D01*
X145381996Y-147300500D01*
X145618004Y-147300500D01*
X145618011Y-147300500D01*
X145852014Y-147269693D01*
X146079993Y-147208606D01*
X146298049Y-147118284D01*
X146502450Y-147000273D01*
X146689699Y-146856592D01*
X146856592Y-146689699D01*
X147000273Y-146502450D01*
X147118284Y-146298049D01*
X147208606Y-146079993D01*
X147269693Y-145852014D01*
X147300500Y-145618011D01*
X147300500Y-145381989D01*
X147269693Y-145147986D01*
X147208606Y-144920007D01*
X147118284Y-144701951D01*
X147118282Y-144701948D01*
X147118280Y-144701943D01*
X147076118Y-144628918D01*
X147000273Y-144497550D01*
X146856592Y-144310301D01*
X146856587Y-144310295D01*
X146689704Y-144143412D01*
X146689697Y-144143406D01*
X146502454Y-143999730D01*
X146502453Y-143999729D01*
X146502450Y-143999727D01*
X146420957Y-143952677D01*
X146298056Y-143881719D01*
X146298045Y-143881714D01*
X146079993Y-143791394D01*
X145852010Y-143730306D01*
X145618020Y-143699501D01*
X145618017Y-143699500D01*
X145618011Y-143699500D01*
X145381989Y-143699500D01*
X145381983Y-143699500D01*
X145381979Y-143699501D01*
X145147989Y-143730306D01*
X144920006Y-143791394D01*
X144701954Y-143881714D01*
X144701943Y-143881719D01*
X144497545Y-143999730D01*
X144310302Y-144143406D01*
X144310295Y-144143412D01*
X144143412Y-144310295D01*
X144143406Y-144310302D01*
X143999730Y-144497545D01*
X143881719Y-144701943D01*
X143881714Y-144701954D01*
X143791394Y-144920006D01*
X143730306Y-145147989D01*
X143699501Y-145381979D01*
X143699500Y-145381995D01*
X56300500Y-145381995D01*
X56300500Y-145381989D01*
X56269693Y-145147986D01*
X56208606Y-144920007D01*
X56118284Y-144701951D01*
X56118282Y-144701948D01*
X56118280Y-144701943D01*
X56076118Y-144628918D01*
X56000273Y-144497550D01*
X55856592Y-144310301D01*
X55856587Y-144310295D01*
X55689704Y-144143412D01*
X55689697Y-144143406D01*
X55502454Y-143999730D01*
X55502453Y-143999729D01*
X55502450Y-143999727D01*
X55420957Y-143952677D01*
X55298056Y-143881719D01*
X55298045Y-143881714D01*
X55079993Y-143791394D01*
X54852010Y-143730306D01*
X54618020Y-143699501D01*
X54618017Y-143699500D01*
X54618011Y-143699500D01*
X54381989Y-143699500D01*
X54381983Y-143699500D01*
X54381979Y-143699501D01*
X54147989Y-143730306D01*
X53920006Y-143791394D01*
X53701954Y-143881714D01*
X53701943Y-143881719D01*
X53497545Y-143999730D01*
X53310302Y-144143406D01*
X53310295Y-144143412D01*
X53143412Y-144310295D01*
X53143406Y-144310302D01*
X52999730Y-144497545D01*
X52881719Y-144701943D01*
X52881714Y-144701954D01*
X52791394Y-144920006D01*
X52730306Y-145147989D01*
X52699501Y-145381979D01*
X52699500Y-145381995D01*
X50500500Y-145381995D01*
X50500500Y-133993551D01*
X62834500Y-133993551D01*
X62834500Y-134186448D01*
X62864675Y-134376969D01*
X62864676Y-134376972D01*
X62924285Y-134560429D01*
X63011859Y-134732302D01*
X63125241Y-134888359D01*
X63261641Y-135024759D01*
X63417698Y-135138141D01*
X63589571Y-135225715D01*
X63773028Y-135285324D01*
X63963551Y-135315500D01*
X63963552Y-135315500D01*
X64156448Y-135315500D01*
X64156449Y-135315500D01*
X64346972Y-135285324D01*
X64530429Y-135225715D01*
X64702302Y-135138141D01*
X64858359Y-135024759D01*
X64994759Y-134888359D01*
X65108141Y-134732302D01*
X65195715Y-134560429D01*
X65255324Y-134376972D01*
X65285500Y-134186449D01*
X65285500Y-133993551D01*
X92834500Y-133993551D01*
X92834500Y-134186448D01*
X92864675Y-134376969D01*
X92864676Y-134376972D01*
X92924285Y-134560429D01*
X93011859Y-134732302D01*
X93125241Y-134888359D01*
X93261641Y-135024759D01*
X93417698Y-135138141D01*
X93589571Y-135225715D01*
X93773028Y-135285324D01*
X93963551Y-135315500D01*
X93963552Y-135315500D01*
X94156448Y-135315500D01*
X94156449Y-135315500D01*
X94346972Y-135285324D01*
X94530429Y-135225715D01*
X94702302Y-135138141D01*
X94858359Y-135024759D01*
X94994759Y-134888359D01*
X95108141Y-134732302D01*
X95195715Y-134560429D01*
X95255324Y-134376972D01*
X95285500Y-134186449D01*
X95285500Y-133993551D01*
X95255324Y-133803028D01*
X95195715Y-133619571D01*
X95108141Y-133447698D01*
X94994759Y-133291641D01*
X94858359Y-133155241D01*
X94702302Y-133041859D01*
X94530429Y-132954285D01*
X94346972Y-132894676D01*
X94346970Y-132894675D01*
X94346969Y-132894675D01*
X94200614Y-132871495D01*
X94156449Y-132864500D01*
X93963551Y-132864500D01*
X93927697Y-132870178D01*
X93773030Y-132894675D01*
X93589568Y-132954286D01*
X93417697Y-133041859D01*
X93328661Y-133106547D01*
X93261641Y-133155241D01*
X93261639Y-133155243D01*
X93261638Y-133155243D01*
X93125243Y-133291638D01*
X93125243Y-133291639D01*
X93125241Y-133291641D01*
X93076547Y-133358661D01*
X93011859Y-133447697D01*
X92924286Y-133619568D01*
X92864675Y-133803030D01*
X92834500Y-133993551D01*
X65285500Y-133993551D01*
X65255324Y-133803028D01*
X65195715Y-133619571D01*
X65108141Y-133447698D01*
X64994759Y-133291641D01*
X64858359Y-133155241D01*
X64702302Y-133041859D01*
X64530429Y-132954285D01*
X64346972Y-132894676D01*
X64346970Y-132894675D01*
X64346969Y-132894675D01*
X64200614Y-132871495D01*
X64156449Y-132864500D01*
X63963551Y-132864500D01*
X63927697Y-132870178D01*
X63773030Y-132894675D01*
X63589568Y-132954286D01*
X63417697Y-133041859D01*
X63328661Y-133106547D01*
X63261641Y-133155241D01*
X63261639Y-133155243D01*
X63261638Y-133155243D01*
X63125243Y-133291638D01*
X63125243Y-133291639D01*
X63125241Y-133291641D01*
X63076547Y-133358661D01*
X63011859Y-133447697D01*
X62924286Y-133619568D01*
X62864675Y-133803030D01*
X62834500Y-133993551D01*
X50500500Y-133993551D01*
X50500500Y-121493551D01*
X62834500Y-121493551D01*
X62834500Y-121686448D01*
X62864675Y-121876969D01*
X62864676Y-121876972D01*
X62924285Y-122060429D01*
X63011859Y-122232302D01*
X63125241Y-122388359D01*
X63261641Y-122524759D01*
X63417698Y-122638141D01*
X63589571Y-122725715D01*
X63773028Y-122785324D01*
X63963551Y-122815500D01*
X63963552Y-122815500D01*
X64156448Y-122815500D01*
X64156449Y-122815500D01*
X64346972Y-122785324D01*
X64530429Y-122725715D01*
X64702302Y-122638141D01*
X64858359Y-122524759D01*
X64994759Y-122388359D01*
X65108141Y-122232302D01*
X65195715Y-122060429D01*
X65255324Y-121876972D01*
X65285500Y-121686449D01*
X65285500Y-121493551D01*
X65255324Y-121303028D01*
X65195715Y-121119571D01*
X65108141Y-120947698D01*
X64994759Y-120791641D01*
X64858359Y-120655241D01*
X64702302Y-120541859D01*
X64530429Y-120454285D01*
X64346972Y-120394676D01*
X64346970Y-120394675D01*
X64346969Y-120394675D01*
X64200614Y-120371495D01*
X64156449Y-120364500D01*
X63963551Y-120364500D01*
X63927697Y-120370178D01*
X63773030Y-120394675D01*
X63589568Y-120454286D01*
X63417697Y-120541859D01*
X63328661Y-120606547D01*
X63261641Y-120655241D01*
X63261639Y-120655243D01*
X63261638Y-120655243D01*
X63125243Y-120791638D01*
X63125243Y-120791639D01*
X63125241Y-120791641D01*
X63076547Y-120858661D01*
X63011859Y-120947697D01*
X62924286Y-121119568D01*
X62864675Y-121303030D01*
X62834500Y-121493551D01*
X50500500Y-121493551D01*
X50500500Y-108993551D01*
X62834500Y-108993551D01*
X62834500Y-109186448D01*
X62864675Y-109376969D01*
X62864676Y-109376972D01*
X62924285Y-109560429D01*
X63011859Y-109732302D01*
X63125241Y-109888359D01*
X63261641Y-110024759D01*
X63417698Y-110138141D01*
X63589571Y-110225715D01*
X63773028Y-110285324D01*
X63963551Y-110315500D01*
X63963552Y-110315500D01*
X64156448Y-110315500D01*
X64156449Y-110315500D01*
X64346972Y-110285324D01*
X64530429Y-110225715D01*
X64702302Y-110138141D01*
X64858359Y-110024759D01*
X64994759Y-109888359D01*
X65108141Y-109732302D01*
X65195715Y-109560429D01*
X65255324Y-109376972D01*
X65285500Y-109186449D01*
X65285500Y-108993551D01*
X65255324Y-108803028D01*
X65195715Y-108619571D01*
X65108141Y-108447698D01*
X64994759Y-108291641D01*
X64858359Y-108155241D01*
X64702302Y-108041859D01*
X64530429Y-107954285D01*
X64346972Y-107894676D01*
X64346970Y-107894675D01*
X64346969Y-107894675D01*
X64200614Y-107871495D01*
X64156449Y-107864500D01*
X63963551Y-107864500D01*
X63927697Y-107870178D01*
X63773030Y-107894675D01*
X63589568Y-107954286D01*
X63417697Y-108041859D01*
X63328661Y-108106547D01*
X63261641Y-108155241D01*
X63261639Y-108155243D01*
X63261638Y-108155243D01*
X63125243Y-108291638D01*
X63125243Y-108291639D01*
X63125241Y-108291641D01*
X63076547Y-108358661D01*
X63011859Y-108447697D01*
X62924286Y-108619568D01*
X62864675Y-108803030D01*
X62834500Y-108993551D01*
X50500500Y-108993551D01*
X50500500Y-96433551D01*
X62804500Y-96433551D01*
X62804500Y-96626448D01*
X62834675Y-96816969D01*
X62834676Y-96816972D01*
X62894285Y-97000429D01*
X62981859Y-97172302D01*
X63095241Y-97328359D01*
X63231641Y-97464759D01*
X63387698Y-97578141D01*
X63559571Y-97665715D01*
X63743028Y-97725324D01*
X63933551Y-97755500D01*
X63933552Y-97755500D01*
X64126448Y-97755500D01*
X64126449Y-97755500D01*
X64316972Y-97725324D01*
X64500429Y-97665715D01*
X64672302Y-97578141D01*
X64828359Y-97464759D01*
X64964759Y-97328359D01*
X65078141Y-97172302D01*
X65165715Y-97000429D01*
X65225324Y-96816972D01*
X65255500Y-96626449D01*
X65255500Y-96433551D01*
X77804500Y-96433551D01*
X77804500Y-96626448D01*
X77834675Y-96816969D01*
X77834676Y-96816972D01*
X77894285Y-97000429D01*
X77981859Y-97172302D01*
X78095241Y-97328359D01*
X78231641Y-97464759D01*
X78387698Y-97578141D01*
X78559571Y-97665715D01*
X78743028Y-97725324D01*
X78933551Y-97755500D01*
X78933552Y-97755500D01*
X79126448Y-97755500D01*
X79126449Y-97755500D01*
X79316972Y-97725324D01*
X79500429Y-97665715D01*
X79672302Y-97578141D01*
X79828359Y-97464759D01*
X79964759Y-97328359D01*
X80078141Y-97172302D01*
X80165715Y-97000429D01*
X80225324Y-96816972D01*
X80255500Y-96626449D01*
X80255500Y-96433551D01*
X80250748Y-96403551D01*
X104864500Y-96403551D01*
X104864500Y-96596448D01*
X104894675Y-96786969D01*
X104894676Y-96786972D01*
X104954285Y-96970429D01*
X105041859Y-97142302D01*
X105155241Y-97298359D01*
X105291641Y-97434759D01*
X105447698Y-97548141D01*
X105619571Y-97635715D01*
X105803028Y-97695324D01*
X105993551Y-97725500D01*
X105993552Y-97725500D01*
X106186448Y-97725500D01*
X106186449Y-97725500D01*
X106376972Y-97695324D01*
X106560429Y-97635715D01*
X106732302Y-97548141D01*
X106888359Y-97434759D01*
X107024759Y-97298359D01*
X107138141Y-97142302D01*
X107225715Y-96970429D01*
X107285324Y-96786972D01*
X107315500Y-96596449D01*
X107315500Y-96403551D01*
X107285324Y-96213028D01*
X107225715Y-96029571D01*
X107138141Y-95857698D01*
X107024759Y-95701641D01*
X106888359Y-95565241D01*
X106732302Y-95451859D01*
X106560429Y-95364285D01*
X106376972Y-95304676D01*
X106376970Y-95304675D01*
X106376969Y-95304675D01*
X106230614Y-95281495D01*
X106186449Y-95274500D01*
X105993551Y-95274500D01*
X105957697Y-95280178D01*
X105803030Y-95304675D01*
X105619568Y-95364286D01*
X105447697Y-95451859D01*
X105358661Y-95516547D01*
X105291641Y-95565241D01*
X105291639Y-95565243D01*
X105291638Y-95565243D01*
X105155243Y-95701638D01*
X105155243Y-95701639D01*
X105155241Y-95701641D01*
X105133447Y-95731638D01*
X105041859Y-95857697D01*
X104954286Y-96029568D01*
X104894675Y-96213030D01*
X104864500Y-96403551D01*
X80250748Y-96403551D01*
X80225324Y-96243028D01*
X80165715Y-96059571D01*
X80078141Y-95887698D01*
X79964759Y-95731641D01*
X79828359Y-95595241D01*
X79672302Y-95481859D01*
X79500429Y-95394285D01*
X79316972Y-95334676D01*
X79316970Y-95334675D01*
X79316969Y-95334675D01*
X79170614Y-95311495D01*
X79126449Y-95304500D01*
X78933551Y-95304500D01*
X78897697Y-95310178D01*
X78743030Y-95334675D01*
X78559568Y-95394286D01*
X78387697Y-95481859D01*
X78298661Y-95546547D01*
X78231641Y-95595241D01*
X78231639Y-95595243D01*
X78231638Y-95595243D01*
X78095243Y-95731638D01*
X78095243Y-95731639D01*
X78095241Y-95731641D01*
X78046547Y-95798661D01*
X77981859Y-95887697D01*
X77894286Y-96059568D01*
X77834675Y-96243030D01*
X77804500Y-96433551D01*
X65255500Y-96433551D01*
X65225324Y-96243028D01*
X65165715Y-96059571D01*
X65078141Y-95887698D01*
X64964759Y-95731641D01*
X64828359Y-95595241D01*
X64672302Y-95481859D01*
X64500429Y-95394285D01*
X64316972Y-95334676D01*
X64316970Y-95334675D01*
X64316969Y-95334675D01*
X64170614Y-95311495D01*
X64126449Y-95304500D01*
X63933551Y-95304500D01*
X63897697Y-95310178D01*
X63743030Y-95334675D01*
X63559568Y-95394286D01*
X63387697Y-95481859D01*
X63298661Y-95546547D01*
X63231641Y-95595241D01*
X63231639Y-95595243D01*
X63231638Y-95595243D01*
X63095243Y-95731638D01*
X63095243Y-95731639D01*
X63095241Y-95731641D01*
X63046547Y-95798661D01*
X62981859Y-95887697D01*
X62894286Y-96059568D01*
X62834675Y-96243030D01*
X62804500Y-96433551D01*
X50500500Y-96433551D01*
X50500500Y-85280614D01*
X118664875Y-85280614D01*
X118664875Y-85379386D01*
X118690439Y-85474793D01*
X118739825Y-85560332D01*
X118809668Y-85630175D01*
X118895207Y-85679561D01*
X118990614Y-85705125D01*
X118990616Y-85705125D01*
X124079384Y-85705125D01*
X124079386Y-85705125D01*
X124174793Y-85679561D01*
X124260332Y-85630175D01*
X124330175Y-85560332D01*
X124379561Y-85474793D01*
X124405125Y-85379386D01*
X124405125Y-85287147D01*
X128704500Y-85287147D01*
X128704500Y-85372853D01*
X128706251Y-85379386D01*
X128726682Y-85455637D01*
X128726685Y-85455644D01*
X128769530Y-85529855D01*
X128769534Y-85529860D01*
X128769535Y-85529862D01*
X128830138Y-85590465D01*
X128830140Y-85590466D01*
X128830144Y-85590469D01*
X128898913Y-85630172D01*
X128904362Y-85633318D01*
X128987147Y-85655500D01*
X128987149Y-85655500D01*
X129072851Y-85655500D01*
X129072853Y-85655500D01*
X129155638Y-85633318D01*
X129229862Y-85590465D01*
X129290465Y-85529862D01*
X129333318Y-85455638D01*
X129355500Y-85372853D01*
X129355500Y-85287147D01*
X129333318Y-85204362D01*
X129322257Y-85185204D01*
X129290469Y-85130144D01*
X129290463Y-85130136D01*
X129229863Y-85069536D01*
X129229855Y-85069530D01*
X129155644Y-85026685D01*
X129155640Y-85026683D01*
X129155638Y-85026682D01*
X129072853Y-85004500D01*
X128987147Y-85004500D01*
X128904362Y-85026682D01*
X128904355Y-85026685D01*
X128830144Y-85069530D01*
X128830136Y-85069536D01*
X128769536Y-85130136D01*
X128769530Y-85130144D01*
X128726685Y-85204355D01*
X128726682Y-85204362D01*
X128704500Y-85287147D01*
X124405125Y-85287147D01*
X124405125Y-85280614D01*
X124379561Y-85185207D01*
X124330175Y-85099668D01*
X124260332Y-85029825D01*
X124174793Y-84980439D01*
X124079386Y-84954875D01*
X118990614Y-84954875D01*
X118895207Y-84980439D01*
X118895204Y-84980440D01*
X118809671Y-85029823D01*
X118809665Y-85029827D01*
X118739827Y-85099665D01*
X118739823Y-85099671D01*
X118690440Y-85185204D01*
X118690439Y-85185207D01*
X118664875Y-85280614D01*
X50500500Y-85280614D01*
X50500500Y-83933551D01*
X62804500Y-83933551D01*
X62804500Y-84126448D01*
X62834675Y-84316969D01*
X62834676Y-84316972D01*
X62894285Y-84500429D01*
X62981859Y-84672302D01*
X63095241Y-84828359D01*
X63231641Y-84964759D01*
X63387698Y-85078141D01*
X63559571Y-85165715D01*
X63743028Y-85225324D01*
X63933551Y-85255500D01*
X63933552Y-85255500D01*
X64126448Y-85255500D01*
X64126449Y-85255500D01*
X64316972Y-85225324D01*
X64500429Y-85165715D01*
X64672302Y-85078141D01*
X64828359Y-84964759D01*
X64964759Y-84828359D01*
X65078141Y-84672302D01*
X65165715Y-84500429D01*
X65225324Y-84316972D01*
X65255500Y-84126449D01*
X65255500Y-83933551D01*
X92834500Y-83933551D01*
X92834500Y-84126448D01*
X92864675Y-84316969D01*
X92864676Y-84316972D01*
X92924285Y-84500429D01*
X93011859Y-84672302D01*
X93125241Y-84828359D01*
X93261641Y-84964759D01*
X93417698Y-85078141D01*
X93589571Y-85165715D01*
X93773028Y-85225324D01*
X93963551Y-85255500D01*
X93963552Y-85255500D01*
X94156448Y-85255500D01*
X94156449Y-85255500D01*
X94346972Y-85225324D01*
X94530429Y-85165715D01*
X94702302Y-85078141D01*
X94858359Y-84964759D01*
X94994759Y-84828359D01*
X95108141Y-84672302D01*
X95195715Y-84500429D01*
X95255324Y-84316972D01*
X95285500Y-84126449D01*
X95285500Y-83933551D01*
X104864500Y-83933551D01*
X104864500Y-84126448D01*
X104894675Y-84316969D01*
X104894676Y-84316972D01*
X104954285Y-84500429D01*
X105041859Y-84672302D01*
X105155241Y-84828359D01*
X105291641Y-84964759D01*
X105447698Y-85078141D01*
X105619571Y-85165715D01*
X105803028Y-85225324D01*
X105993551Y-85255500D01*
X105993552Y-85255500D01*
X106186448Y-85255500D01*
X106186449Y-85255500D01*
X106376972Y-85225324D01*
X106560429Y-85165715D01*
X106732302Y-85078141D01*
X106888359Y-84964759D01*
X107024759Y-84828359D01*
X107138141Y-84672302D01*
X107225715Y-84500429D01*
X107285324Y-84316972D01*
X107315500Y-84126449D01*
X107315500Y-83963551D01*
X134894500Y-83963551D01*
X134894500Y-84156448D01*
X134924675Y-84346969D01*
X134924676Y-84346972D01*
X134984285Y-84530429D01*
X135071859Y-84702302D01*
X135185241Y-84858359D01*
X135321641Y-84994759D01*
X135477698Y-85108141D01*
X135649571Y-85195715D01*
X135833028Y-85255324D01*
X136023551Y-85285500D01*
X136023552Y-85285500D01*
X136216448Y-85285500D01*
X136216449Y-85285500D01*
X136406972Y-85255324D01*
X136590429Y-85195715D01*
X136762302Y-85108141D01*
X136918359Y-84994759D01*
X137054759Y-84858359D01*
X137168141Y-84702302D01*
X137255715Y-84530429D01*
X137315324Y-84346972D01*
X137345500Y-84156449D01*
X137345500Y-83963551D01*
X137315324Y-83773028D01*
X137255715Y-83589571D01*
X137168141Y-83417698D01*
X137054759Y-83261641D01*
X136918359Y-83125241D01*
X136762302Y-83011859D01*
X136590429Y-82924285D01*
X136406972Y-82864676D01*
X136406970Y-82864675D01*
X136406969Y-82864675D01*
X136260614Y-82841495D01*
X136216449Y-82834500D01*
X136023551Y-82834500D01*
X135987697Y-82840178D01*
X135833030Y-82864675D01*
X135649568Y-82924286D01*
X135477697Y-83011859D01*
X135417631Y-83055500D01*
X135321641Y-83125241D01*
X135321639Y-83125243D01*
X135321638Y-83125243D01*
X135185243Y-83261638D01*
X135185243Y-83261639D01*
X135185241Y-83261641D01*
X135136547Y-83328661D01*
X135071859Y-83417697D01*
X134984286Y-83589568D01*
X134924675Y-83773030D01*
X134894500Y-83963551D01*
X107315500Y-83963551D01*
X107315500Y-83933551D01*
X107285324Y-83743028D01*
X107225715Y-83559571D01*
X107138141Y-83387698D01*
X107024759Y-83231641D01*
X106888359Y-83095241D01*
X106732302Y-82981859D01*
X106560431Y-82894286D01*
X106560430Y-82894285D01*
X106560429Y-82894285D01*
X106376972Y-82834676D01*
X106376970Y-82834675D01*
X106376969Y-82834675D01*
X106230614Y-82811495D01*
X106186449Y-82804500D01*
X105993551Y-82804500D01*
X105957697Y-82810178D01*
X105803030Y-82834675D01*
X105619568Y-82894286D01*
X105447697Y-82981859D01*
X105376876Y-83033314D01*
X105291641Y-83095241D01*
X105291639Y-83095243D01*
X105291638Y-83095243D01*
X105155243Y-83231638D01*
X105155243Y-83231639D01*
X105155241Y-83231641D01*
X105133447Y-83261638D01*
X105041859Y-83387697D01*
X104954286Y-83559568D01*
X104894675Y-83743030D01*
X104864500Y-83933551D01*
X95285500Y-83933551D01*
X95255324Y-83743028D01*
X95195715Y-83559571D01*
X95108141Y-83387698D01*
X94994759Y-83231641D01*
X94858359Y-83095241D01*
X94702302Y-82981859D01*
X94530431Y-82894286D01*
X94530430Y-82894285D01*
X94530429Y-82894285D01*
X94346972Y-82834676D01*
X94346970Y-82834675D01*
X94346969Y-82834675D01*
X94200614Y-82811495D01*
X94156449Y-82804500D01*
X93963551Y-82804500D01*
X93927697Y-82810178D01*
X93773030Y-82834675D01*
X93589568Y-82894286D01*
X93417697Y-82981859D01*
X93346876Y-83033314D01*
X93261641Y-83095241D01*
X93261639Y-83095243D01*
X93261638Y-83095243D01*
X93125243Y-83231638D01*
X93125243Y-83231639D01*
X93125241Y-83231641D01*
X93103447Y-83261638D01*
X93011859Y-83387697D01*
X92924286Y-83559568D01*
X92864675Y-83743030D01*
X92834500Y-83933551D01*
X65255500Y-83933551D01*
X65225324Y-83743028D01*
X65165715Y-83559571D01*
X65078141Y-83387698D01*
X64964759Y-83231641D01*
X64828359Y-83095241D01*
X64672302Y-82981859D01*
X64500431Y-82894286D01*
X64500430Y-82894285D01*
X64500429Y-82894285D01*
X64316972Y-82834676D01*
X64316970Y-82834675D01*
X64316969Y-82834675D01*
X64170614Y-82811495D01*
X64126449Y-82804500D01*
X63933551Y-82804500D01*
X63897697Y-82810178D01*
X63743030Y-82834675D01*
X63559568Y-82894286D01*
X63387697Y-82981859D01*
X63316876Y-83033314D01*
X63231641Y-83095241D01*
X63231639Y-83095243D01*
X63231638Y-83095243D01*
X63095243Y-83231638D01*
X63095243Y-83231639D01*
X63095241Y-83231641D01*
X63073447Y-83261638D01*
X62981859Y-83387697D01*
X62894286Y-83559568D01*
X62834675Y-83743030D01*
X62804500Y-83933551D01*
X50500500Y-83933551D01*
X50500500Y-82687147D01*
X118714500Y-82687147D01*
X118714500Y-82772853D01*
X118731066Y-82834676D01*
X118736682Y-82855637D01*
X118736685Y-82855644D01*
X118779530Y-82929855D01*
X118779534Y-82929860D01*
X118779535Y-82929862D01*
X118840138Y-82990465D01*
X118840140Y-82990466D01*
X118840144Y-82990469D01*
X118914355Y-83033314D01*
X118914362Y-83033318D01*
X118997147Y-83055500D01*
X118997149Y-83055500D01*
X119082851Y-83055500D01*
X119082853Y-83055500D01*
X119165638Y-83033318D01*
X119239862Y-82990465D01*
X119300465Y-82929862D01*
X119343318Y-82855638D01*
X119365500Y-82772853D01*
X119365500Y-82687147D01*
X128704500Y-82687147D01*
X128704500Y-82772853D01*
X128721066Y-82834676D01*
X128726682Y-82855637D01*
X128726685Y-82855644D01*
X128769530Y-82929855D01*
X128769534Y-82929860D01*
X128769535Y-82929862D01*
X128830138Y-82990465D01*
X128830140Y-82990466D01*
X128830144Y-82990469D01*
X128904355Y-83033314D01*
X128904362Y-83033318D01*
X128987147Y-83055500D01*
X128987149Y-83055500D01*
X129072851Y-83055500D01*
X129072853Y-83055500D01*
X129155638Y-83033318D01*
X129229862Y-82990465D01*
X129290465Y-82929862D01*
X129333318Y-82855638D01*
X129355500Y-82772853D01*
X129355500Y-82687147D01*
X129333318Y-82604362D01*
X129333314Y-82604355D01*
X129290469Y-82530144D01*
X129290463Y-82530136D01*
X129229863Y-82469536D01*
X129229855Y-82469530D01*
X129155644Y-82426685D01*
X129155640Y-82426683D01*
X129155638Y-82426682D01*
X129072853Y-82404500D01*
X128987147Y-82404500D01*
X128904362Y-82426682D01*
X128904355Y-82426685D01*
X128830144Y-82469530D01*
X128830136Y-82469536D01*
X128769536Y-82530136D01*
X128769530Y-82530144D01*
X128726685Y-82604355D01*
X128726682Y-82604362D01*
X128704500Y-82687147D01*
X119365500Y-82687147D01*
X119343318Y-82604362D01*
X119343314Y-82604355D01*
X119300469Y-82530144D01*
X119300463Y-82530136D01*
X119239863Y-82469536D01*
X119239855Y-82469530D01*
X119165644Y-82426685D01*
X119165640Y-82426683D01*
X119165638Y-82426682D01*
X119082853Y-82404500D01*
X118997147Y-82404500D01*
X118914362Y-82426682D01*
X118914355Y-82426685D01*
X118840144Y-82469530D01*
X118840136Y-82469536D01*
X118779536Y-82530136D01*
X118779530Y-82530144D01*
X118736685Y-82604355D01*
X118736682Y-82604362D01*
X118714500Y-82687147D01*
X50500500Y-82687147D01*
X50500500Y-72907147D01*
X117904500Y-72907147D01*
X117904500Y-72992852D01*
X117926682Y-73075637D01*
X117926685Y-73075644D01*
X117969530Y-73149855D01*
X117969534Y-73149860D01*
X117969535Y-73149862D01*
X118030138Y-73210465D01*
X118030140Y-73210466D01*
X118030144Y-73210469D01*
X118104355Y-73253314D01*
X118104362Y-73253318D01*
X118187147Y-73275500D01*
X118187149Y-73275500D01*
X118272851Y-73275500D01*
X118272853Y-73275500D01*
X118355638Y-73253318D01*
X118429862Y-73210465D01*
X118490465Y-73149862D01*
X118533318Y-73075638D01*
X118555500Y-72992853D01*
X118555500Y-72907147D01*
X122404500Y-72907147D01*
X122404500Y-72992852D01*
X122426682Y-73075637D01*
X122426685Y-73075644D01*
X122469530Y-73149855D01*
X122469534Y-73149860D01*
X122469535Y-73149862D01*
X122530138Y-73210465D01*
X122530140Y-73210466D01*
X122530144Y-73210469D01*
X122604355Y-73253314D01*
X122604362Y-73253318D01*
X122687147Y-73275500D01*
X122687149Y-73275500D01*
X122772851Y-73275500D01*
X122772853Y-73275500D01*
X122855638Y-73253318D01*
X122868002Y-73246179D01*
X122935900Y-73229707D01*
X122991999Y-73246178D01*
X123004365Y-73253318D01*
X123087150Y-73275500D01*
X123087152Y-73275500D01*
X123172854Y-73275500D01*
X123172856Y-73275500D01*
X123255641Y-73253318D01*
X123329865Y-73210465D01*
X123390468Y-73149862D01*
X123433321Y-73075638D01*
X123455503Y-72992853D01*
X123455503Y-72907147D01*
X126904500Y-72907147D01*
X126904500Y-72992852D01*
X126926682Y-73075637D01*
X126926685Y-73075644D01*
X126969530Y-73149855D01*
X126969534Y-73149860D01*
X126969535Y-73149862D01*
X127030138Y-73210465D01*
X127030140Y-73210466D01*
X127030144Y-73210469D01*
X127104355Y-73253314D01*
X127104362Y-73253318D01*
X127187147Y-73275500D01*
X127187149Y-73275500D01*
X127272851Y-73275500D01*
X127272853Y-73275500D01*
X127355638Y-73253318D01*
X127429862Y-73210465D01*
X127429867Y-73210459D01*
X127436307Y-73205519D01*
X127437702Y-73207337D01*
X127488642Y-73179523D01*
X127558334Y-73184507D01*
X127592812Y-73206665D01*
X127593693Y-73205519D01*
X127600135Y-73210462D01*
X127600138Y-73210465D01*
X127600141Y-73210466D01*
X127600144Y-73210469D01*
X127674355Y-73253314D01*
X127674362Y-73253318D01*
X127757147Y-73275500D01*
X127757149Y-73275500D01*
X127842851Y-73275500D01*
X127842853Y-73275500D01*
X127925638Y-73253318D01*
X127999862Y-73210465D01*
X128060465Y-73149862D01*
X128103318Y-73075638D01*
X128125500Y-72992853D01*
X128125500Y-72907147D01*
X128103318Y-72824362D01*
X128085000Y-72792634D01*
X128060469Y-72750144D01*
X128060463Y-72750136D01*
X127999863Y-72689536D01*
X127999855Y-72689530D01*
X127925644Y-72646685D01*
X127925640Y-72646683D01*
X127925638Y-72646682D01*
X127842853Y-72624500D01*
X127757147Y-72624500D01*
X127674362Y-72646682D01*
X127674355Y-72646685D01*
X127600144Y-72689530D01*
X127593693Y-72694481D01*
X127592297Y-72692662D01*
X127541358Y-72720477D01*
X127471666Y-72715493D01*
X127437187Y-72693334D01*
X127436307Y-72694481D01*
X127429855Y-72689530D01*
X127355644Y-72646685D01*
X127355640Y-72646683D01*
X127355638Y-72646682D01*
X127272853Y-72624500D01*
X127187147Y-72624500D01*
X127104362Y-72646682D01*
X127104355Y-72646685D01*
X127030144Y-72689530D01*
X127030136Y-72689536D01*
X126969536Y-72750136D01*
X126969530Y-72750144D01*
X126926685Y-72824355D01*
X126926682Y-72824362D01*
X126904500Y-72907147D01*
X123455503Y-72907147D01*
X123433321Y-72824362D01*
X123415003Y-72792634D01*
X123390472Y-72750144D01*
X123390466Y-72750136D01*
X123329866Y-72689536D01*
X123329858Y-72689530D01*
X123255647Y-72646685D01*
X123255643Y-72646683D01*
X123255641Y-72646682D01*
X123172856Y-72624500D01*
X123087150Y-72624500D01*
X123004365Y-72646682D01*
X123004356Y-72646685D01*
X122991995Y-72653822D01*
X122924094Y-72670291D01*
X122868004Y-72653821D01*
X122855640Y-72646683D01*
X122855639Y-72646682D01*
X122855638Y-72646682D01*
X122772853Y-72624500D01*
X122687147Y-72624500D01*
X122604362Y-72646682D01*
X122604355Y-72646685D01*
X122530144Y-72689530D01*
X122530136Y-72689536D01*
X122469536Y-72750136D01*
X122469530Y-72750144D01*
X122426685Y-72824355D01*
X122426682Y-72824362D01*
X122404500Y-72907147D01*
X118555500Y-72907147D01*
X118533318Y-72824362D01*
X118515000Y-72792634D01*
X118490469Y-72750144D01*
X118490463Y-72750136D01*
X118429863Y-72689536D01*
X118429855Y-72689530D01*
X118355644Y-72646685D01*
X118355640Y-72646683D01*
X118355638Y-72646682D01*
X118272853Y-72624500D01*
X118187147Y-72624500D01*
X118104362Y-72646682D01*
X118104355Y-72646685D01*
X118030144Y-72689530D01*
X118030136Y-72689536D01*
X117969536Y-72750136D01*
X117969530Y-72750144D01*
X117926685Y-72824355D01*
X117926682Y-72824362D01*
X117904500Y-72907147D01*
X50500500Y-72907147D01*
X50500500Y-71433551D01*
X62834500Y-71433551D01*
X62834500Y-71626448D01*
X62864675Y-71816969D01*
X62864676Y-71816972D01*
X62924285Y-72000429D01*
X63011859Y-72172302D01*
X63125241Y-72328359D01*
X63261641Y-72464759D01*
X63417698Y-72578141D01*
X63589571Y-72665715D01*
X63773028Y-72725324D01*
X63963551Y-72755500D01*
X63963552Y-72755500D01*
X64156448Y-72755500D01*
X64156449Y-72755500D01*
X64346972Y-72725324D01*
X64530429Y-72665715D01*
X64702302Y-72578141D01*
X64858359Y-72464759D01*
X64994759Y-72328359D01*
X65108141Y-72172302D01*
X65195715Y-72000429D01*
X65255324Y-71816972D01*
X65285500Y-71626449D01*
X65285500Y-71553551D01*
X105034500Y-71553551D01*
X105034500Y-71746448D01*
X105064675Y-71936969D01*
X105064676Y-71936972D01*
X105124285Y-72120429D01*
X105211859Y-72292302D01*
X105325241Y-72448359D01*
X105461641Y-72584759D01*
X105617698Y-72698141D01*
X105789571Y-72785715D01*
X105973028Y-72845324D01*
X106163551Y-72875500D01*
X106163552Y-72875500D01*
X106356448Y-72875500D01*
X106356449Y-72875500D01*
X106546972Y-72845324D01*
X106730429Y-72785715D01*
X106902302Y-72698141D01*
X107058359Y-72584759D01*
X107194759Y-72448359D01*
X107308141Y-72292302D01*
X107395715Y-72120429D01*
X107455324Y-71936972D01*
X107485500Y-71746449D01*
X107485500Y-71553551D01*
X107480748Y-71523551D01*
X135034500Y-71523551D01*
X135034500Y-71716448D01*
X135064675Y-71906969D01*
X135064676Y-71906972D01*
X135124285Y-72090429D01*
X135211859Y-72262302D01*
X135325241Y-72418359D01*
X135461641Y-72554759D01*
X135617698Y-72668141D01*
X135789571Y-72755715D01*
X135973028Y-72815324D01*
X136163551Y-72845500D01*
X136163552Y-72845500D01*
X136356448Y-72845500D01*
X136356449Y-72845500D01*
X136546972Y-72815324D01*
X136730429Y-72755715D01*
X136902302Y-72668141D01*
X137058359Y-72554759D01*
X137194759Y-72418359D01*
X137308141Y-72262302D01*
X137395715Y-72090429D01*
X137455324Y-71906972D01*
X137485500Y-71716449D01*
X137485500Y-71523551D01*
X137455324Y-71333028D01*
X137395715Y-71149571D01*
X137308141Y-70977698D01*
X137194759Y-70821641D01*
X137058359Y-70685241D01*
X136902302Y-70571859D01*
X136730429Y-70484285D01*
X136546972Y-70424676D01*
X136546970Y-70424675D01*
X136546969Y-70424675D01*
X136400614Y-70401495D01*
X136356449Y-70394500D01*
X136163551Y-70394500D01*
X136127697Y-70400178D01*
X135973030Y-70424675D01*
X135789568Y-70484286D01*
X135617697Y-70571859D01*
X135528661Y-70636547D01*
X135461641Y-70685241D01*
X135461639Y-70685243D01*
X135461638Y-70685243D01*
X135325243Y-70821638D01*
X135325243Y-70821639D01*
X135325241Y-70821641D01*
X135303447Y-70851638D01*
X135211859Y-70977697D01*
X135124286Y-71149568D01*
X135064675Y-71333030D01*
X135034500Y-71523551D01*
X107480748Y-71523551D01*
X107455324Y-71363028D01*
X107395715Y-71179571D01*
X107308141Y-71007698D01*
X107194759Y-70851641D01*
X107058359Y-70715241D01*
X106902302Y-70601859D01*
X106730429Y-70514285D01*
X106546972Y-70454676D01*
X106546970Y-70454675D01*
X106546969Y-70454675D01*
X106400614Y-70431495D01*
X106356449Y-70424500D01*
X106163551Y-70424500D01*
X106127697Y-70430178D01*
X105973030Y-70454675D01*
X105789568Y-70514286D01*
X105617697Y-70601859D01*
X105528661Y-70666547D01*
X105461641Y-70715241D01*
X105461639Y-70715243D01*
X105461638Y-70715243D01*
X105325243Y-70851638D01*
X105325243Y-70851639D01*
X105325241Y-70851641D01*
X105299045Y-70887697D01*
X105211859Y-71007697D01*
X105124286Y-71179568D01*
X105064675Y-71363030D01*
X105034500Y-71553551D01*
X65285500Y-71553551D01*
X65285500Y-71433551D01*
X65255324Y-71243028D01*
X65195715Y-71059571D01*
X65108141Y-70887698D01*
X64994759Y-70731641D01*
X64858359Y-70595241D01*
X64702302Y-70481859D01*
X64530429Y-70394285D01*
X64346972Y-70334676D01*
X64346970Y-70334675D01*
X64346969Y-70334675D01*
X64200614Y-70311495D01*
X64156449Y-70304500D01*
X63963551Y-70304500D01*
X63927697Y-70310178D01*
X63773030Y-70334675D01*
X63589568Y-70394286D01*
X63417697Y-70481859D01*
X63373067Y-70514285D01*
X63261641Y-70595241D01*
X63261639Y-70595243D01*
X63261638Y-70595243D01*
X63125243Y-70731638D01*
X63125243Y-70731639D01*
X63125241Y-70731641D01*
X63076547Y-70798661D01*
X63011859Y-70887697D01*
X62924286Y-71059568D01*
X62864675Y-71243030D01*
X62834500Y-71433551D01*
X50500500Y-71433551D01*
X50500500Y-54381995D01*
X52699500Y-54381995D01*
X52699500Y-54618004D01*
X52699501Y-54618020D01*
X52730306Y-54852010D01*
X52791394Y-55079993D01*
X52881714Y-55298045D01*
X52881719Y-55298056D01*
X52952677Y-55420957D01*
X52999727Y-55502450D01*
X52999729Y-55502453D01*
X52999730Y-55502454D01*
X53143406Y-55689697D01*
X53143412Y-55689704D01*
X53310295Y-55856587D01*
X53310301Y-55856592D01*
X53497550Y-56000273D01*
X53628918Y-56076118D01*
X53701943Y-56118280D01*
X53701948Y-56118282D01*
X53701951Y-56118284D01*
X53920007Y-56208606D01*
X54147986Y-56269693D01*
X54381989Y-56300500D01*
X54381996Y-56300500D01*
X54618004Y-56300500D01*
X54618011Y-56300500D01*
X54852014Y-56269693D01*
X55079993Y-56208606D01*
X55298049Y-56118284D01*
X55502450Y-56000273D01*
X55689699Y-55856592D01*
X55856592Y-55689699D01*
X56000273Y-55502450D01*
X56118284Y-55298049D01*
X56208606Y-55079993D01*
X56269693Y-54852014D01*
X56300500Y-54618011D01*
X56300500Y-54381995D01*
X143699500Y-54381995D01*
X143699500Y-54618004D01*
X143699501Y-54618020D01*
X143730306Y-54852010D01*
X143791394Y-55079993D01*
X143881714Y-55298045D01*
X143881719Y-55298056D01*
X143952677Y-55420957D01*
X143999727Y-55502450D01*
X143999729Y-55502453D01*
X143999730Y-55502454D01*
X144143406Y-55689697D01*
X144143412Y-55689704D01*
X144310295Y-55856587D01*
X144310301Y-55856592D01*
X144497550Y-56000273D01*
X144628918Y-56076118D01*
X144701943Y-56118280D01*
X144701948Y-56118282D01*
X144701951Y-56118284D01*
X144920007Y-56208606D01*
X145147986Y-56269693D01*
X145381989Y-56300500D01*
X145381996Y-56300500D01*
X145618004Y-56300500D01*
X145618011Y-56300500D01*
X145852014Y-56269693D01*
X146079993Y-56208606D01*
X146298049Y-56118284D01*
X146502450Y-56000273D01*
X146689699Y-55856592D01*
X146856592Y-55689699D01*
X147000273Y-55502450D01*
X147118284Y-55298049D01*
X147208606Y-55079993D01*
X147269693Y-54852014D01*
X147300500Y-54618011D01*
X147300500Y-54381989D01*
X147269693Y-54147986D01*
X147208606Y-53920007D01*
X147118284Y-53701951D01*
X147118282Y-53701948D01*
X147118280Y-53701943D01*
X147076118Y-53628918D01*
X147000273Y-53497550D01*
X146856592Y-53310301D01*
X146856587Y-53310295D01*
X146689704Y-53143412D01*
X146689697Y-53143406D01*
X146502454Y-52999730D01*
X146502453Y-52999729D01*
X146502450Y-52999727D01*
X146420957Y-52952677D01*
X146298056Y-52881719D01*
X146298045Y-52881714D01*
X146079993Y-52791394D01*
X145852010Y-52730306D01*
X145618020Y-52699501D01*
X145618017Y-52699500D01*
X145618011Y-52699500D01*
X145381989Y-52699500D01*
X145381983Y-52699500D01*
X145381979Y-52699501D01*
X145147989Y-52730306D01*
X144920006Y-52791394D01*
X144701954Y-52881714D01*
X144701943Y-52881719D01*
X144497545Y-52999730D01*
X144310302Y-53143406D01*
X144310295Y-53143412D01*
X144143412Y-53310295D01*
X144143406Y-53310302D01*
X143999730Y-53497545D01*
X143881719Y-53701943D01*
X143881714Y-53701954D01*
X143791394Y-53920006D01*
X143730306Y-54147989D01*
X143699501Y-54381979D01*
X143699500Y-54381995D01*
X56300500Y-54381995D01*
X56300500Y-54381989D01*
X56269693Y-54147986D01*
X56208606Y-53920007D01*
X56118284Y-53701951D01*
X56118282Y-53701948D01*
X56118280Y-53701943D01*
X56076118Y-53628918D01*
X56000273Y-53497550D01*
X55856592Y-53310301D01*
X55856587Y-53310295D01*
X55689704Y-53143412D01*
X55689697Y-53143406D01*
X55502454Y-52999730D01*
X55502453Y-52999729D01*
X55502450Y-52999727D01*
X55420957Y-52952677D01*
X55298056Y-52881719D01*
X55298045Y-52881714D01*
X55079993Y-52791394D01*
X54852010Y-52730306D01*
X54618020Y-52699501D01*
X54618017Y-52699500D01*
X54618011Y-52699500D01*
X54381989Y-52699500D01*
X54381983Y-52699500D01*
X54381979Y-52699501D01*
X54147989Y-52730306D01*
X53920006Y-52791394D01*
X53701954Y-52881714D01*
X53701943Y-52881719D01*
X53497545Y-52999730D01*
X53310302Y-53143406D01*
X53310295Y-53143412D01*
X53143412Y-53310295D01*
X53143406Y-53310302D01*
X52999730Y-53497545D01*
X52881719Y-53701943D01*
X52881714Y-53701954D01*
X52791394Y-53920006D01*
X52730306Y-54147989D01*
X52699501Y-54381979D01*
X52699500Y-54381995D01*
X50500500Y-54381995D01*
X50500500Y-50624500D01*
X50520185Y-50557461D01*
X50572989Y-50511706D01*
X50624500Y-50500500D01*
X149375500Y-50500500D01*
X149442539Y-50520185D01*
G37*
%TD.AperFunction*%
%TD*%
D14*
X50000000Y-50000000D02*
X150000000Y-50000000D01*
X150000000Y-150000000D01*
X50000000Y-150000000D01*
X50000000Y-50000000D01*
M02*
