%TF.GenerationSoftware,KiCad,Pcbnew,9.0.3*%
%TF.CreationDate,2026-02-01T20:01:01-08:00*%
%TF.ProjectId,White paper,57686974-6520-4706-9170-65722e6b6963,rev?*%
%TF.SameCoordinates,Original*%
%TF.FileFunction,Legend,Bot*%
%TF.FilePolarity,Positive*%
%FSLAX46Y46*%
G04 Gerber Fmt 4.6, Leading zero omitted, Abs format (unit mm)*
G04 Created by KiCad (PCBNEW 9.0.3) date 2026-02-01 20:01:01*
%MOMM*%
%LPD*%
G01*
G04 APERTURE LIST*
%ADD10C,0.100000*%
%TA.AperFunction,Profile*%
%ADD11C,0.050000*%
%TD*%
G04 APERTURE END LIST*
D10*
X140348496Y-138950808D02*
X140527068Y-139450808D01*
X140527068Y-138700808D02*
X140455639Y-138700808D01*
X140455639Y-138700808D02*
X140419925Y-138736522D01*
X140419925Y-138736522D02*
X140348496Y-138950808D01*
X140348496Y-138950808D02*
X140169925Y-139450808D01*
X139669924Y-139736522D02*
X139705639Y-139700808D01*
X139705639Y-139700808D02*
X139777067Y-139593665D01*
X139777067Y-139593665D02*
X139812782Y-139522236D01*
X139812782Y-139522236D02*
X139848496Y-139415094D01*
X139848496Y-139415094D02*
X139884210Y-139236522D01*
X139884210Y-139236522D02*
X139884210Y-139093665D01*
X139884210Y-139093665D02*
X139848496Y-138915094D01*
X139848496Y-138915094D02*
X139812782Y-138807951D01*
X139812782Y-138807951D02*
X139777067Y-138736522D01*
X139777067Y-138736522D02*
X139705639Y-138629379D01*
X139705639Y-138629379D02*
X139669924Y-138593665D01*
X139491353Y-138950808D02*
X139205639Y-138950808D01*
X139384210Y-139450808D02*
X139384210Y-138807951D01*
X139384210Y-138807951D02*
X139348496Y-138736522D01*
X139348496Y-138736522D02*
X139277067Y-138700808D01*
X139277067Y-138700808D02*
X139205639Y-138700808D01*
X139027068Y-139736522D02*
X138991353Y-139700808D01*
X138991353Y-139700808D02*
X138919925Y-139593665D01*
X138919925Y-139593665D02*
X138884211Y-139522236D01*
X138884211Y-139522236D02*
X138848496Y-139415094D01*
X138848496Y-139415094D02*
X138812782Y-139236522D01*
X138812782Y-139236522D02*
X138812782Y-139093665D01*
X138812782Y-139093665D02*
X138848496Y-138915094D01*
X138848496Y-138915094D02*
X138884211Y-138807951D01*
X138884211Y-138807951D02*
X138919925Y-138736522D01*
X138919925Y-138736522D02*
X138991353Y-138629379D01*
X138991353Y-138629379D02*
X139027068Y-138593665D01*
X137884210Y-139057951D02*
X137312782Y-139057951D01*
X137312782Y-139272236D02*
X137884210Y-139272236D01*
X136455639Y-138950808D02*
X136277067Y-139450808D01*
X136277067Y-139450808D02*
X136098496Y-138950808D01*
X134705638Y-138665094D02*
X135348495Y-139629379D01*
X133991352Y-138950808D02*
X133705638Y-138950808D01*
X133884209Y-139450808D02*
X133884209Y-138807951D01*
X133884209Y-138807951D02*
X133848495Y-138736522D01*
X133848495Y-138736522D02*
X133777066Y-138700808D01*
X133777066Y-138700808D02*
X133705638Y-138700808D01*
X133419924Y-139415094D02*
X133419924Y-139450808D01*
X133419924Y-139450808D02*
X133455638Y-139522236D01*
X133455638Y-139522236D02*
X133491352Y-139557951D01*
X132598495Y-138950808D02*
X132419923Y-139450808D01*
X132419923Y-139450808D02*
X132241352Y-138950808D01*
X131384208Y-139057951D02*
X130812780Y-139057951D01*
X130812780Y-139272236D02*
X131384208Y-139272236D01*
X129919922Y-138772236D02*
X129884208Y-138736522D01*
X129884208Y-138736522D02*
X129812780Y-138700808D01*
X129812780Y-138700808D02*
X129634208Y-138700808D01*
X129634208Y-138700808D02*
X129562780Y-138736522D01*
X129562780Y-138736522D02*
X129527065Y-138772236D01*
X129527065Y-138772236D02*
X129491351Y-138843665D01*
X129491351Y-138843665D02*
X129491351Y-138915094D01*
X129491351Y-138915094D02*
X129527065Y-139022236D01*
X129527065Y-139022236D02*
X129955637Y-139450808D01*
X129955637Y-139450808D02*
X129491351Y-139450808D01*
X129134208Y-139450808D02*
X128991351Y-139450808D01*
X128991351Y-139450808D02*
X128919922Y-139415094D01*
X128919922Y-139415094D02*
X128884208Y-139379379D01*
X128884208Y-139379379D02*
X128812779Y-139272236D01*
X128812779Y-139272236D02*
X128777065Y-139129379D01*
X128777065Y-139129379D02*
X128777065Y-138843665D01*
X128777065Y-138843665D02*
X128812779Y-138772236D01*
X128812779Y-138772236D02*
X128848494Y-138736522D01*
X128848494Y-138736522D02*
X128919922Y-138700808D01*
X128919922Y-138700808D02*
X129062779Y-138700808D01*
X129062779Y-138700808D02*
X129134208Y-138736522D01*
X129134208Y-138736522D02*
X129169922Y-138772236D01*
X129169922Y-138772236D02*
X129205636Y-138843665D01*
X129205636Y-138843665D02*
X129205636Y-139022236D01*
X129205636Y-139022236D02*
X129169922Y-139093665D01*
X129169922Y-139093665D02*
X129134208Y-139129379D01*
X129134208Y-139129379D02*
X129062779Y-139165094D01*
X129062779Y-139165094D02*
X128919922Y-139165094D01*
X128919922Y-139165094D02*
X128848494Y-139129379D01*
X128848494Y-139129379D02*
X128812779Y-139093665D01*
X128812779Y-139093665D02*
X128777065Y-139022236D01*
X128419922Y-139450808D02*
X128277065Y-139450808D01*
X128277065Y-139450808D02*
X128205636Y-139415094D01*
X128205636Y-139415094D02*
X128169922Y-139379379D01*
X128169922Y-139379379D02*
X128098493Y-139272236D01*
X128098493Y-139272236D02*
X128062779Y-139129379D01*
X128062779Y-139129379D02*
X128062779Y-138843665D01*
X128062779Y-138843665D02*
X128098493Y-138772236D01*
X128098493Y-138772236D02*
X128134208Y-138736522D01*
X128134208Y-138736522D02*
X128205636Y-138700808D01*
X128205636Y-138700808D02*
X128348493Y-138700808D01*
X128348493Y-138700808D02*
X128419922Y-138736522D01*
X128419922Y-138736522D02*
X128455636Y-138772236D01*
X128455636Y-138772236D02*
X128491350Y-138843665D01*
X128491350Y-138843665D02*
X128491350Y-139022236D01*
X128491350Y-139022236D02*
X128455636Y-139093665D01*
X128455636Y-139093665D02*
X128419922Y-139129379D01*
X128419922Y-139129379D02*
X128348493Y-139165094D01*
X128348493Y-139165094D02*
X128205636Y-139165094D01*
X128205636Y-139165094D02*
X128134208Y-139129379D01*
X128134208Y-139129379D02*
X128098493Y-139093665D01*
X128098493Y-139093665D02*
X128062779Y-139022236D01*
X127705636Y-139415094D02*
X127705636Y-139450808D01*
X127705636Y-139450808D02*
X127741350Y-139522236D01*
X127741350Y-139522236D02*
X127777064Y-139557951D01*
X127455636Y-138700808D02*
X126955636Y-138700808D01*
X126955636Y-138700808D02*
X127277064Y-139450808D01*
X126634207Y-139450808D02*
X126491350Y-139450808D01*
X126491350Y-139450808D02*
X126419921Y-139415094D01*
X126419921Y-139415094D02*
X126384207Y-139379379D01*
X126384207Y-139379379D02*
X126312778Y-139272236D01*
X126312778Y-139272236D02*
X126277064Y-139129379D01*
X126277064Y-139129379D02*
X126277064Y-138843665D01*
X126277064Y-138843665D02*
X126312778Y-138772236D01*
X126312778Y-138772236D02*
X126348493Y-138736522D01*
X126348493Y-138736522D02*
X126419921Y-138700808D01*
X126419921Y-138700808D02*
X126562778Y-138700808D01*
X126562778Y-138700808D02*
X126634207Y-138736522D01*
X126634207Y-138736522D02*
X126669921Y-138772236D01*
X126669921Y-138772236D02*
X126705635Y-138843665D01*
X126705635Y-138843665D02*
X126705635Y-139022236D01*
X126705635Y-139022236D02*
X126669921Y-139093665D01*
X126669921Y-139093665D02*
X126634207Y-139129379D01*
X126634207Y-139129379D02*
X126562778Y-139165094D01*
X126562778Y-139165094D02*
X126419921Y-139165094D01*
X126419921Y-139165094D02*
X126348493Y-139129379D01*
X126348493Y-139129379D02*
X126312778Y-139093665D01*
X126312778Y-139093665D02*
X126277064Y-139022236D01*
X125991349Y-138772236D02*
X125955635Y-138736522D01*
X125955635Y-138736522D02*
X125884207Y-138700808D01*
X125884207Y-138700808D02*
X125705635Y-138700808D01*
X125705635Y-138700808D02*
X125634207Y-138736522D01*
X125634207Y-138736522D02*
X125598492Y-138772236D01*
X125598492Y-138772236D02*
X125562778Y-138843665D01*
X125562778Y-138843665D02*
X125562778Y-138915094D01*
X125562778Y-138915094D02*
X125598492Y-139022236D01*
X125598492Y-139022236D02*
X126027064Y-139450808D01*
X126027064Y-139450808D02*
X125562778Y-139450808D01*
X125205635Y-139415094D02*
X125205635Y-139450808D01*
X125205635Y-139450808D02*
X125241349Y-139522236D01*
X125241349Y-139522236D02*
X125277063Y-139557951D01*
X124562778Y-138950808D02*
X124562778Y-139450808D01*
X124741349Y-138665094D02*
X124919920Y-139200808D01*
X124919920Y-139200808D02*
X124455635Y-139200808D01*
X123812777Y-138700808D02*
X124169920Y-138700808D01*
X124169920Y-138700808D02*
X124205634Y-139057951D01*
X124205634Y-139057951D02*
X124169920Y-139022236D01*
X124169920Y-139022236D02*
X124098492Y-138986522D01*
X124098492Y-138986522D02*
X123919920Y-138986522D01*
X123919920Y-138986522D02*
X123848492Y-139022236D01*
X123848492Y-139022236D02*
X123812777Y-139057951D01*
X123812777Y-139057951D02*
X123777063Y-139129379D01*
X123777063Y-139129379D02*
X123777063Y-139307951D01*
X123777063Y-139307951D02*
X123812777Y-139379379D01*
X123812777Y-139379379D02*
X123848492Y-139415094D01*
X123848492Y-139415094D02*
X123919920Y-139450808D01*
X123919920Y-139450808D02*
X124098492Y-139450808D01*
X124098492Y-139450808D02*
X124169920Y-139415094D01*
X124169920Y-139415094D02*
X124205634Y-139379379D01*
X123348491Y-139022236D02*
X123419920Y-138986522D01*
X123419920Y-138986522D02*
X123455634Y-138950808D01*
X123455634Y-138950808D02*
X123491348Y-138879379D01*
X123491348Y-138879379D02*
X123491348Y-138843665D01*
X123491348Y-138843665D02*
X123455634Y-138772236D01*
X123455634Y-138772236D02*
X123419920Y-138736522D01*
X123419920Y-138736522D02*
X123348491Y-138700808D01*
X123348491Y-138700808D02*
X123205634Y-138700808D01*
X123205634Y-138700808D02*
X123134206Y-138736522D01*
X123134206Y-138736522D02*
X123098491Y-138772236D01*
X123098491Y-138772236D02*
X123062777Y-138843665D01*
X123062777Y-138843665D02*
X123062777Y-138879379D01*
X123062777Y-138879379D02*
X123098491Y-138950808D01*
X123098491Y-138950808D02*
X123134206Y-138986522D01*
X123134206Y-138986522D02*
X123205634Y-139022236D01*
X123205634Y-139022236D02*
X123348491Y-139022236D01*
X123348491Y-139022236D02*
X123419920Y-139057951D01*
X123419920Y-139057951D02*
X123455634Y-139093665D01*
X123455634Y-139093665D02*
X123491348Y-139165094D01*
X123491348Y-139165094D02*
X123491348Y-139307951D01*
X123491348Y-139307951D02*
X123455634Y-139379379D01*
X123455634Y-139379379D02*
X123419920Y-139415094D01*
X123419920Y-139415094D02*
X123348491Y-139450808D01*
X123348491Y-139450808D02*
X123205634Y-139450808D01*
X123205634Y-139450808D02*
X123134206Y-139415094D01*
X123134206Y-139415094D02*
X123098491Y-139379379D01*
X123098491Y-139379379D02*
X123062777Y-139307951D01*
X123062777Y-139307951D02*
X123062777Y-139165094D01*
X123062777Y-139165094D02*
X123098491Y-139093665D01*
X123098491Y-139093665D02*
X123134206Y-139057951D01*
X123134206Y-139057951D02*
X123205634Y-139022236D01*
X122169919Y-139450808D02*
X122169919Y-138950808D01*
X122169919Y-139022236D02*
X122134205Y-138986522D01*
X122134205Y-138986522D02*
X122062776Y-138950808D01*
X122062776Y-138950808D02*
X121955633Y-138950808D01*
X121955633Y-138950808D02*
X121884205Y-138986522D01*
X121884205Y-138986522D02*
X121848491Y-139057951D01*
X121848491Y-139057951D02*
X121848491Y-139450808D01*
X121848491Y-139057951D02*
X121812776Y-138986522D01*
X121812776Y-138986522D02*
X121741348Y-138950808D01*
X121741348Y-138950808D02*
X121634205Y-138950808D01*
X121634205Y-138950808D02*
X121562776Y-138986522D01*
X121562776Y-138986522D02*
X121527062Y-139057951D01*
X121527062Y-139057951D02*
X121527062Y-139450808D01*
X120634205Y-138665094D02*
X121277062Y-139629379D01*
X120419919Y-139415094D02*
X120348491Y-139450808D01*
X120348491Y-139450808D02*
X120205634Y-139450808D01*
X120205634Y-139450808D02*
X120134205Y-139415094D01*
X120134205Y-139415094D02*
X120098491Y-139343665D01*
X120098491Y-139343665D02*
X120098491Y-139307951D01*
X120098491Y-139307951D02*
X120134205Y-139236522D01*
X120134205Y-139236522D02*
X120205634Y-139200808D01*
X120205634Y-139200808D02*
X120312777Y-139200808D01*
X120312777Y-139200808D02*
X120384205Y-139165094D01*
X120384205Y-139165094D02*
X120419919Y-139093665D01*
X120419919Y-139093665D02*
X120419919Y-139057951D01*
X120419919Y-139057951D02*
X120384205Y-138986522D01*
X120384205Y-138986522D02*
X120312777Y-138950808D01*
X120312777Y-138950808D02*
X120205634Y-138950808D01*
X120205634Y-138950808D02*
X120134205Y-138986522D01*
X140348496Y-140158266D02*
X140527068Y-140658266D01*
X140527068Y-139908266D02*
X140455639Y-139908266D01*
X140455639Y-139908266D02*
X140419925Y-139943980D01*
X140419925Y-139943980D02*
X140348496Y-140158266D01*
X140348496Y-140158266D02*
X140169925Y-140658266D01*
X139669924Y-140943980D02*
X139705639Y-140908266D01*
X139705639Y-140908266D02*
X139777067Y-140801123D01*
X139777067Y-140801123D02*
X139812782Y-140729694D01*
X139812782Y-140729694D02*
X139848496Y-140622552D01*
X139848496Y-140622552D02*
X139884210Y-140443980D01*
X139884210Y-140443980D02*
X139884210Y-140301123D01*
X139884210Y-140301123D02*
X139848496Y-140122552D01*
X139848496Y-140122552D02*
X139812782Y-140015409D01*
X139812782Y-140015409D02*
X139777067Y-139943980D01*
X139777067Y-139943980D02*
X139705639Y-139836837D01*
X139705639Y-139836837D02*
X139669924Y-139801123D01*
X138991353Y-140658266D02*
X139419924Y-140658266D01*
X139205639Y-140658266D02*
X139205639Y-139908266D01*
X139205639Y-139908266D02*
X139277067Y-140015409D01*
X139277067Y-140015409D02*
X139348496Y-140086837D01*
X139348496Y-140086837D02*
X139419924Y-140122552D01*
X138527067Y-139908266D02*
X138455638Y-139908266D01*
X138455638Y-139908266D02*
X138384210Y-139943980D01*
X138384210Y-139943980D02*
X138348496Y-139979694D01*
X138348496Y-139979694D02*
X138312781Y-140051123D01*
X138312781Y-140051123D02*
X138277067Y-140193980D01*
X138277067Y-140193980D02*
X138277067Y-140372552D01*
X138277067Y-140372552D02*
X138312781Y-140515409D01*
X138312781Y-140515409D02*
X138348496Y-140586837D01*
X138348496Y-140586837D02*
X138384210Y-140622552D01*
X138384210Y-140622552D02*
X138455638Y-140658266D01*
X138455638Y-140658266D02*
X138527067Y-140658266D01*
X138527067Y-140658266D02*
X138598496Y-140622552D01*
X138598496Y-140622552D02*
X138634210Y-140586837D01*
X138634210Y-140586837D02*
X138669924Y-140515409D01*
X138669924Y-140515409D02*
X138705638Y-140372552D01*
X138705638Y-140372552D02*
X138705638Y-140193980D01*
X138705638Y-140193980D02*
X138669924Y-140051123D01*
X138669924Y-140051123D02*
X138634210Y-139979694D01*
X138634210Y-139979694D02*
X138598496Y-139943980D01*
X138598496Y-139943980D02*
X138527067Y-139908266D01*
X137812781Y-139908266D02*
X137741352Y-139908266D01*
X137741352Y-139908266D02*
X137669924Y-139943980D01*
X137669924Y-139943980D02*
X137634210Y-139979694D01*
X137634210Y-139979694D02*
X137598495Y-140051123D01*
X137598495Y-140051123D02*
X137562781Y-140193980D01*
X137562781Y-140193980D02*
X137562781Y-140372552D01*
X137562781Y-140372552D02*
X137598495Y-140515409D01*
X137598495Y-140515409D02*
X137634210Y-140586837D01*
X137634210Y-140586837D02*
X137669924Y-140622552D01*
X137669924Y-140622552D02*
X137741352Y-140658266D01*
X137741352Y-140658266D02*
X137812781Y-140658266D01*
X137812781Y-140658266D02*
X137884210Y-140622552D01*
X137884210Y-140622552D02*
X137919924Y-140586837D01*
X137919924Y-140586837D02*
X137955638Y-140515409D01*
X137955638Y-140515409D02*
X137991352Y-140372552D01*
X137991352Y-140372552D02*
X137991352Y-140193980D01*
X137991352Y-140193980D02*
X137955638Y-140051123D01*
X137955638Y-140051123D02*
X137919924Y-139979694D01*
X137919924Y-139979694D02*
X137884210Y-139943980D01*
X137884210Y-139943980D02*
X137812781Y-139908266D01*
X136669923Y-140658266D02*
X136669923Y-139908266D01*
X136598495Y-140372552D02*
X136384209Y-140658266D01*
X136384209Y-140158266D02*
X136669923Y-140443980D01*
X136062780Y-140658266D02*
X136062780Y-139908266D01*
X136062780Y-140265409D02*
X135634209Y-140265409D01*
X135634209Y-140658266D02*
X135634209Y-139908266D01*
X135348495Y-140158266D02*
X134955638Y-140158266D01*
X134955638Y-140158266D02*
X135348495Y-140658266D01*
X135348495Y-140658266D02*
X134955638Y-140658266D01*
X134741352Y-140943980D02*
X134705637Y-140908266D01*
X134705637Y-140908266D02*
X134634209Y-140801123D01*
X134634209Y-140801123D02*
X134598495Y-140729694D01*
X134598495Y-140729694D02*
X134562780Y-140622552D01*
X134562780Y-140622552D02*
X134527066Y-140443980D01*
X134527066Y-140443980D02*
X134527066Y-140301123D01*
X134527066Y-140301123D02*
X134562780Y-140122552D01*
X134562780Y-140122552D02*
X134598495Y-140015409D01*
X134598495Y-140015409D02*
X134634209Y-139943980D01*
X134634209Y-139943980D02*
X134705637Y-139836837D01*
X134705637Y-139836837D02*
X134741352Y-139801123D01*
X133598494Y-140265409D02*
X133027066Y-140265409D01*
X133027066Y-140479694D02*
X133598494Y-140479694D01*
X132134208Y-139979694D02*
X132098494Y-139943980D01*
X132098494Y-139943980D02*
X132027066Y-139908266D01*
X132027066Y-139908266D02*
X131848494Y-139908266D01*
X131848494Y-139908266D02*
X131777066Y-139943980D01*
X131777066Y-139943980D02*
X131741351Y-139979694D01*
X131741351Y-139979694D02*
X131705637Y-140051123D01*
X131705637Y-140051123D02*
X131705637Y-140122552D01*
X131705637Y-140122552D02*
X131741351Y-140229694D01*
X131741351Y-140229694D02*
X132169923Y-140658266D01*
X132169923Y-140658266D02*
X131705637Y-140658266D01*
X131348494Y-140658266D02*
X131205637Y-140658266D01*
X131205637Y-140658266D02*
X131134208Y-140622552D01*
X131134208Y-140622552D02*
X131098494Y-140586837D01*
X131098494Y-140586837D02*
X131027065Y-140479694D01*
X131027065Y-140479694D02*
X130991351Y-140336837D01*
X130991351Y-140336837D02*
X130991351Y-140051123D01*
X130991351Y-140051123D02*
X131027065Y-139979694D01*
X131027065Y-139979694D02*
X131062780Y-139943980D01*
X131062780Y-139943980D02*
X131134208Y-139908266D01*
X131134208Y-139908266D02*
X131277065Y-139908266D01*
X131277065Y-139908266D02*
X131348494Y-139943980D01*
X131348494Y-139943980D02*
X131384208Y-139979694D01*
X131384208Y-139979694D02*
X131419922Y-140051123D01*
X131419922Y-140051123D02*
X131419922Y-140229694D01*
X131419922Y-140229694D02*
X131384208Y-140301123D01*
X131384208Y-140301123D02*
X131348494Y-140336837D01*
X131348494Y-140336837D02*
X131277065Y-140372552D01*
X131277065Y-140372552D02*
X131134208Y-140372552D01*
X131134208Y-140372552D02*
X131062780Y-140336837D01*
X131062780Y-140336837D02*
X131027065Y-140301123D01*
X131027065Y-140301123D02*
X130991351Y-140229694D01*
X130634208Y-140658266D02*
X130491351Y-140658266D01*
X130491351Y-140658266D02*
X130419922Y-140622552D01*
X130419922Y-140622552D02*
X130384208Y-140586837D01*
X130384208Y-140586837D02*
X130312779Y-140479694D01*
X130312779Y-140479694D02*
X130277065Y-140336837D01*
X130277065Y-140336837D02*
X130277065Y-140051123D01*
X130277065Y-140051123D02*
X130312779Y-139979694D01*
X130312779Y-139979694D02*
X130348494Y-139943980D01*
X130348494Y-139943980D02*
X130419922Y-139908266D01*
X130419922Y-139908266D02*
X130562779Y-139908266D01*
X130562779Y-139908266D02*
X130634208Y-139943980D01*
X130634208Y-139943980D02*
X130669922Y-139979694D01*
X130669922Y-139979694D02*
X130705636Y-140051123D01*
X130705636Y-140051123D02*
X130705636Y-140229694D01*
X130705636Y-140229694D02*
X130669922Y-140301123D01*
X130669922Y-140301123D02*
X130634208Y-140336837D01*
X130634208Y-140336837D02*
X130562779Y-140372552D01*
X130562779Y-140372552D02*
X130419922Y-140372552D01*
X130419922Y-140372552D02*
X130348494Y-140336837D01*
X130348494Y-140336837D02*
X130312779Y-140301123D01*
X130312779Y-140301123D02*
X130277065Y-140229694D01*
X130027065Y-139908266D02*
X129527065Y-139908266D01*
X129527065Y-139908266D02*
X129848493Y-140658266D01*
X128669921Y-140658266D02*
X128669921Y-140158266D01*
X128669921Y-140229694D02*
X128634207Y-140193980D01*
X128634207Y-140193980D02*
X128562778Y-140158266D01*
X128562778Y-140158266D02*
X128455635Y-140158266D01*
X128455635Y-140158266D02*
X128384207Y-140193980D01*
X128384207Y-140193980D02*
X128348493Y-140265409D01*
X128348493Y-140265409D02*
X128348493Y-140658266D01*
X128348493Y-140265409D02*
X128312778Y-140193980D01*
X128312778Y-140193980D02*
X128241350Y-140158266D01*
X128241350Y-140158266D02*
X128134207Y-140158266D01*
X128134207Y-140158266D02*
X128062778Y-140193980D01*
X128062778Y-140193980D02*
X128027064Y-140265409D01*
X128027064Y-140265409D02*
X128027064Y-140658266D01*
X140348496Y-141365724D02*
X140527068Y-141865724D01*
X140527068Y-141115724D02*
X140455639Y-141115724D01*
X140455639Y-141115724D02*
X140419925Y-141151438D01*
X140419925Y-141151438D02*
X140348496Y-141365724D01*
X140348496Y-141365724D02*
X140169925Y-141865724D01*
X139669924Y-142151438D02*
X139705639Y-142115724D01*
X139705639Y-142115724D02*
X139777067Y-142008581D01*
X139777067Y-142008581D02*
X139812782Y-141937152D01*
X139812782Y-141937152D02*
X139848496Y-141830010D01*
X139848496Y-141830010D02*
X139884210Y-141651438D01*
X139884210Y-141651438D02*
X139884210Y-141508581D01*
X139884210Y-141508581D02*
X139848496Y-141330010D01*
X139848496Y-141330010D02*
X139812782Y-141222867D01*
X139812782Y-141222867D02*
X139777067Y-141151438D01*
X139777067Y-141151438D02*
X139705639Y-141044295D01*
X139705639Y-141044295D02*
X139669924Y-141008581D01*
X138991353Y-141865724D02*
X139419924Y-141865724D01*
X139205639Y-141865724D02*
X139205639Y-141115724D01*
X139205639Y-141115724D02*
X139277067Y-141222867D01*
X139277067Y-141222867D02*
X139348496Y-141294295D01*
X139348496Y-141294295D02*
X139419924Y-141330010D01*
X138527067Y-141115724D02*
X138455638Y-141115724D01*
X138455638Y-141115724D02*
X138384210Y-141151438D01*
X138384210Y-141151438D02*
X138348496Y-141187152D01*
X138348496Y-141187152D02*
X138312781Y-141258581D01*
X138312781Y-141258581D02*
X138277067Y-141401438D01*
X138277067Y-141401438D02*
X138277067Y-141580010D01*
X138277067Y-141580010D02*
X138312781Y-141722867D01*
X138312781Y-141722867D02*
X138348496Y-141794295D01*
X138348496Y-141794295D02*
X138384210Y-141830010D01*
X138384210Y-141830010D02*
X138455638Y-141865724D01*
X138455638Y-141865724D02*
X138527067Y-141865724D01*
X138527067Y-141865724D02*
X138598496Y-141830010D01*
X138598496Y-141830010D02*
X138634210Y-141794295D01*
X138634210Y-141794295D02*
X138669924Y-141722867D01*
X138669924Y-141722867D02*
X138705638Y-141580010D01*
X138705638Y-141580010D02*
X138705638Y-141401438D01*
X138705638Y-141401438D02*
X138669924Y-141258581D01*
X138669924Y-141258581D02*
X138634210Y-141187152D01*
X138634210Y-141187152D02*
X138598496Y-141151438D01*
X138598496Y-141151438D02*
X138527067Y-141115724D01*
X137812781Y-141115724D02*
X137741352Y-141115724D01*
X137741352Y-141115724D02*
X137669924Y-141151438D01*
X137669924Y-141151438D02*
X137634210Y-141187152D01*
X137634210Y-141187152D02*
X137598495Y-141258581D01*
X137598495Y-141258581D02*
X137562781Y-141401438D01*
X137562781Y-141401438D02*
X137562781Y-141580010D01*
X137562781Y-141580010D02*
X137598495Y-141722867D01*
X137598495Y-141722867D02*
X137634210Y-141794295D01*
X137634210Y-141794295D02*
X137669924Y-141830010D01*
X137669924Y-141830010D02*
X137741352Y-141865724D01*
X137741352Y-141865724D02*
X137812781Y-141865724D01*
X137812781Y-141865724D02*
X137884210Y-141830010D01*
X137884210Y-141830010D02*
X137919924Y-141794295D01*
X137919924Y-141794295D02*
X137955638Y-141722867D01*
X137955638Y-141722867D02*
X137991352Y-141580010D01*
X137991352Y-141580010D02*
X137991352Y-141401438D01*
X137991352Y-141401438D02*
X137955638Y-141258581D01*
X137955638Y-141258581D02*
X137919924Y-141187152D01*
X137919924Y-141187152D02*
X137884210Y-141151438D01*
X137884210Y-141151438D02*
X137812781Y-141115724D01*
X136669923Y-141865724D02*
X136669923Y-141115724D01*
X136669923Y-141115724D02*
X136419923Y-141651438D01*
X136419923Y-141651438D02*
X136169923Y-141115724D01*
X136169923Y-141115724D02*
X136169923Y-141865724D01*
X135812780Y-141865724D02*
X135812780Y-141115724D01*
X135812780Y-141472867D02*
X135384209Y-141472867D01*
X135384209Y-141865724D02*
X135384209Y-141115724D01*
X135098495Y-141365724D02*
X134705638Y-141365724D01*
X134705638Y-141365724D02*
X135098495Y-141865724D01*
X135098495Y-141865724D02*
X134705638Y-141865724D01*
X134491352Y-142151438D02*
X134455637Y-142115724D01*
X134455637Y-142115724D02*
X134384209Y-142008581D01*
X134384209Y-142008581D02*
X134348495Y-141937152D01*
X134348495Y-141937152D02*
X134312780Y-141830010D01*
X134312780Y-141830010D02*
X134277066Y-141651438D01*
X134277066Y-141651438D02*
X134277066Y-141508581D01*
X134277066Y-141508581D02*
X134312780Y-141330010D01*
X134312780Y-141330010D02*
X134348495Y-141222867D01*
X134348495Y-141222867D02*
X134384209Y-141151438D01*
X134384209Y-141151438D02*
X134455637Y-141044295D01*
X134455637Y-141044295D02*
X134491352Y-141008581D01*
X133348494Y-141472867D02*
X132777066Y-141472867D01*
X132777066Y-141687152D02*
X133348494Y-141687152D01*
X131884208Y-141187152D02*
X131848494Y-141151438D01*
X131848494Y-141151438D02*
X131777066Y-141115724D01*
X131777066Y-141115724D02*
X131598494Y-141115724D01*
X131598494Y-141115724D02*
X131527066Y-141151438D01*
X131527066Y-141151438D02*
X131491351Y-141187152D01*
X131491351Y-141187152D02*
X131455637Y-141258581D01*
X131455637Y-141258581D02*
X131455637Y-141330010D01*
X131455637Y-141330010D02*
X131491351Y-141437152D01*
X131491351Y-141437152D02*
X131919923Y-141865724D01*
X131919923Y-141865724D02*
X131455637Y-141865724D01*
X131134208Y-141794295D02*
X131098494Y-141830010D01*
X131098494Y-141830010D02*
X131134208Y-141865724D01*
X131134208Y-141865724D02*
X131169922Y-141830010D01*
X131169922Y-141830010D02*
X131134208Y-141794295D01*
X131134208Y-141794295D02*
X131134208Y-141865724D01*
X130741351Y-141865724D02*
X130598494Y-141865724D01*
X130598494Y-141865724D02*
X130527065Y-141830010D01*
X130527065Y-141830010D02*
X130491351Y-141794295D01*
X130491351Y-141794295D02*
X130419922Y-141687152D01*
X130419922Y-141687152D02*
X130384208Y-141544295D01*
X130384208Y-141544295D02*
X130384208Y-141258581D01*
X130384208Y-141258581D02*
X130419922Y-141187152D01*
X130419922Y-141187152D02*
X130455637Y-141151438D01*
X130455637Y-141151438D02*
X130527065Y-141115724D01*
X130527065Y-141115724D02*
X130669922Y-141115724D01*
X130669922Y-141115724D02*
X130741351Y-141151438D01*
X130741351Y-141151438D02*
X130777065Y-141187152D01*
X130777065Y-141187152D02*
X130812779Y-141258581D01*
X130812779Y-141258581D02*
X130812779Y-141437152D01*
X130812779Y-141437152D02*
X130777065Y-141508581D01*
X130777065Y-141508581D02*
X130741351Y-141544295D01*
X130741351Y-141544295D02*
X130669922Y-141580010D01*
X130669922Y-141580010D02*
X130527065Y-141580010D01*
X130527065Y-141580010D02*
X130455637Y-141544295D01*
X130455637Y-141544295D02*
X130419922Y-141508581D01*
X130419922Y-141508581D02*
X130384208Y-141437152D01*
X130027065Y-141865724D02*
X129884208Y-141865724D01*
X129884208Y-141865724D02*
X129812779Y-141830010D01*
X129812779Y-141830010D02*
X129777065Y-141794295D01*
X129777065Y-141794295D02*
X129705636Y-141687152D01*
X129705636Y-141687152D02*
X129669922Y-141544295D01*
X129669922Y-141544295D02*
X129669922Y-141258581D01*
X129669922Y-141258581D02*
X129705636Y-141187152D01*
X129705636Y-141187152D02*
X129741351Y-141151438D01*
X129741351Y-141151438D02*
X129812779Y-141115724D01*
X129812779Y-141115724D02*
X129955636Y-141115724D01*
X129955636Y-141115724D02*
X130027065Y-141151438D01*
X130027065Y-141151438D02*
X130062779Y-141187152D01*
X130062779Y-141187152D02*
X130098493Y-141258581D01*
X130098493Y-141258581D02*
X130098493Y-141437152D01*
X130098493Y-141437152D02*
X130062779Y-141508581D01*
X130062779Y-141508581D02*
X130027065Y-141544295D01*
X130027065Y-141544295D02*
X129955636Y-141580010D01*
X129955636Y-141580010D02*
X129812779Y-141580010D01*
X129812779Y-141580010D02*
X129741351Y-141544295D01*
X129741351Y-141544295D02*
X129705636Y-141508581D01*
X129705636Y-141508581D02*
X129669922Y-141437152D01*
X129419922Y-141115724D02*
X128919922Y-141115724D01*
X128919922Y-141115724D02*
X129241350Y-141865724D01*
X128062778Y-141865724D02*
X128062778Y-141365724D01*
X128062778Y-141437152D02*
X128027064Y-141401438D01*
X128027064Y-141401438D02*
X127955635Y-141365724D01*
X127955635Y-141365724D02*
X127848492Y-141365724D01*
X127848492Y-141365724D02*
X127777064Y-141401438D01*
X127777064Y-141401438D02*
X127741350Y-141472867D01*
X127741350Y-141472867D02*
X127741350Y-141865724D01*
X127741350Y-141472867D02*
X127705635Y-141401438D01*
X127705635Y-141401438D02*
X127634207Y-141365724D01*
X127634207Y-141365724D02*
X127527064Y-141365724D01*
X127527064Y-141365724D02*
X127455635Y-141401438D01*
X127455635Y-141401438D02*
X127419921Y-141472867D01*
X127419921Y-141472867D02*
X127419921Y-141865724D01*
X140348496Y-142573182D02*
X140527068Y-143073182D01*
X140527068Y-142323182D02*
X140455639Y-142323182D01*
X140455639Y-142323182D02*
X140419925Y-142358896D01*
X140419925Y-142358896D02*
X140348496Y-142573182D01*
X140348496Y-142573182D02*
X140169925Y-143073182D01*
X139669924Y-143358896D02*
X139705639Y-143323182D01*
X139705639Y-143323182D02*
X139777067Y-143216039D01*
X139777067Y-143216039D02*
X139812782Y-143144610D01*
X139812782Y-143144610D02*
X139848496Y-143037468D01*
X139848496Y-143037468D02*
X139884210Y-142858896D01*
X139884210Y-142858896D02*
X139884210Y-142716039D01*
X139884210Y-142716039D02*
X139848496Y-142537468D01*
X139848496Y-142537468D02*
X139812782Y-142430325D01*
X139812782Y-142430325D02*
X139777067Y-142358896D01*
X139777067Y-142358896D02*
X139705639Y-142251753D01*
X139705639Y-142251753D02*
X139669924Y-142216039D01*
X139455639Y-142323182D02*
X138991353Y-142323182D01*
X138991353Y-142323182D02*
X139241353Y-142608896D01*
X139241353Y-142608896D02*
X139134210Y-142608896D01*
X139134210Y-142608896D02*
X139062782Y-142644610D01*
X139062782Y-142644610D02*
X139027067Y-142680325D01*
X139027067Y-142680325D02*
X138991353Y-142751753D01*
X138991353Y-142751753D02*
X138991353Y-142930325D01*
X138991353Y-142930325D02*
X139027067Y-143001753D01*
X139027067Y-143001753D02*
X139062782Y-143037468D01*
X139062782Y-143037468D02*
X139134210Y-143073182D01*
X139134210Y-143073182D02*
X139348496Y-143073182D01*
X139348496Y-143073182D02*
X139419924Y-143037468D01*
X139419924Y-143037468D02*
X139455639Y-143001753D01*
X138527067Y-142323182D02*
X138455638Y-142323182D01*
X138455638Y-142323182D02*
X138384210Y-142358896D01*
X138384210Y-142358896D02*
X138348496Y-142394610D01*
X138348496Y-142394610D02*
X138312781Y-142466039D01*
X138312781Y-142466039D02*
X138277067Y-142608896D01*
X138277067Y-142608896D02*
X138277067Y-142787468D01*
X138277067Y-142787468D02*
X138312781Y-142930325D01*
X138312781Y-142930325D02*
X138348496Y-143001753D01*
X138348496Y-143001753D02*
X138384210Y-143037468D01*
X138384210Y-143037468D02*
X138455638Y-143073182D01*
X138455638Y-143073182D02*
X138527067Y-143073182D01*
X138527067Y-143073182D02*
X138598496Y-143037468D01*
X138598496Y-143037468D02*
X138634210Y-143001753D01*
X138634210Y-143001753D02*
X138669924Y-142930325D01*
X138669924Y-142930325D02*
X138705638Y-142787468D01*
X138705638Y-142787468D02*
X138705638Y-142608896D01*
X138705638Y-142608896D02*
X138669924Y-142466039D01*
X138669924Y-142466039D02*
X138634210Y-142394610D01*
X138634210Y-142394610D02*
X138598496Y-142358896D01*
X138598496Y-142358896D02*
X138527067Y-142323182D01*
X137812781Y-142323182D02*
X137741352Y-142323182D01*
X137741352Y-142323182D02*
X137669924Y-142358896D01*
X137669924Y-142358896D02*
X137634210Y-142394610D01*
X137634210Y-142394610D02*
X137598495Y-142466039D01*
X137598495Y-142466039D02*
X137562781Y-142608896D01*
X137562781Y-142608896D02*
X137562781Y-142787468D01*
X137562781Y-142787468D02*
X137598495Y-142930325D01*
X137598495Y-142930325D02*
X137634210Y-143001753D01*
X137634210Y-143001753D02*
X137669924Y-143037468D01*
X137669924Y-143037468D02*
X137741352Y-143073182D01*
X137741352Y-143073182D02*
X137812781Y-143073182D01*
X137812781Y-143073182D02*
X137884210Y-143037468D01*
X137884210Y-143037468D02*
X137919924Y-143001753D01*
X137919924Y-143001753D02*
X137955638Y-142930325D01*
X137955638Y-142930325D02*
X137991352Y-142787468D01*
X137991352Y-142787468D02*
X137991352Y-142608896D01*
X137991352Y-142608896D02*
X137955638Y-142466039D01*
X137955638Y-142466039D02*
X137919924Y-142394610D01*
X137919924Y-142394610D02*
X137884210Y-142358896D01*
X137884210Y-142358896D02*
X137812781Y-142323182D01*
X136669923Y-143073182D02*
X136669923Y-142323182D01*
X136669923Y-142323182D02*
X136419923Y-142858896D01*
X136419923Y-142858896D02*
X136169923Y-142323182D01*
X136169923Y-142323182D02*
X136169923Y-143073182D01*
X135812780Y-143073182D02*
X135812780Y-142323182D01*
X135812780Y-142680325D02*
X135384209Y-142680325D01*
X135384209Y-143073182D02*
X135384209Y-142323182D01*
X135098495Y-142573182D02*
X134705638Y-142573182D01*
X134705638Y-142573182D02*
X135098495Y-143073182D01*
X135098495Y-143073182D02*
X134705638Y-143073182D01*
X134491352Y-143358896D02*
X134455637Y-143323182D01*
X134455637Y-143323182D02*
X134384209Y-143216039D01*
X134384209Y-143216039D02*
X134348495Y-143144610D01*
X134348495Y-143144610D02*
X134312780Y-143037468D01*
X134312780Y-143037468D02*
X134277066Y-142858896D01*
X134277066Y-142858896D02*
X134277066Y-142716039D01*
X134277066Y-142716039D02*
X134312780Y-142537468D01*
X134312780Y-142537468D02*
X134348495Y-142430325D01*
X134348495Y-142430325D02*
X134384209Y-142358896D01*
X134384209Y-142358896D02*
X134455637Y-142251753D01*
X134455637Y-142251753D02*
X134491352Y-142216039D01*
X133455637Y-142787468D02*
X133419923Y-142751753D01*
X133419923Y-142751753D02*
X133348494Y-142716039D01*
X133348494Y-142716039D02*
X133205637Y-142787468D01*
X133205637Y-142787468D02*
X133134208Y-142751753D01*
X133134208Y-142751753D02*
X133098494Y-142716039D01*
X132812780Y-142680325D02*
X132241352Y-142680325D01*
X132241352Y-142894610D02*
X132812780Y-142894610D01*
X130919923Y-143073182D02*
X131348494Y-143073182D01*
X131134209Y-143073182D02*
X131134209Y-142323182D01*
X131134209Y-142323182D02*
X131205637Y-142430325D01*
X131205637Y-142430325D02*
X131277066Y-142501753D01*
X131277066Y-142501753D02*
X131348494Y-142537468D01*
X130027065Y-143073182D02*
X130027065Y-142573182D01*
X130027065Y-142644610D02*
X129991351Y-142608896D01*
X129991351Y-142608896D02*
X129919922Y-142573182D01*
X129919922Y-142573182D02*
X129812779Y-142573182D01*
X129812779Y-142573182D02*
X129741351Y-142608896D01*
X129741351Y-142608896D02*
X129705637Y-142680325D01*
X129705637Y-142680325D02*
X129705637Y-143073182D01*
X129705637Y-142680325D02*
X129669922Y-142608896D01*
X129669922Y-142608896D02*
X129598494Y-142573182D01*
X129598494Y-142573182D02*
X129491351Y-142573182D01*
X129491351Y-142573182D02*
X129419922Y-142608896D01*
X129419922Y-142608896D02*
X129384208Y-142680325D01*
X129384208Y-142680325D02*
X129384208Y-143073182D01*
X127884208Y-142573182D02*
X128455636Y-142787468D01*
X128455636Y-142787468D02*
X127884208Y-143001753D01*
X127527065Y-142787468D02*
X126955637Y-142787468D01*
X126598494Y-142787468D02*
X126027066Y-142787468D01*
X125098494Y-143073182D02*
X125098494Y-142323182D01*
X125098494Y-142323182D02*
X124848494Y-142858896D01*
X124848494Y-142858896D02*
X124598494Y-142323182D01*
X124598494Y-142323182D02*
X124598494Y-143073182D01*
X124241351Y-143073182D02*
X124241351Y-142573182D01*
X124241351Y-142323182D02*
X124277065Y-142358896D01*
X124277065Y-142358896D02*
X124241351Y-142394610D01*
X124241351Y-142394610D02*
X124205637Y-142358896D01*
X124205637Y-142358896D02*
X124241351Y-142323182D01*
X124241351Y-142323182D02*
X124241351Y-142394610D01*
X123562780Y-143037468D02*
X123634208Y-143073182D01*
X123634208Y-143073182D02*
X123777065Y-143073182D01*
X123777065Y-143073182D02*
X123848494Y-143037468D01*
X123848494Y-143037468D02*
X123884208Y-143001753D01*
X123884208Y-143001753D02*
X123919922Y-142930325D01*
X123919922Y-142930325D02*
X123919922Y-142716039D01*
X123919922Y-142716039D02*
X123884208Y-142644610D01*
X123884208Y-142644610D02*
X123848494Y-142608896D01*
X123848494Y-142608896D02*
X123777065Y-142573182D01*
X123777065Y-142573182D02*
X123634208Y-142573182D01*
X123634208Y-142573182D02*
X123562780Y-142608896D01*
X123241351Y-143073182D02*
X123241351Y-142573182D01*
X123241351Y-142716039D02*
X123205637Y-142644610D01*
X123205637Y-142644610D02*
X123169923Y-142608896D01*
X123169923Y-142608896D02*
X123098494Y-142573182D01*
X123098494Y-142573182D02*
X123027065Y-142573182D01*
X122669922Y-143073182D02*
X122741351Y-143037468D01*
X122741351Y-143037468D02*
X122777065Y-143001753D01*
X122777065Y-143001753D02*
X122812779Y-142930325D01*
X122812779Y-142930325D02*
X122812779Y-142716039D01*
X122812779Y-142716039D02*
X122777065Y-142644610D01*
X122777065Y-142644610D02*
X122741351Y-142608896D01*
X122741351Y-142608896D02*
X122669922Y-142573182D01*
X122669922Y-142573182D02*
X122562779Y-142573182D01*
X122562779Y-142573182D02*
X122491351Y-142608896D01*
X122491351Y-142608896D02*
X122455637Y-142644610D01*
X122455637Y-142644610D02*
X122419922Y-142716039D01*
X122419922Y-142716039D02*
X122419922Y-142930325D01*
X122419922Y-142930325D02*
X122455637Y-143001753D01*
X122455637Y-143001753D02*
X122491351Y-143037468D01*
X122491351Y-143037468D02*
X122562779Y-143073182D01*
X122562779Y-143073182D02*
X122669922Y-143073182D01*
X122169923Y-142573182D02*
X122027066Y-143073182D01*
X122027066Y-143073182D02*
X121884208Y-142716039D01*
X121884208Y-142716039D02*
X121741351Y-143073182D01*
X121741351Y-143073182D02*
X121598494Y-142573182D01*
X120991352Y-143073182D02*
X120991352Y-142680325D01*
X120991352Y-142680325D02*
X121027066Y-142608896D01*
X121027066Y-142608896D02*
X121098494Y-142573182D01*
X121098494Y-142573182D02*
X121241352Y-142573182D01*
X121241352Y-142573182D02*
X121312780Y-142608896D01*
X120991352Y-143037468D02*
X121062780Y-143073182D01*
X121062780Y-143073182D02*
X121241352Y-143073182D01*
X121241352Y-143073182D02*
X121312780Y-143037468D01*
X121312780Y-143037468D02*
X121348494Y-142966039D01*
X121348494Y-142966039D02*
X121348494Y-142894610D01*
X121348494Y-142894610D02*
X121312780Y-142823182D01*
X121312780Y-142823182D02*
X121241352Y-142787468D01*
X121241352Y-142787468D02*
X121062780Y-142787468D01*
X121062780Y-142787468D02*
X120991352Y-142751753D01*
X120705638Y-142573182D02*
X120527066Y-143073182D01*
X120527066Y-143073182D02*
X120348495Y-142573182D01*
X119777066Y-143037468D02*
X119848494Y-143073182D01*
X119848494Y-143073182D02*
X119991352Y-143073182D01*
X119991352Y-143073182D02*
X120062780Y-143037468D01*
X120062780Y-143037468D02*
X120098494Y-142966039D01*
X120098494Y-142966039D02*
X120098494Y-142680325D01*
X120098494Y-142680325D02*
X120062780Y-142608896D01*
X120062780Y-142608896D02*
X119991352Y-142573182D01*
X119991352Y-142573182D02*
X119848494Y-142573182D01*
X119848494Y-142573182D02*
X119777066Y-142608896D01*
X119777066Y-142608896D02*
X119741352Y-142680325D01*
X119741352Y-142680325D02*
X119741352Y-142751753D01*
X119741352Y-142751753D02*
X120098494Y-142823182D01*
X118848494Y-143073182D02*
X118848494Y-142573182D01*
X118848494Y-142716039D02*
X118812780Y-142644610D01*
X118812780Y-142644610D02*
X118777066Y-142608896D01*
X118777066Y-142608896D02*
X118705637Y-142573182D01*
X118705637Y-142573182D02*
X118634208Y-142573182D01*
X118062780Y-143073182D02*
X118062780Y-142680325D01*
X118062780Y-142680325D02*
X118098494Y-142608896D01*
X118098494Y-142608896D02*
X118169922Y-142573182D01*
X118169922Y-142573182D02*
X118312780Y-142573182D01*
X118312780Y-142573182D02*
X118384208Y-142608896D01*
X118062780Y-143037468D02*
X118134208Y-143073182D01*
X118134208Y-143073182D02*
X118312780Y-143073182D01*
X118312780Y-143073182D02*
X118384208Y-143037468D01*
X118384208Y-143037468D02*
X118419922Y-142966039D01*
X118419922Y-142966039D02*
X118419922Y-142894610D01*
X118419922Y-142894610D02*
X118384208Y-142823182D01*
X118384208Y-142823182D02*
X118312780Y-142787468D01*
X118312780Y-142787468D02*
X118134208Y-142787468D01*
X118134208Y-142787468D02*
X118062780Y-142751753D01*
X117705637Y-142573182D02*
X117705637Y-143073182D01*
X117705637Y-142644610D02*
X117669923Y-142608896D01*
X117669923Y-142608896D02*
X117598494Y-142573182D01*
X117598494Y-142573182D02*
X117491351Y-142573182D01*
X117491351Y-142573182D02*
X117419923Y-142608896D01*
X117419923Y-142608896D02*
X117384209Y-142680325D01*
X117384209Y-142680325D02*
X117384209Y-143073182D01*
X116705638Y-142573182D02*
X116705638Y-143180325D01*
X116705638Y-143180325D02*
X116741352Y-143251753D01*
X116741352Y-143251753D02*
X116777066Y-143287468D01*
X116777066Y-143287468D02*
X116848495Y-143323182D01*
X116848495Y-143323182D02*
X116955638Y-143323182D01*
X116955638Y-143323182D02*
X117027066Y-143287468D01*
X116705638Y-143037468D02*
X116777066Y-143073182D01*
X116777066Y-143073182D02*
X116919923Y-143073182D01*
X116919923Y-143073182D02*
X116991352Y-143037468D01*
X116991352Y-143037468D02*
X117027066Y-143001753D01*
X117027066Y-143001753D02*
X117062780Y-142930325D01*
X117062780Y-142930325D02*
X117062780Y-142716039D01*
X117062780Y-142716039D02*
X117027066Y-142644610D01*
X117027066Y-142644610D02*
X116991352Y-142608896D01*
X116991352Y-142608896D02*
X116919923Y-142573182D01*
X116919923Y-142573182D02*
X116777066Y-142573182D01*
X116777066Y-142573182D02*
X116705638Y-142608896D01*
X116062781Y-143037468D02*
X116134209Y-143073182D01*
X116134209Y-143073182D02*
X116277067Y-143073182D01*
X116277067Y-143073182D02*
X116348495Y-143037468D01*
X116348495Y-143037468D02*
X116384209Y-142966039D01*
X116384209Y-142966039D02*
X116384209Y-142680325D01*
X116384209Y-142680325D02*
X116348495Y-142608896D01*
X116348495Y-142608896D02*
X116277067Y-142573182D01*
X116277067Y-142573182D02*
X116134209Y-142573182D01*
X116134209Y-142573182D02*
X116062781Y-142608896D01*
X116062781Y-142608896D02*
X116027067Y-142680325D01*
X116027067Y-142680325D02*
X116027067Y-142751753D01*
X116027067Y-142751753D02*
X116384209Y-142823182D01*
X115027066Y-143073182D02*
X115098495Y-143037468D01*
X115098495Y-143037468D02*
X115134209Y-142966039D01*
X115134209Y-142966039D02*
X115134209Y-142323182D01*
X114634209Y-143073182D02*
X114705638Y-143037468D01*
X114705638Y-143037468D02*
X114741352Y-143001753D01*
X114741352Y-143001753D02*
X114777066Y-142930325D01*
X114777066Y-142930325D02*
X114777066Y-142716039D01*
X114777066Y-142716039D02*
X114741352Y-142644610D01*
X114741352Y-142644610D02*
X114705638Y-142608896D01*
X114705638Y-142608896D02*
X114634209Y-142573182D01*
X114634209Y-142573182D02*
X114527066Y-142573182D01*
X114527066Y-142573182D02*
X114455638Y-142608896D01*
X114455638Y-142608896D02*
X114419924Y-142644610D01*
X114419924Y-142644610D02*
X114384209Y-142716039D01*
X114384209Y-142716039D02*
X114384209Y-142930325D01*
X114384209Y-142930325D02*
X114419924Y-143001753D01*
X114419924Y-143001753D02*
X114455638Y-143037468D01*
X114455638Y-143037468D02*
X114527066Y-143073182D01*
X114527066Y-143073182D02*
X114634209Y-143073182D01*
X114134210Y-142573182D02*
X113991353Y-143073182D01*
X113991353Y-143073182D02*
X113848495Y-142716039D01*
X113848495Y-142716039D02*
X113705638Y-143073182D01*
X113705638Y-143073182D02*
X113562781Y-142573182D01*
X112991353Y-143037468D02*
X113062781Y-143073182D01*
X113062781Y-143073182D02*
X113205639Y-143073182D01*
X113205639Y-143073182D02*
X113277067Y-143037468D01*
X113277067Y-143037468D02*
X113312781Y-142966039D01*
X113312781Y-142966039D02*
X113312781Y-142680325D01*
X113312781Y-142680325D02*
X113277067Y-142608896D01*
X113277067Y-142608896D02*
X113205639Y-142573182D01*
X113205639Y-142573182D02*
X113062781Y-142573182D01*
X113062781Y-142573182D02*
X112991353Y-142608896D01*
X112991353Y-142608896D02*
X112955639Y-142680325D01*
X112955639Y-142680325D02*
X112955639Y-142751753D01*
X112955639Y-142751753D02*
X113312781Y-142823182D01*
X112634210Y-143073182D02*
X112634210Y-142573182D01*
X112634210Y-142716039D02*
X112598496Y-142644610D01*
X112598496Y-142644610D02*
X112562782Y-142608896D01*
X112562782Y-142608896D02*
X112491353Y-142573182D01*
X112491353Y-142573182D02*
X112419924Y-142573182D01*
X111491352Y-143073182D02*
X111562781Y-143037468D01*
X111562781Y-143037468D02*
X111598495Y-142966039D01*
X111598495Y-142966039D02*
X111598495Y-142323182D01*
X111205638Y-143073182D02*
X111205638Y-142573182D01*
X111205638Y-142323182D02*
X111241352Y-142358896D01*
X111241352Y-142358896D02*
X111205638Y-142394610D01*
X111205638Y-142394610D02*
X111169924Y-142358896D01*
X111169924Y-142358896D02*
X111205638Y-142323182D01*
X111205638Y-142323182D02*
X111205638Y-142394610D01*
X110848495Y-143073182D02*
X110848495Y-142573182D01*
X110848495Y-142644610D02*
X110812781Y-142608896D01*
X110812781Y-142608896D02*
X110741352Y-142573182D01*
X110741352Y-142573182D02*
X110634209Y-142573182D01*
X110634209Y-142573182D02*
X110562781Y-142608896D01*
X110562781Y-142608896D02*
X110527067Y-142680325D01*
X110527067Y-142680325D02*
X110527067Y-143073182D01*
X110527067Y-142680325D02*
X110491352Y-142608896D01*
X110491352Y-142608896D02*
X110419924Y-142573182D01*
X110419924Y-142573182D02*
X110312781Y-142573182D01*
X110312781Y-142573182D02*
X110241352Y-142608896D01*
X110241352Y-142608896D02*
X110205638Y-142680325D01*
X110205638Y-142680325D02*
X110205638Y-143073182D01*
X109848495Y-143073182D02*
X109848495Y-142573182D01*
X109848495Y-142323182D02*
X109884209Y-142358896D01*
X109884209Y-142358896D02*
X109848495Y-142394610D01*
X109848495Y-142394610D02*
X109812781Y-142358896D01*
X109812781Y-142358896D02*
X109848495Y-142323182D01*
X109848495Y-142323182D02*
X109848495Y-142394610D01*
X109598495Y-142573182D02*
X109312781Y-142573182D01*
X109491352Y-142323182D02*
X109491352Y-142966039D01*
X109491352Y-142966039D02*
X109455638Y-143037468D01*
X109455638Y-143037468D02*
X109384209Y-143073182D01*
X109384209Y-143073182D02*
X109312781Y-143073182D01*
X140348496Y-143780640D02*
X140527068Y-144280640D01*
X140527068Y-143530640D02*
X140455639Y-143530640D01*
X140455639Y-143530640D02*
X140419925Y-143566354D01*
X140419925Y-143566354D02*
X140348496Y-143780640D01*
X140348496Y-143780640D02*
X140169925Y-144280640D01*
X139669924Y-144566354D02*
X139705639Y-144530640D01*
X139705639Y-144530640D02*
X139777067Y-144423497D01*
X139777067Y-144423497D02*
X139812782Y-144352068D01*
X139812782Y-144352068D02*
X139848496Y-144244926D01*
X139848496Y-144244926D02*
X139884210Y-144066354D01*
X139884210Y-144066354D02*
X139884210Y-143923497D01*
X139884210Y-143923497D02*
X139848496Y-143744926D01*
X139848496Y-143744926D02*
X139812782Y-143637783D01*
X139812782Y-143637783D02*
X139777067Y-143566354D01*
X139777067Y-143566354D02*
X139705639Y-143459211D01*
X139705639Y-143459211D02*
X139669924Y-143423497D01*
X138991353Y-144280640D02*
X139419924Y-144280640D01*
X139205639Y-144280640D02*
X139205639Y-143530640D01*
X139205639Y-143530640D02*
X139277067Y-143637783D01*
X139277067Y-143637783D02*
X139348496Y-143709211D01*
X139348496Y-143709211D02*
X139419924Y-143744926D01*
X137705638Y-143566354D02*
X137777067Y-143530640D01*
X137777067Y-143530640D02*
X137884209Y-143530640D01*
X137884209Y-143530640D02*
X137991352Y-143566354D01*
X137991352Y-143566354D02*
X138062781Y-143637783D01*
X138062781Y-143637783D02*
X138098495Y-143709211D01*
X138098495Y-143709211D02*
X138134209Y-143852068D01*
X138134209Y-143852068D02*
X138134209Y-143959211D01*
X138134209Y-143959211D02*
X138098495Y-144102068D01*
X138098495Y-144102068D02*
X138062781Y-144173497D01*
X138062781Y-144173497D02*
X137991352Y-144244926D01*
X137991352Y-144244926D02*
X137884209Y-144280640D01*
X137884209Y-144280640D02*
X137812781Y-144280640D01*
X137812781Y-144280640D02*
X137705638Y-144244926D01*
X137705638Y-144244926D02*
X137669924Y-144209211D01*
X137669924Y-144209211D02*
X137669924Y-143959211D01*
X137669924Y-143959211D02*
X137812781Y-143959211D01*
X137348495Y-144280640D02*
X137348495Y-143530640D01*
X137348495Y-143887783D02*
X136919924Y-143887783D01*
X136919924Y-144280640D02*
X136919924Y-143530640D01*
X136634210Y-143780640D02*
X136241353Y-143780640D01*
X136241353Y-143780640D02*
X136634210Y-144280640D01*
X136634210Y-144280640D02*
X136241353Y-144280640D01*
X136027067Y-144566354D02*
X135991352Y-144530640D01*
X135991352Y-144530640D02*
X135919924Y-144423497D01*
X135919924Y-144423497D02*
X135884210Y-144352068D01*
X135884210Y-144352068D02*
X135848495Y-144244926D01*
X135848495Y-144244926D02*
X135812781Y-144066354D01*
X135812781Y-144066354D02*
X135812781Y-143923497D01*
X135812781Y-143923497D02*
X135848495Y-143744926D01*
X135848495Y-143744926D02*
X135884210Y-143637783D01*
X135884210Y-143637783D02*
X135919924Y-143566354D01*
X135919924Y-143566354D02*
X135991352Y-143459211D01*
X135991352Y-143459211D02*
X136027067Y-143423497D01*
X134884209Y-143887783D02*
X134312781Y-143887783D01*
X134312781Y-144102068D02*
X134884209Y-144102068D01*
X133241352Y-143530640D02*
X133169923Y-143530640D01*
X133169923Y-143530640D02*
X133098495Y-143566354D01*
X133098495Y-143566354D02*
X133062781Y-143602068D01*
X133062781Y-143602068D02*
X133027066Y-143673497D01*
X133027066Y-143673497D02*
X132991352Y-143816354D01*
X132991352Y-143816354D02*
X132991352Y-143994926D01*
X132991352Y-143994926D02*
X133027066Y-144137783D01*
X133027066Y-144137783D02*
X133062781Y-144209211D01*
X133062781Y-144209211D02*
X133098495Y-144244926D01*
X133098495Y-144244926D02*
X133169923Y-144280640D01*
X133169923Y-144280640D02*
X133241352Y-144280640D01*
X133241352Y-144280640D02*
X133312781Y-144244926D01*
X133312781Y-144244926D02*
X133348495Y-144209211D01*
X133348495Y-144209211D02*
X133384209Y-144137783D01*
X133384209Y-144137783D02*
X133419923Y-143994926D01*
X133419923Y-143994926D02*
X133419923Y-143816354D01*
X133419923Y-143816354D02*
X133384209Y-143673497D01*
X133384209Y-143673497D02*
X133348495Y-143602068D01*
X133348495Y-143602068D02*
X133312781Y-143566354D01*
X133312781Y-143566354D02*
X133241352Y-143530640D01*
X132669923Y-144209211D02*
X132634209Y-144244926D01*
X132634209Y-144244926D02*
X132669923Y-144280640D01*
X132669923Y-144280640D02*
X132705637Y-144244926D01*
X132705637Y-144244926D02*
X132669923Y-144209211D01*
X132669923Y-144209211D02*
X132669923Y-144280640D01*
X132348494Y-143602068D02*
X132312780Y-143566354D01*
X132312780Y-143566354D02*
X132241352Y-143530640D01*
X132241352Y-143530640D02*
X132062780Y-143530640D01*
X132062780Y-143530640D02*
X131991352Y-143566354D01*
X131991352Y-143566354D02*
X131955637Y-143602068D01*
X131955637Y-143602068D02*
X131919923Y-143673497D01*
X131919923Y-143673497D02*
X131919923Y-143744926D01*
X131919923Y-143744926D02*
X131955637Y-143852068D01*
X131955637Y-143852068D02*
X132384209Y-144280640D01*
X132384209Y-144280640D02*
X131919923Y-144280640D01*
X131562780Y-144280640D02*
X131419923Y-144280640D01*
X131419923Y-144280640D02*
X131348494Y-144244926D01*
X131348494Y-144244926D02*
X131312780Y-144209211D01*
X131312780Y-144209211D02*
X131241351Y-144102068D01*
X131241351Y-144102068D02*
X131205637Y-143959211D01*
X131205637Y-143959211D02*
X131205637Y-143673497D01*
X131205637Y-143673497D02*
X131241351Y-143602068D01*
X131241351Y-143602068D02*
X131277066Y-143566354D01*
X131277066Y-143566354D02*
X131348494Y-143530640D01*
X131348494Y-143530640D02*
X131491351Y-143530640D01*
X131491351Y-143530640D02*
X131562780Y-143566354D01*
X131562780Y-143566354D02*
X131598494Y-143602068D01*
X131598494Y-143602068D02*
X131634208Y-143673497D01*
X131634208Y-143673497D02*
X131634208Y-143852068D01*
X131634208Y-143852068D02*
X131598494Y-143923497D01*
X131598494Y-143923497D02*
X131562780Y-143959211D01*
X131562780Y-143959211D02*
X131491351Y-143994926D01*
X131491351Y-143994926D02*
X131348494Y-143994926D01*
X131348494Y-143994926D02*
X131277066Y-143959211D01*
X131277066Y-143959211D02*
X131241351Y-143923497D01*
X131241351Y-143923497D02*
X131205637Y-143852068D01*
X130848494Y-144280640D02*
X130705637Y-144280640D01*
X130705637Y-144280640D02*
X130634208Y-144244926D01*
X130634208Y-144244926D02*
X130598494Y-144209211D01*
X130598494Y-144209211D02*
X130527065Y-144102068D01*
X130527065Y-144102068D02*
X130491351Y-143959211D01*
X130491351Y-143959211D02*
X130491351Y-143673497D01*
X130491351Y-143673497D02*
X130527065Y-143602068D01*
X130527065Y-143602068D02*
X130562780Y-143566354D01*
X130562780Y-143566354D02*
X130634208Y-143530640D01*
X130634208Y-143530640D02*
X130777065Y-143530640D01*
X130777065Y-143530640D02*
X130848494Y-143566354D01*
X130848494Y-143566354D02*
X130884208Y-143602068D01*
X130884208Y-143602068D02*
X130919922Y-143673497D01*
X130919922Y-143673497D02*
X130919922Y-143852068D01*
X130919922Y-143852068D02*
X130884208Y-143923497D01*
X130884208Y-143923497D02*
X130848494Y-143959211D01*
X130848494Y-143959211D02*
X130777065Y-143994926D01*
X130777065Y-143994926D02*
X130634208Y-143994926D01*
X130634208Y-143994926D02*
X130562780Y-143959211D01*
X130562780Y-143959211D02*
X130527065Y-143923497D01*
X130527065Y-143923497D02*
X130491351Y-143852068D01*
X129598493Y-144280640D02*
X129598493Y-143780640D01*
X129598493Y-143852068D02*
X129562779Y-143816354D01*
X129562779Y-143816354D02*
X129491350Y-143780640D01*
X129491350Y-143780640D02*
X129384207Y-143780640D01*
X129384207Y-143780640D02*
X129312779Y-143816354D01*
X129312779Y-143816354D02*
X129277065Y-143887783D01*
X129277065Y-143887783D02*
X129277065Y-144280640D01*
X129277065Y-143887783D02*
X129241350Y-143816354D01*
X129241350Y-143816354D02*
X129169922Y-143780640D01*
X129169922Y-143780640D02*
X129062779Y-143780640D01*
X129062779Y-143780640D02*
X128991350Y-143816354D01*
X128991350Y-143816354D02*
X128955636Y-143887783D01*
X128955636Y-143887783D02*
X128955636Y-144280640D01*
X140348496Y-144988098D02*
X140527068Y-145488098D01*
X140527068Y-144738098D02*
X140455639Y-144738098D01*
X140455639Y-144738098D02*
X140419925Y-144773812D01*
X140419925Y-144773812D02*
X140348496Y-144988098D01*
X140348496Y-144988098D02*
X140169925Y-145488098D01*
X139669924Y-145773812D02*
X139705639Y-145738098D01*
X139705639Y-145738098D02*
X139777067Y-145630955D01*
X139777067Y-145630955D02*
X139812782Y-145559526D01*
X139812782Y-145559526D02*
X139848496Y-145452384D01*
X139848496Y-145452384D02*
X139884210Y-145273812D01*
X139884210Y-145273812D02*
X139884210Y-145130955D01*
X139884210Y-145130955D02*
X139848496Y-144952384D01*
X139848496Y-144952384D02*
X139812782Y-144845241D01*
X139812782Y-144845241D02*
X139777067Y-144773812D01*
X139777067Y-144773812D02*
X139705639Y-144666669D01*
X139705639Y-144666669D02*
X139669924Y-144630955D01*
X139455639Y-144738098D02*
X138991353Y-144738098D01*
X138991353Y-144738098D02*
X139241353Y-145023812D01*
X139241353Y-145023812D02*
X139134210Y-145023812D01*
X139134210Y-145023812D02*
X139062782Y-145059526D01*
X139062782Y-145059526D02*
X139027067Y-145095241D01*
X139027067Y-145095241D02*
X138991353Y-145166669D01*
X138991353Y-145166669D02*
X138991353Y-145345241D01*
X138991353Y-145345241D02*
X139027067Y-145416669D01*
X139027067Y-145416669D02*
X139062782Y-145452384D01*
X139062782Y-145452384D02*
X139134210Y-145488098D01*
X139134210Y-145488098D02*
X139348496Y-145488098D01*
X139348496Y-145488098D02*
X139419924Y-145452384D01*
X139419924Y-145452384D02*
X139455639Y-145416669D01*
X137705638Y-144773812D02*
X137777067Y-144738098D01*
X137777067Y-144738098D02*
X137884209Y-144738098D01*
X137884209Y-144738098D02*
X137991352Y-144773812D01*
X137991352Y-144773812D02*
X138062781Y-144845241D01*
X138062781Y-144845241D02*
X138098495Y-144916669D01*
X138098495Y-144916669D02*
X138134209Y-145059526D01*
X138134209Y-145059526D02*
X138134209Y-145166669D01*
X138134209Y-145166669D02*
X138098495Y-145309526D01*
X138098495Y-145309526D02*
X138062781Y-145380955D01*
X138062781Y-145380955D02*
X137991352Y-145452384D01*
X137991352Y-145452384D02*
X137884209Y-145488098D01*
X137884209Y-145488098D02*
X137812781Y-145488098D01*
X137812781Y-145488098D02*
X137705638Y-145452384D01*
X137705638Y-145452384D02*
X137669924Y-145416669D01*
X137669924Y-145416669D02*
X137669924Y-145166669D01*
X137669924Y-145166669D02*
X137812781Y-145166669D01*
X137348495Y-145488098D02*
X137348495Y-144738098D01*
X137348495Y-145095241D02*
X136919924Y-145095241D01*
X136919924Y-145488098D02*
X136919924Y-144738098D01*
X136634210Y-144988098D02*
X136241353Y-144988098D01*
X136241353Y-144988098D02*
X136634210Y-145488098D01*
X136634210Y-145488098D02*
X136241353Y-145488098D01*
X136027067Y-145773812D02*
X135991352Y-145738098D01*
X135991352Y-145738098D02*
X135919924Y-145630955D01*
X135919924Y-145630955D02*
X135884210Y-145559526D01*
X135884210Y-145559526D02*
X135848495Y-145452384D01*
X135848495Y-145452384D02*
X135812781Y-145273812D01*
X135812781Y-145273812D02*
X135812781Y-145130955D01*
X135812781Y-145130955D02*
X135848495Y-144952384D01*
X135848495Y-144952384D02*
X135884210Y-144845241D01*
X135884210Y-144845241D02*
X135919924Y-144773812D01*
X135919924Y-144773812D02*
X135991352Y-144666669D01*
X135991352Y-144666669D02*
X136027067Y-144630955D01*
X134991352Y-145202384D02*
X134955638Y-145166669D01*
X134955638Y-145166669D02*
X134884209Y-145130955D01*
X134884209Y-145130955D02*
X134741352Y-145202384D01*
X134741352Y-145202384D02*
X134669923Y-145166669D01*
X134669923Y-145166669D02*
X134634209Y-145130955D01*
X134348495Y-145095241D02*
X133777067Y-145095241D01*
X133777067Y-145309526D02*
X134348495Y-145309526D01*
X132455638Y-145488098D02*
X132884209Y-145488098D01*
X132669924Y-145488098D02*
X132669924Y-144738098D01*
X132669924Y-144738098D02*
X132741352Y-144845241D01*
X132741352Y-144845241D02*
X132812781Y-144916669D01*
X132812781Y-144916669D02*
X132884209Y-144952384D01*
X131991352Y-144738098D02*
X131919923Y-144738098D01*
X131919923Y-144738098D02*
X131848495Y-144773812D01*
X131848495Y-144773812D02*
X131812781Y-144809526D01*
X131812781Y-144809526D02*
X131777066Y-144880955D01*
X131777066Y-144880955D02*
X131741352Y-145023812D01*
X131741352Y-145023812D02*
X131741352Y-145202384D01*
X131741352Y-145202384D02*
X131777066Y-145345241D01*
X131777066Y-145345241D02*
X131812781Y-145416669D01*
X131812781Y-145416669D02*
X131848495Y-145452384D01*
X131848495Y-145452384D02*
X131919923Y-145488098D01*
X131919923Y-145488098D02*
X131991352Y-145488098D01*
X131991352Y-145488098D02*
X132062781Y-145452384D01*
X132062781Y-145452384D02*
X132098495Y-145416669D01*
X132098495Y-145416669D02*
X132134209Y-145345241D01*
X132134209Y-145345241D02*
X132169923Y-145202384D01*
X132169923Y-145202384D02*
X132169923Y-145023812D01*
X132169923Y-145023812D02*
X132134209Y-144880955D01*
X132134209Y-144880955D02*
X132098495Y-144809526D01*
X132098495Y-144809526D02*
X132062781Y-144773812D01*
X132062781Y-144773812D02*
X131991352Y-144738098D01*
X131277066Y-144738098D02*
X131205637Y-144738098D01*
X131205637Y-144738098D02*
X131134209Y-144773812D01*
X131134209Y-144773812D02*
X131098495Y-144809526D01*
X131098495Y-144809526D02*
X131062780Y-144880955D01*
X131062780Y-144880955D02*
X131027066Y-145023812D01*
X131027066Y-145023812D02*
X131027066Y-145202384D01*
X131027066Y-145202384D02*
X131062780Y-145345241D01*
X131062780Y-145345241D02*
X131098495Y-145416669D01*
X131098495Y-145416669D02*
X131134209Y-145452384D01*
X131134209Y-145452384D02*
X131205637Y-145488098D01*
X131205637Y-145488098D02*
X131277066Y-145488098D01*
X131277066Y-145488098D02*
X131348495Y-145452384D01*
X131348495Y-145452384D02*
X131384209Y-145416669D01*
X131384209Y-145416669D02*
X131419923Y-145345241D01*
X131419923Y-145345241D02*
X131455637Y-145202384D01*
X131455637Y-145202384D02*
X131455637Y-145023812D01*
X131455637Y-145023812D02*
X131419923Y-144880955D01*
X131419923Y-144880955D02*
X131384209Y-144809526D01*
X131384209Y-144809526D02*
X131348495Y-144773812D01*
X131348495Y-144773812D02*
X131277066Y-144738098D01*
X130134208Y-145488098D02*
X130134208Y-144988098D01*
X130134208Y-145059526D02*
X130098494Y-145023812D01*
X130098494Y-145023812D02*
X130027065Y-144988098D01*
X130027065Y-144988098D02*
X129919922Y-144988098D01*
X129919922Y-144988098D02*
X129848494Y-145023812D01*
X129848494Y-145023812D02*
X129812780Y-145095241D01*
X129812780Y-145095241D02*
X129812780Y-145488098D01*
X129812780Y-145095241D02*
X129777065Y-145023812D01*
X129777065Y-145023812D02*
X129705637Y-144988098D01*
X129705637Y-144988098D02*
X129598494Y-144988098D01*
X129598494Y-144988098D02*
X129527065Y-145023812D01*
X129527065Y-145023812D02*
X129491351Y-145095241D01*
X129491351Y-145095241D02*
X129491351Y-145488098D01*
X129134208Y-145488098D02*
X129134208Y-144988098D01*
X129134208Y-145059526D02*
X129098494Y-145023812D01*
X129098494Y-145023812D02*
X129027065Y-144988098D01*
X129027065Y-144988098D02*
X128919922Y-144988098D01*
X128919922Y-144988098D02*
X128848494Y-145023812D01*
X128848494Y-145023812D02*
X128812780Y-145095241D01*
X128812780Y-145095241D02*
X128812780Y-145488098D01*
X128812780Y-145095241D02*
X128777065Y-145023812D01*
X128777065Y-145023812D02*
X128705637Y-144988098D01*
X128705637Y-144988098D02*
X128598494Y-144988098D01*
X128598494Y-144988098D02*
X128527065Y-145023812D01*
X128527065Y-145023812D02*
X128491351Y-145095241D01*
X128491351Y-145095241D02*
X128491351Y-145488098D01*
X126991351Y-144988098D02*
X127562779Y-145202384D01*
X127562779Y-145202384D02*
X126991351Y-145416669D01*
X126634208Y-145202384D02*
X126062780Y-145202384D01*
X125705637Y-145202384D02*
X125134209Y-145202384D01*
X124312780Y-144738098D02*
X123884209Y-144738098D01*
X124098494Y-145488098D02*
X124098494Y-144738098D01*
X123634208Y-145488098D02*
X123634208Y-144738098D01*
X123312780Y-145488098D02*
X123312780Y-145095241D01*
X123312780Y-145095241D02*
X123348494Y-145023812D01*
X123348494Y-145023812D02*
X123419922Y-144988098D01*
X123419922Y-144988098D02*
X123527065Y-144988098D01*
X123527065Y-144988098D02*
X123598494Y-145023812D01*
X123598494Y-145023812D02*
X123634208Y-145059526D01*
X122955637Y-145488098D02*
X122955637Y-144988098D01*
X122955637Y-144738098D02*
X122991351Y-144773812D01*
X122991351Y-144773812D02*
X122955637Y-144809526D01*
X122955637Y-144809526D02*
X122919923Y-144773812D01*
X122919923Y-144773812D02*
X122955637Y-144738098D01*
X122955637Y-144738098D02*
X122955637Y-144809526D01*
X122634208Y-145452384D02*
X122562780Y-145488098D01*
X122562780Y-145488098D02*
X122419923Y-145488098D01*
X122419923Y-145488098D02*
X122348494Y-145452384D01*
X122348494Y-145452384D02*
X122312780Y-145380955D01*
X122312780Y-145380955D02*
X122312780Y-145345241D01*
X122312780Y-145345241D02*
X122348494Y-145273812D01*
X122348494Y-145273812D02*
X122419923Y-145238098D01*
X122419923Y-145238098D02*
X122527066Y-145238098D01*
X122527066Y-145238098D02*
X122598494Y-145202384D01*
X122598494Y-145202384D02*
X122634208Y-145130955D01*
X122634208Y-145130955D02*
X122634208Y-145095241D01*
X122634208Y-145095241D02*
X122598494Y-145023812D01*
X122598494Y-145023812D02*
X122527066Y-144988098D01*
X122527066Y-144988098D02*
X122419923Y-144988098D01*
X122419923Y-144988098D02*
X122348494Y-145023812D01*
X121419922Y-145488098D02*
X121419922Y-144738098D01*
X121419922Y-145023812D02*
X121348494Y-144988098D01*
X121348494Y-144988098D02*
X121205636Y-144988098D01*
X121205636Y-144988098D02*
X121134208Y-145023812D01*
X121134208Y-145023812D02*
X121098494Y-145059526D01*
X121098494Y-145059526D02*
X121062779Y-145130955D01*
X121062779Y-145130955D02*
X121062779Y-145345241D01*
X121062779Y-145345241D02*
X121098494Y-145416669D01*
X121098494Y-145416669D02*
X121134208Y-145452384D01*
X121134208Y-145452384D02*
X121205636Y-145488098D01*
X121205636Y-145488098D02*
X121348494Y-145488098D01*
X121348494Y-145488098D02*
X121419922Y-145452384D01*
X120634208Y-145488098D02*
X120705637Y-145452384D01*
X120705637Y-145452384D02*
X120741351Y-145416669D01*
X120741351Y-145416669D02*
X120777065Y-145345241D01*
X120777065Y-145345241D02*
X120777065Y-145130955D01*
X120777065Y-145130955D02*
X120741351Y-145059526D01*
X120741351Y-145059526D02*
X120705637Y-145023812D01*
X120705637Y-145023812D02*
X120634208Y-144988098D01*
X120634208Y-144988098D02*
X120527065Y-144988098D01*
X120527065Y-144988098D02*
X120455637Y-145023812D01*
X120455637Y-145023812D02*
X120419923Y-145059526D01*
X120419923Y-145059526D02*
X120384208Y-145130955D01*
X120384208Y-145130955D02*
X120384208Y-145345241D01*
X120384208Y-145345241D02*
X120419923Y-145416669D01*
X120419923Y-145416669D02*
X120455637Y-145452384D01*
X120455637Y-145452384D02*
X120527065Y-145488098D01*
X120527065Y-145488098D02*
X120634208Y-145488098D01*
X119741352Y-145488098D02*
X119741352Y-145095241D01*
X119741352Y-145095241D02*
X119777066Y-145023812D01*
X119777066Y-145023812D02*
X119848494Y-144988098D01*
X119848494Y-144988098D02*
X119991352Y-144988098D01*
X119991352Y-144988098D02*
X120062780Y-145023812D01*
X119741352Y-145452384D02*
X119812780Y-145488098D01*
X119812780Y-145488098D02*
X119991352Y-145488098D01*
X119991352Y-145488098D02*
X120062780Y-145452384D01*
X120062780Y-145452384D02*
X120098494Y-145380955D01*
X120098494Y-145380955D02*
X120098494Y-145309526D01*
X120098494Y-145309526D02*
X120062780Y-145238098D01*
X120062780Y-145238098D02*
X119991352Y-145202384D01*
X119991352Y-145202384D02*
X119812780Y-145202384D01*
X119812780Y-145202384D02*
X119741352Y-145166669D01*
X119384209Y-145488098D02*
X119384209Y-144988098D01*
X119384209Y-145130955D02*
X119348495Y-145059526D01*
X119348495Y-145059526D02*
X119312781Y-145023812D01*
X119312781Y-145023812D02*
X119241352Y-144988098D01*
X119241352Y-144988098D02*
X119169923Y-144988098D01*
X118598495Y-145488098D02*
X118598495Y-144738098D01*
X118598495Y-145452384D02*
X118669923Y-145488098D01*
X118669923Y-145488098D02*
X118812780Y-145488098D01*
X118812780Y-145488098D02*
X118884209Y-145452384D01*
X118884209Y-145452384D02*
X118919923Y-145416669D01*
X118919923Y-145416669D02*
X118955637Y-145345241D01*
X118955637Y-145345241D02*
X118955637Y-145130955D01*
X118955637Y-145130955D02*
X118919923Y-145059526D01*
X118919923Y-145059526D02*
X118884209Y-145023812D01*
X118884209Y-145023812D02*
X118812780Y-144988098D01*
X118812780Y-144988098D02*
X118669923Y-144988098D01*
X118669923Y-144988098D02*
X118598495Y-145023812D01*
X118205638Y-144738098D02*
X118277066Y-144880955D01*
X117919923Y-145452384D02*
X117848495Y-145488098D01*
X117848495Y-145488098D02*
X117705638Y-145488098D01*
X117705638Y-145488098D02*
X117634209Y-145452384D01*
X117634209Y-145452384D02*
X117598495Y-145380955D01*
X117598495Y-145380955D02*
X117598495Y-145345241D01*
X117598495Y-145345241D02*
X117634209Y-145273812D01*
X117634209Y-145273812D02*
X117705638Y-145238098D01*
X117705638Y-145238098D02*
X117812781Y-145238098D01*
X117812781Y-145238098D02*
X117884209Y-145202384D01*
X117884209Y-145202384D02*
X117919923Y-145130955D01*
X117919923Y-145130955D02*
X117919923Y-145095241D01*
X117919923Y-145095241D02*
X117884209Y-145023812D01*
X117884209Y-145023812D02*
X117812781Y-144988098D01*
X117812781Y-144988098D02*
X117705638Y-144988098D01*
X117705638Y-144988098D02*
X117634209Y-145023812D01*
X116598494Y-145488098D02*
X116669923Y-145452384D01*
X116669923Y-145452384D02*
X116705637Y-145380955D01*
X116705637Y-145380955D02*
X116705637Y-144738098D01*
X116027066Y-145452384D02*
X116098494Y-145488098D01*
X116098494Y-145488098D02*
X116241352Y-145488098D01*
X116241352Y-145488098D02*
X116312780Y-145452384D01*
X116312780Y-145452384D02*
X116348494Y-145380955D01*
X116348494Y-145380955D02*
X116348494Y-145095241D01*
X116348494Y-145095241D02*
X116312780Y-145023812D01*
X116312780Y-145023812D02*
X116241352Y-144988098D01*
X116241352Y-144988098D02*
X116098494Y-144988098D01*
X116098494Y-144988098D02*
X116027066Y-145023812D01*
X116027066Y-145023812D02*
X115991352Y-145095241D01*
X115991352Y-145095241D02*
X115991352Y-145166669D01*
X115991352Y-145166669D02*
X116348494Y-145238098D01*
X115669923Y-144988098D02*
X115669923Y-145488098D01*
X115669923Y-145059526D02*
X115634209Y-145023812D01*
X115634209Y-145023812D02*
X115562780Y-144988098D01*
X115562780Y-144988098D02*
X115455637Y-144988098D01*
X115455637Y-144988098D02*
X115384209Y-145023812D01*
X115384209Y-145023812D02*
X115348495Y-145095241D01*
X115348495Y-145095241D02*
X115348495Y-145488098D01*
X114669924Y-144988098D02*
X114669924Y-145595241D01*
X114669924Y-145595241D02*
X114705638Y-145666669D01*
X114705638Y-145666669D02*
X114741352Y-145702384D01*
X114741352Y-145702384D02*
X114812781Y-145738098D01*
X114812781Y-145738098D02*
X114919924Y-145738098D01*
X114919924Y-145738098D02*
X114991352Y-145702384D01*
X114669924Y-145452384D02*
X114741352Y-145488098D01*
X114741352Y-145488098D02*
X114884209Y-145488098D01*
X114884209Y-145488098D02*
X114955638Y-145452384D01*
X114955638Y-145452384D02*
X114991352Y-145416669D01*
X114991352Y-145416669D02*
X115027066Y-145345241D01*
X115027066Y-145345241D02*
X115027066Y-145130955D01*
X115027066Y-145130955D02*
X114991352Y-145059526D01*
X114991352Y-145059526D02*
X114955638Y-145023812D01*
X114955638Y-145023812D02*
X114884209Y-144988098D01*
X114884209Y-144988098D02*
X114741352Y-144988098D01*
X114741352Y-144988098D02*
X114669924Y-145023812D01*
X114419924Y-144988098D02*
X114134210Y-144988098D01*
X114312781Y-144738098D02*
X114312781Y-145380955D01*
X114312781Y-145380955D02*
X114277067Y-145452384D01*
X114277067Y-145452384D02*
X114205638Y-145488098D01*
X114205638Y-145488098D02*
X114134210Y-145488098D01*
X113884210Y-145488098D02*
X113884210Y-144738098D01*
X113562782Y-145488098D02*
X113562782Y-145095241D01*
X113562782Y-145095241D02*
X113598496Y-145023812D01*
X113598496Y-145023812D02*
X113669924Y-144988098D01*
X113669924Y-144988098D02*
X113777067Y-144988098D01*
X113777067Y-144988098D02*
X113848496Y-145023812D01*
X113848496Y-145023812D02*
X113884210Y-145059526D01*
X140348496Y-146195556D02*
X140527068Y-146695556D01*
X140527068Y-145945556D02*
X140455639Y-145945556D01*
X140455639Y-145945556D02*
X140419925Y-145981270D01*
X140419925Y-145981270D02*
X140348496Y-146195556D01*
X140348496Y-146195556D02*
X140169925Y-146695556D01*
X139669924Y-146981270D02*
X139705639Y-146945556D01*
X139705639Y-146945556D02*
X139777067Y-146838413D01*
X139777067Y-146838413D02*
X139812782Y-146766984D01*
X139812782Y-146766984D02*
X139848496Y-146659842D01*
X139848496Y-146659842D02*
X139884210Y-146481270D01*
X139884210Y-146481270D02*
X139884210Y-146338413D01*
X139884210Y-146338413D02*
X139848496Y-146159842D01*
X139848496Y-146159842D02*
X139812782Y-146052699D01*
X139812782Y-146052699D02*
X139777067Y-145981270D01*
X139777067Y-145981270D02*
X139705639Y-145874127D01*
X139705639Y-145874127D02*
X139669924Y-145838413D01*
X139455639Y-145945556D02*
X138991353Y-145945556D01*
X138991353Y-145945556D02*
X139241353Y-146231270D01*
X139241353Y-146231270D02*
X139134210Y-146231270D01*
X139134210Y-146231270D02*
X139062782Y-146266984D01*
X139062782Y-146266984D02*
X139027067Y-146302699D01*
X139027067Y-146302699D02*
X138991353Y-146374127D01*
X138991353Y-146374127D02*
X138991353Y-146552699D01*
X138991353Y-146552699D02*
X139027067Y-146624127D01*
X139027067Y-146624127D02*
X139062782Y-146659842D01*
X139062782Y-146659842D02*
X139134210Y-146695556D01*
X139134210Y-146695556D02*
X139348496Y-146695556D01*
X139348496Y-146695556D02*
X139419924Y-146659842D01*
X139419924Y-146659842D02*
X139455639Y-146624127D01*
X138527067Y-145945556D02*
X138455638Y-145945556D01*
X138455638Y-145945556D02*
X138384210Y-145981270D01*
X138384210Y-145981270D02*
X138348496Y-146016984D01*
X138348496Y-146016984D02*
X138312781Y-146088413D01*
X138312781Y-146088413D02*
X138277067Y-146231270D01*
X138277067Y-146231270D02*
X138277067Y-146409842D01*
X138277067Y-146409842D02*
X138312781Y-146552699D01*
X138312781Y-146552699D02*
X138348496Y-146624127D01*
X138348496Y-146624127D02*
X138384210Y-146659842D01*
X138384210Y-146659842D02*
X138455638Y-146695556D01*
X138455638Y-146695556D02*
X138527067Y-146695556D01*
X138527067Y-146695556D02*
X138598496Y-146659842D01*
X138598496Y-146659842D02*
X138634210Y-146624127D01*
X138634210Y-146624127D02*
X138669924Y-146552699D01*
X138669924Y-146552699D02*
X138705638Y-146409842D01*
X138705638Y-146409842D02*
X138705638Y-146231270D01*
X138705638Y-146231270D02*
X138669924Y-146088413D01*
X138669924Y-146088413D02*
X138634210Y-146016984D01*
X138634210Y-146016984D02*
X138598496Y-145981270D01*
X138598496Y-145981270D02*
X138527067Y-145945556D01*
X136991352Y-145981270D02*
X137062781Y-145945556D01*
X137062781Y-145945556D02*
X137169923Y-145945556D01*
X137169923Y-145945556D02*
X137277066Y-145981270D01*
X137277066Y-145981270D02*
X137348495Y-146052699D01*
X137348495Y-146052699D02*
X137384209Y-146124127D01*
X137384209Y-146124127D02*
X137419923Y-146266984D01*
X137419923Y-146266984D02*
X137419923Y-146374127D01*
X137419923Y-146374127D02*
X137384209Y-146516984D01*
X137384209Y-146516984D02*
X137348495Y-146588413D01*
X137348495Y-146588413D02*
X137277066Y-146659842D01*
X137277066Y-146659842D02*
X137169923Y-146695556D01*
X137169923Y-146695556D02*
X137098495Y-146695556D01*
X137098495Y-146695556D02*
X136991352Y-146659842D01*
X136991352Y-146659842D02*
X136955638Y-146624127D01*
X136955638Y-146624127D02*
X136955638Y-146374127D01*
X136955638Y-146374127D02*
X137098495Y-146374127D01*
X136634209Y-146695556D02*
X136634209Y-145945556D01*
X136634209Y-146302699D02*
X136205638Y-146302699D01*
X136205638Y-146695556D02*
X136205638Y-145945556D01*
X135919924Y-146195556D02*
X135527067Y-146195556D01*
X135527067Y-146195556D02*
X135919924Y-146695556D01*
X135919924Y-146695556D02*
X135527067Y-146695556D01*
X135312781Y-146981270D02*
X135277066Y-146945556D01*
X135277066Y-146945556D02*
X135205638Y-146838413D01*
X135205638Y-146838413D02*
X135169924Y-146766984D01*
X135169924Y-146766984D02*
X135134209Y-146659842D01*
X135134209Y-146659842D02*
X135098495Y-146481270D01*
X135098495Y-146481270D02*
X135098495Y-146338413D01*
X135098495Y-146338413D02*
X135134209Y-146159842D01*
X135134209Y-146159842D02*
X135169924Y-146052699D01*
X135169924Y-146052699D02*
X135205638Y-145981270D01*
X135205638Y-145981270D02*
X135277066Y-145874127D01*
X135277066Y-145874127D02*
X135312781Y-145838413D01*
X134277066Y-146409842D02*
X134241352Y-146374127D01*
X134241352Y-146374127D02*
X134169923Y-146338413D01*
X134169923Y-146338413D02*
X134027066Y-146409842D01*
X134027066Y-146409842D02*
X133955637Y-146374127D01*
X133955637Y-146374127D02*
X133919923Y-146338413D01*
X133634209Y-146302699D02*
X133062781Y-146302699D01*
X133062781Y-146516984D02*
X133634209Y-146516984D01*
X131741352Y-146695556D02*
X132169923Y-146695556D01*
X131955638Y-146695556D02*
X131955638Y-145945556D01*
X131955638Y-145945556D02*
X132027066Y-146052699D01*
X132027066Y-146052699D02*
X132098495Y-146124127D01*
X132098495Y-146124127D02*
X132169923Y-146159842D01*
X131277066Y-145945556D02*
X131205637Y-145945556D01*
X131205637Y-145945556D02*
X131134209Y-145981270D01*
X131134209Y-145981270D02*
X131098495Y-146016984D01*
X131098495Y-146016984D02*
X131062780Y-146088413D01*
X131062780Y-146088413D02*
X131027066Y-146231270D01*
X131027066Y-146231270D02*
X131027066Y-146409842D01*
X131027066Y-146409842D02*
X131062780Y-146552699D01*
X131062780Y-146552699D02*
X131098495Y-146624127D01*
X131098495Y-146624127D02*
X131134209Y-146659842D01*
X131134209Y-146659842D02*
X131205637Y-146695556D01*
X131205637Y-146695556D02*
X131277066Y-146695556D01*
X131277066Y-146695556D02*
X131348495Y-146659842D01*
X131348495Y-146659842D02*
X131384209Y-146624127D01*
X131384209Y-146624127D02*
X131419923Y-146552699D01*
X131419923Y-146552699D02*
X131455637Y-146409842D01*
X131455637Y-146409842D02*
X131455637Y-146231270D01*
X131455637Y-146231270D02*
X131419923Y-146088413D01*
X131419923Y-146088413D02*
X131384209Y-146016984D01*
X131384209Y-146016984D02*
X131348495Y-145981270D01*
X131348495Y-145981270D02*
X131277066Y-145945556D01*
X130134208Y-146695556D02*
X130134208Y-146195556D01*
X130134208Y-146266984D02*
X130098494Y-146231270D01*
X130098494Y-146231270D02*
X130027065Y-146195556D01*
X130027065Y-146195556D02*
X129919922Y-146195556D01*
X129919922Y-146195556D02*
X129848494Y-146231270D01*
X129848494Y-146231270D02*
X129812780Y-146302699D01*
X129812780Y-146302699D02*
X129812780Y-146695556D01*
X129812780Y-146302699D02*
X129777065Y-146231270D01*
X129777065Y-146231270D02*
X129705637Y-146195556D01*
X129705637Y-146195556D02*
X129598494Y-146195556D01*
X129598494Y-146195556D02*
X129527065Y-146231270D01*
X129527065Y-146231270D02*
X129491351Y-146302699D01*
X129491351Y-146302699D02*
X129491351Y-146695556D01*
X129134208Y-146695556D02*
X129134208Y-146195556D01*
X129134208Y-146266984D02*
X129098494Y-146231270D01*
X129098494Y-146231270D02*
X129027065Y-146195556D01*
X129027065Y-146195556D02*
X128919922Y-146195556D01*
X128919922Y-146195556D02*
X128848494Y-146231270D01*
X128848494Y-146231270D02*
X128812780Y-146302699D01*
X128812780Y-146302699D02*
X128812780Y-146695556D01*
X128812780Y-146302699D02*
X128777065Y-146231270D01*
X128777065Y-146231270D02*
X128705637Y-146195556D01*
X128705637Y-146195556D02*
X128598494Y-146195556D01*
X128598494Y-146195556D02*
X128527065Y-146231270D01*
X128527065Y-146231270D02*
X128491351Y-146302699D01*
X128491351Y-146302699D02*
X128491351Y-146695556D01*
X126991351Y-146195556D02*
X127562779Y-146409842D01*
X127562779Y-146409842D02*
X126991351Y-146624127D01*
X126634208Y-146409842D02*
X126062780Y-146409842D01*
X125705637Y-146409842D02*
X125134209Y-146409842D01*
X124205637Y-146695556D02*
X124205637Y-145945556D01*
X124205637Y-145945556D02*
X123955637Y-146481270D01*
X123955637Y-146481270D02*
X123705637Y-145945556D01*
X123705637Y-145945556D02*
X123705637Y-146695556D01*
X123348494Y-146695556D02*
X123348494Y-146195556D01*
X123348494Y-145945556D02*
X123384208Y-145981270D01*
X123384208Y-145981270D02*
X123348494Y-146016984D01*
X123348494Y-146016984D02*
X123312780Y-145981270D01*
X123312780Y-145981270D02*
X123348494Y-145945556D01*
X123348494Y-145945556D02*
X123348494Y-146016984D01*
X122884208Y-146695556D02*
X122955637Y-146659842D01*
X122955637Y-146659842D02*
X122991351Y-146588413D01*
X122991351Y-146588413D02*
X122991351Y-145945556D01*
X122491351Y-146695556D02*
X122562780Y-146659842D01*
X122562780Y-146659842D02*
X122598494Y-146588413D01*
X122598494Y-146588413D02*
X122598494Y-145945556D01*
X122205637Y-146695556D02*
X122205637Y-146195556D01*
X122205637Y-145945556D02*
X122241351Y-145981270D01*
X122241351Y-145981270D02*
X122205637Y-146016984D01*
X122205637Y-146016984D02*
X122169923Y-145981270D01*
X122169923Y-145981270D02*
X122205637Y-145945556D01*
X122205637Y-145945556D02*
X122205637Y-146016984D01*
X121848494Y-146695556D02*
X121848494Y-146195556D01*
X121848494Y-146266984D02*
X121812780Y-146231270D01*
X121812780Y-146231270D02*
X121741351Y-146195556D01*
X121741351Y-146195556D02*
X121634208Y-146195556D01*
X121634208Y-146195556D02*
X121562780Y-146231270D01*
X121562780Y-146231270D02*
X121527066Y-146302699D01*
X121527066Y-146302699D02*
X121527066Y-146695556D01*
X121527066Y-146302699D02*
X121491351Y-146231270D01*
X121491351Y-146231270D02*
X121419923Y-146195556D01*
X121419923Y-146195556D02*
X121312780Y-146195556D01*
X121312780Y-146195556D02*
X121241351Y-146231270D01*
X121241351Y-146231270D02*
X121205637Y-146302699D01*
X121205637Y-146302699D02*
X121205637Y-146695556D01*
X120848494Y-146695556D02*
X120848494Y-146195556D01*
X120848494Y-145945556D02*
X120884208Y-145981270D01*
X120884208Y-145981270D02*
X120848494Y-146016984D01*
X120848494Y-146016984D02*
X120812780Y-145981270D01*
X120812780Y-145981270D02*
X120848494Y-145945556D01*
X120848494Y-145945556D02*
X120848494Y-146016984D01*
X120598494Y-146195556D02*
X120312780Y-146195556D01*
X120491351Y-145945556D02*
X120491351Y-146588413D01*
X120491351Y-146588413D02*
X120455637Y-146659842D01*
X120455637Y-146659842D02*
X120384208Y-146695556D01*
X120384208Y-146695556D02*
X120312780Y-146695556D01*
X119777066Y-146659842D02*
X119848494Y-146695556D01*
X119848494Y-146695556D02*
X119991352Y-146695556D01*
X119991352Y-146695556D02*
X120062780Y-146659842D01*
X120062780Y-146659842D02*
X120098494Y-146588413D01*
X120098494Y-146588413D02*
X120098494Y-146302699D01*
X120098494Y-146302699D02*
X120062780Y-146231270D01*
X120062780Y-146231270D02*
X119991352Y-146195556D01*
X119991352Y-146195556D02*
X119848494Y-146195556D01*
X119848494Y-146195556D02*
X119777066Y-146231270D01*
X119777066Y-146231270D02*
X119741352Y-146302699D01*
X119741352Y-146302699D02*
X119741352Y-146374127D01*
X119741352Y-146374127D02*
X120098494Y-146445556D01*
X119419923Y-146695556D02*
X119419923Y-146195556D01*
X119419923Y-146338413D02*
X119384209Y-146266984D01*
X119384209Y-146266984D02*
X119348495Y-146231270D01*
X119348495Y-146231270D02*
X119277066Y-146195556D01*
X119277066Y-146195556D02*
X119205637Y-146195556D01*
X118455637Y-146195556D02*
X118312780Y-146695556D01*
X118312780Y-146695556D02*
X118169922Y-146338413D01*
X118169922Y-146338413D02*
X118027065Y-146695556D01*
X118027065Y-146695556D02*
X117884208Y-146195556D01*
X117277066Y-146695556D02*
X117277066Y-146302699D01*
X117277066Y-146302699D02*
X117312780Y-146231270D01*
X117312780Y-146231270D02*
X117384208Y-146195556D01*
X117384208Y-146195556D02*
X117527066Y-146195556D01*
X117527066Y-146195556D02*
X117598494Y-146231270D01*
X117277066Y-146659842D02*
X117348494Y-146695556D01*
X117348494Y-146695556D02*
X117527066Y-146695556D01*
X117527066Y-146695556D02*
X117598494Y-146659842D01*
X117598494Y-146659842D02*
X117634208Y-146588413D01*
X117634208Y-146588413D02*
X117634208Y-146516984D01*
X117634208Y-146516984D02*
X117598494Y-146445556D01*
X117598494Y-146445556D02*
X117527066Y-146409842D01*
X117527066Y-146409842D02*
X117348494Y-146409842D01*
X117348494Y-146409842D02*
X117277066Y-146374127D01*
X116991352Y-146195556D02*
X116812780Y-146695556D01*
X116812780Y-146695556D02*
X116634209Y-146195556D01*
X116062780Y-146659842D02*
X116134208Y-146695556D01*
X116134208Y-146695556D02*
X116277066Y-146695556D01*
X116277066Y-146695556D02*
X116348494Y-146659842D01*
X116348494Y-146659842D02*
X116384208Y-146588413D01*
X116384208Y-146588413D02*
X116384208Y-146302699D01*
X116384208Y-146302699D02*
X116348494Y-146231270D01*
X116348494Y-146231270D02*
X116277066Y-146195556D01*
X116277066Y-146195556D02*
X116134208Y-146195556D01*
X116134208Y-146195556D02*
X116062780Y-146231270D01*
X116062780Y-146231270D02*
X116027066Y-146302699D01*
X116027066Y-146302699D02*
X116027066Y-146374127D01*
X116027066Y-146374127D02*
X116384208Y-146445556D01*
X115027065Y-146695556D02*
X115098494Y-146659842D01*
X115098494Y-146659842D02*
X115134208Y-146588413D01*
X115134208Y-146588413D02*
X115134208Y-145945556D01*
X114634208Y-146695556D02*
X114705637Y-146659842D01*
X114705637Y-146659842D02*
X114741351Y-146624127D01*
X114741351Y-146624127D02*
X114777065Y-146552699D01*
X114777065Y-146552699D02*
X114777065Y-146338413D01*
X114777065Y-146338413D02*
X114741351Y-146266984D01*
X114741351Y-146266984D02*
X114705637Y-146231270D01*
X114705637Y-146231270D02*
X114634208Y-146195556D01*
X114634208Y-146195556D02*
X114527065Y-146195556D01*
X114527065Y-146195556D02*
X114455637Y-146231270D01*
X114455637Y-146231270D02*
X114419923Y-146266984D01*
X114419923Y-146266984D02*
X114384208Y-146338413D01*
X114384208Y-146338413D02*
X114384208Y-146552699D01*
X114384208Y-146552699D02*
X114419923Y-146624127D01*
X114419923Y-146624127D02*
X114455637Y-146659842D01*
X114455637Y-146659842D02*
X114527065Y-146695556D01*
X114527065Y-146695556D02*
X114634208Y-146695556D01*
X114134209Y-146195556D02*
X113991352Y-146695556D01*
X113991352Y-146695556D02*
X113848494Y-146338413D01*
X113848494Y-146338413D02*
X113705637Y-146695556D01*
X113705637Y-146695556D02*
X113562780Y-146195556D01*
X112991352Y-146659842D02*
X113062780Y-146695556D01*
X113062780Y-146695556D02*
X113205638Y-146695556D01*
X113205638Y-146695556D02*
X113277066Y-146659842D01*
X113277066Y-146659842D02*
X113312780Y-146588413D01*
X113312780Y-146588413D02*
X113312780Y-146302699D01*
X113312780Y-146302699D02*
X113277066Y-146231270D01*
X113277066Y-146231270D02*
X113205638Y-146195556D01*
X113205638Y-146195556D02*
X113062780Y-146195556D01*
X113062780Y-146195556D02*
X112991352Y-146231270D01*
X112991352Y-146231270D02*
X112955638Y-146302699D01*
X112955638Y-146302699D02*
X112955638Y-146374127D01*
X112955638Y-146374127D02*
X113312780Y-146445556D01*
X112634209Y-146695556D02*
X112634209Y-146195556D01*
X112634209Y-146338413D02*
X112598495Y-146266984D01*
X112598495Y-146266984D02*
X112562781Y-146231270D01*
X112562781Y-146231270D02*
X112491352Y-146195556D01*
X112491352Y-146195556D02*
X112419923Y-146195556D01*
X111491351Y-146695556D02*
X111562780Y-146659842D01*
X111562780Y-146659842D02*
X111598494Y-146588413D01*
X111598494Y-146588413D02*
X111598494Y-145945556D01*
X111205637Y-146695556D02*
X111205637Y-146195556D01*
X111205637Y-145945556D02*
X111241351Y-145981270D01*
X111241351Y-145981270D02*
X111205637Y-146016984D01*
X111205637Y-146016984D02*
X111169923Y-145981270D01*
X111169923Y-145981270D02*
X111205637Y-145945556D01*
X111205637Y-145945556D02*
X111205637Y-146016984D01*
X110848494Y-146695556D02*
X110848494Y-146195556D01*
X110848494Y-146266984D02*
X110812780Y-146231270D01*
X110812780Y-146231270D02*
X110741351Y-146195556D01*
X110741351Y-146195556D02*
X110634208Y-146195556D01*
X110634208Y-146195556D02*
X110562780Y-146231270D01*
X110562780Y-146231270D02*
X110527066Y-146302699D01*
X110527066Y-146302699D02*
X110527066Y-146695556D01*
X110527066Y-146302699D02*
X110491351Y-146231270D01*
X110491351Y-146231270D02*
X110419923Y-146195556D01*
X110419923Y-146195556D02*
X110312780Y-146195556D01*
X110312780Y-146195556D02*
X110241351Y-146231270D01*
X110241351Y-146231270D02*
X110205637Y-146302699D01*
X110205637Y-146302699D02*
X110205637Y-146695556D01*
X109848494Y-146695556D02*
X109848494Y-146195556D01*
X109848494Y-145945556D02*
X109884208Y-145981270D01*
X109884208Y-145981270D02*
X109848494Y-146016984D01*
X109848494Y-146016984D02*
X109812780Y-145981270D01*
X109812780Y-145981270D02*
X109848494Y-145945556D01*
X109848494Y-145945556D02*
X109848494Y-146016984D01*
X109598494Y-146195556D02*
X109312780Y-146195556D01*
X109491351Y-145945556D02*
X109491351Y-146588413D01*
X109491351Y-146588413D02*
X109455637Y-146659842D01*
X109455637Y-146659842D02*
X109384208Y-146695556D01*
X109384208Y-146695556D02*
X109312780Y-146695556D01*
X140348496Y-147403014D02*
X140527068Y-147903014D01*
X140527068Y-147153014D02*
X140455639Y-147153014D01*
X140455639Y-147153014D02*
X140419925Y-147188728D01*
X140419925Y-147188728D02*
X140348496Y-147403014D01*
X140348496Y-147403014D02*
X140169925Y-147903014D01*
X139669924Y-148188728D02*
X139705639Y-148153014D01*
X139705639Y-148153014D02*
X139777067Y-148045871D01*
X139777067Y-148045871D02*
X139812782Y-147974442D01*
X139812782Y-147974442D02*
X139848496Y-147867300D01*
X139848496Y-147867300D02*
X139884210Y-147688728D01*
X139884210Y-147688728D02*
X139884210Y-147545871D01*
X139884210Y-147545871D02*
X139848496Y-147367300D01*
X139848496Y-147367300D02*
X139812782Y-147260157D01*
X139812782Y-147260157D02*
X139777067Y-147188728D01*
X139777067Y-147188728D02*
X139705639Y-147081585D01*
X139705639Y-147081585D02*
X139669924Y-147045871D01*
X139455639Y-147153014D02*
X138991353Y-147153014D01*
X138991353Y-147153014D02*
X139241353Y-147438728D01*
X139241353Y-147438728D02*
X139134210Y-147438728D01*
X139134210Y-147438728D02*
X139062782Y-147474442D01*
X139062782Y-147474442D02*
X139027067Y-147510157D01*
X139027067Y-147510157D02*
X138991353Y-147581585D01*
X138991353Y-147581585D02*
X138991353Y-147760157D01*
X138991353Y-147760157D02*
X139027067Y-147831585D01*
X139027067Y-147831585D02*
X139062782Y-147867300D01*
X139062782Y-147867300D02*
X139134210Y-147903014D01*
X139134210Y-147903014D02*
X139348496Y-147903014D01*
X139348496Y-147903014D02*
X139419924Y-147867300D01*
X139419924Y-147867300D02*
X139455639Y-147831585D01*
X138527067Y-147153014D02*
X138455638Y-147153014D01*
X138455638Y-147153014D02*
X138384210Y-147188728D01*
X138384210Y-147188728D02*
X138348496Y-147224442D01*
X138348496Y-147224442D02*
X138312781Y-147295871D01*
X138312781Y-147295871D02*
X138277067Y-147438728D01*
X138277067Y-147438728D02*
X138277067Y-147617300D01*
X138277067Y-147617300D02*
X138312781Y-147760157D01*
X138312781Y-147760157D02*
X138348496Y-147831585D01*
X138348496Y-147831585D02*
X138384210Y-147867300D01*
X138384210Y-147867300D02*
X138455638Y-147903014D01*
X138455638Y-147903014D02*
X138527067Y-147903014D01*
X138527067Y-147903014D02*
X138598496Y-147867300D01*
X138598496Y-147867300D02*
X138634210Y-147831585D01*
X138634210Y-147831585D02*
X138669924Y-147760157D01*
X138669924Y-147760157D02*
X138705638Y-147617300D01*
X138705638Y-147617300D02*
X138705638Y-147438728D01*
X138705638Y-147438728D02*
X138669924Y-147295871D01*
X138669924Y-147295871D02*
X138634210Y-147224442D01*
X138634210Y-147224442D02*
X138598496Y-147188728D01*
X138598496Y-147188728D02*
X138527067Y-147153014D01*
X137812781Y-147153014D02*
X137741352Y-147153014D01*
X137741352Y-147153014D02*
X137669924Y-147188728D01*
X137669924Y-147188728D02*
X137634210Y-147224442D01*
X137634210Y-147224442D02*
X137598495Y-147295871D01*
X137598495Y-147295871D02*
X137562781Y-147438728D01*
X137562781Y-147438728D02*
X137562781Y-147617300D01*
X137562781Y-147617300D02*
X137598495Y-147760157D01*
X137598495Y-147760157D02*
X137634210Y-147831585D01*
X137634210Y-147831585D02*
X137669924Y-147867300D01*
X137669924Y-147867300D02*
X137741352Y-147903014D01*
X137741352Y-147903014D02*
X137812781Y-147903014D01*
X137812781Y-147903014D02*
X137884210Y-147867300D01*
X137884210Y-147867300D02*
X137919924Y-147831585D01*
X137919924Y-147831585D02*
X137955638Y-147760157D01*
X137955638Y-147760157D02*
X137991352Y-147617300D01*
X137991352Y-147617300D02*
X137991352Y-147438728D01*
X137991352Y-147438728D02*
X137955638Y-147295871D01*
X137955638Y-147295871D02*
X137919924Y-147224442D01*
X137919924Y-147224442D02*
X137884210Y-147188728D01*
X137884210Y-147188728D02*
X137812781Y-147153014D01*
X136277066Y-147188728D02*
X136348495Y-147153014D01*
X136348495Y-147153014D02*
X136455637Y-147153014D01*
X136455637Y-147153014D02*
X136562780Y-147188728D01*
X136562780Y-147188728D02*
X136634209Y-147260157D01*
X136634209Y-147260157D02*
X136669923Y-147331585D01*
X136669923Y-147331585D02*
X136705637Y-147474442D01*
X136705637Y-147474442D02*
X136705637Y-147581585D01*
X136705637Y-147581585D02*
X136669923Y-147724442D01*
X136669923Y-147724442D02*
X136634209Y-147795871D01*
X136634209Y-147795871D02*
X136562780Y-147867300D01*
X136562780Y-147867300D02*
X136455637Y-147903014D01*
X136455637Y-147903014D02*
X136384209Y-147903014D01*
X136384209Y-147903014D02*
X136277066Y-147867300D01*
X136277066Y-147867300D02*
X136241352Y-147831585D01*
X136241352Y-147831585D02*
X136241352Y-147581585D01*
X136241352Y-147581585D02*
X136384209Y-147581585D01*
X135919923Y-147903014D02*
X135919923Y-147153014D01*
X135919923Y-147510157D02*
X135491352Y-147510157D01*
X135491352Y-147903014D02*
X135491352Y-147153014D01*
X135205638Y-147403014D02*
X134812781Y-147403014D01*
X134812781Y-147403014D02*
X135205638Y-147903014D01*
X135205638Y-147903014D02*
X134812781Y-147903014D01*
X134598495Y-148188728D02*
X134562780Y-148153014D01*
X134562780Y-148153014D02*
X134491352Y-148045871D01*
X134491352Y-148045871D02*
X134455638Y-147974442D01*
X134455638Y-147974442D02*
X134419923Y-147867300D01*
X134419923Y-147867300D02*
X134384209Y-147688728D01*
X134384209Y-147688728D02*
X134384209Y-147545871D01*
X134384209Y-147545871D02*
X134419923Y-147367300D01*
X134419923Y-147367300D02*
X134455638Y-147260157D01*
X134455638Y-147260157D02*
X134491352Y-147188728D01*
X134491352Y-147188728D02*
X134562780Y-147081585D01*
X134562780Y-147081585D02*
X134598495Y-147045871D01*
X133562780Y-147617300D02*
X133527066Y-147581585D01*
X133527066Y-147581585D02*
X133455637Y-147545871D01*
X133455637Y-147545871D02*
X133312780Y-147617300D01*
X133312780Y-147617300D02*
X133241351Y-147581585D01*
X133241351Y-147581585D02*
X133205637Y-147545871D01*
X132919923Y-147510157D02*
X132348495Y-147510157D01*
X132348495Y-147724442D02*
X132919923Y-147724442D01*
X131027066Y-147903014D02*
X131455637Y-147903014D01*
X131241352Y-147903014D02*
X131241352Y-147153014D01*
X131241352Y-147153014D02*
X131312780Y-147260157D01*
X131312780Y-147260157D02*
X131384209Y-147331585D01*
X131384209Y-147331585D02*
X131455637Y-147367300D01*
X130134208Y-147903014D02*
X130134208Y-147403014D01*
X130134208Y-147474442D02*
X130098494Y-147438728D01*
X130098494Y-147438728D02*
X130027065Y-147403014D01*
X130027065Y-147403014D02*
X129919922Y-147403014D01*
X129919922Y-147403014D02*
X129848494Y-147438728D01*
X129848494Y-147438728D02*
X129812780Y-147510157D01*
X129812780Y-147510157D02*
X129812780Y-147903014D01*
X129812780Y-147510157D02*
X129777065Y-147438728D01*
X129777065Y-147438728D02*
X129705637Y-147403014D01*
X129705637Y-147403014D02*
X129598494Y-147403014D01*
X129598494Y-147403014D02*
X129527065Y-147438728D01*
X129527065Y-147438728D02*
X129491351Y-147510157D01*
X129491351Y-147510157D02*
X129491351Y-147903014D01*
X129134208Y-147903014D02*
X129134208Y-147403014D01*
X129134208Y-147474442D02*
X129098494Y-147438728D01*
X129098494Y-147438728D02*
X129027065Y-147403014D01*
X129027065Y-147403014D02*
X128919922Y-147403014D01*
X128919922Y-147403014D02*
X128848494Y-147438728D01*
X128848494Y-147438728D02*
X128812780Y-147510157D01*
X128812780Y-147510157D02*
X128812780Y-147903014D01*
X128812780Y-147510157D02*
X128777065Y-147438728D01*
X128777065Y-147438728D02*
X128705637Y-147403014D01*
X128705637Y-147403014D02*
X128598494Y-147403014D01*
X128598494Y-147403014D02*
X128527065Y-147438728D01*
X128527065Y-147438728D02*
X128491351Y-147510157D01*
X128491351Y-147510157D02*
X128491351Y-147903014D01*
X126991351Y-147403014D02*
X127562779Y-147617300D01*
X127562779Y-147617300D02*
X126991351Y-147831585D01*
X126634208Y-147617300D02*
X126062780Y-147617300D01*
X125705637Y-147617300D02*
X125134209Y-147617300D01*
X124205637Y-147903014D02*
X124205637Y-147153014D01*
X124205637Y-147153014D02*
X123955637Y-147688728D01*
X123955637Y-147688728D02*
X123705637Y-147153014D01*
X123705637Y-147153014D02*
X123705637Y-147903014D01*
X123348494Y-147903014D02*
X123348494Y-147403014D01*
X123348494Y-147153014D02*
X123384208Y-147188728D01*
X123384208Y-147188728D02*
X123348494Y-147224442D01*
X123348494Y-147224442D02*
X123312780Y-147188728D01*
X123312780Y-147188728D02*
X123348494Y-147153014D01*
X123348494Y-147153014D02*
X123348494Y-147224442D01*
X122669923Y-147867300D02*
X122741351Y-147903014D01*
X122741351Y-147903014D02*
X122884208Y-147903014D01*
X122884208Y-147903014D02*
X122955637Y-147867300D01*
X122955637Y-147867300D02*
X122991351Y-147831585D01*
X122991351Y-147831585D02*
X123027065Y-147760157D01*
X123027065Y-147760157D02*
X123027065Y-147545871D01*
X123027065Y-147545871D02*
X122991351Y-147474442D01*
X122991351Y-147474442D02*
X122955637Y-147438728D01*
X122955637Y-147438728D02*
X122884208Y-147403014D01*
X122884208Y-147403014D02*
X122741351Y-147403014D01*
X122741351Y-147403014D02*
X122669923Y-147438728D01*
X122348494Y-147903014D02*
X122348494Y-147403014D01*
X122348494Y-147545871D02*
X122312780Y-147474442D01*
X122312780Y-147474442D02*
X122277066Y-147438728D01*
X122277066Y-147438728D02*
X122205637Y-147403014D01*
X122205637Y-147403014D02*
X122134208Y-147403014D01*
X121777065Y-147903014D02*
X121848494Y-147867300D01*
X121848494Y-147867300D02*
X121884208Y-147831585D01*
X121884208Y-147831585D02*
X121919922Y-147760157D01*
X121919922Y-147760157D02*
X121919922Y-147545871D01*
X121919922Y-147545871D02*
X121884208Y-147474442D01*
X121884208Y-147474442D02*
X121848494Y-147438728D01*
X121848494Y-147438728D02*
X121777065Y-147403014D01*
X121777065Y-147403014D02*
X121669922Y-147403014D01*
X121669922Y-147403014D02*
X121598494Y-147438728D01*
X121598494Y-147438728D02*
X121562780Y-147474442D01*
X121562780Y-147474442D02*
X121527065Y-147545871D01*
X121527065Y-147545871D02*
X121527065Y-147760157D01*
X121527065Y-147760157D02*
X121562780Y-147831585D01*
X121562780Y-147831585D02*
X121598494Y-147867300D01*
X121598494Y-147867300D02*
X121669922Y-147903014D01*
X121669922Y-147903014D02*
X121777065Y-147903014D01*
X121277066Y-147403014D02*
X121134209Y-147903014D01*
X121134209Y-147903014D02*
X120991351Y-147545871D01*
X120991351Y-147545871D02*
X120848494Y-147903014D01*
X120848494Y-147903014D02*
X120705637Y-147403014D01*
X120098495Y-147903014D02*
X120098495Y-147510157D01*
X120098495Y-147510157D02*
X120134209Y-147438728D01*
X120134209Y-147438728D02*
X120205637Y-147403014D01*
X120205637Y-147403014D02*
X120348495Y-147403014D01*
X120348495Y-147403014D02*
X120419923Y-147438728D01*
X120098495Y-147867300D02*
X120169923Y-147903014D01*
X120169923Y-147903014D02*
X120348495Y-147903014D01*
X120348495Y-147903014D02*
X120419923Y-147867300D01*
X120419923Y-147867300D02*
X120455637Y-147795871D01*
X120455637Y-147795871D02*
X120455637Y-147724442D01*
X120455637Y-147724442D02*
X120419923Y-147653014D01*
X120419923Y-147653014D02*
X120348495Y-147617300D01*
X120348495Y-147617300D02*
X120169923Y-147617300D01*
X120169923Y-147617300D02*
X120098495Y-147581585D01*
X119812781Y-147403014D02*
X119634209Y-147903014D01*
X119634209Y-147903014D02*
X119455638Y-147403014D01*
X118884209Y-147867300D02*
X118955637Y-147903014D01*
X118955637Y-147903014D02*
X119098495Y-147903014D01*
X119098495Y-147903014D02*
X119169923Y-147867300D01*
X119169923Y-147867300D02*
X119205637Y-147795871D01*
X119205637Y-147795871D02*
X119205637Y-147510157D01*
X119205637Y-147510157D02*
X119169923Y-147438728D01*
X119169923Y-147438728D02*
X119098495Y-147403014D01*
X119098495Y-147403014D02*
X118955637Y-147403014D01*
X118955637Y-147403014D02*
X118884209Y-147438728D01*
X118884209Y-147438728D02*
X118848495Y-147510157D01*
X118848495Y-147510157D02*
X118848495Y-147581585D01*
X118848495Y-147581585D02*
X119205637Y-147653014D01*
X117991352Y-147117300D02*
X118634209Y-148081585D01*
X117741352Y-147903014D02*
X117741352Y-147153014D01*
X117741352Y-147153014D02*
X117491352Y-147688728D01*
X117491352Y-147688728D02*
X117241352Y-147153014D01*
X117241352Y-147153014D02*
X117241352Y-147903014D01*
X116884209Y-147903014D02*
X116884209Y-147403014D01*
X116884209Y-147153014D02*
X116919923Y-147188728D01*
X116919923Y-147188728D02*
X116884209Y-147224442D01*
X116884209Y-147224442D02*
X116848495Y-147188728D01*
X116848495Y-147188728D02*
X116884209Y-147153014D01*
X116884209Y-147153014D02*
X116884209Y-147224442D01*
X116419923Y-147903014D02*
X116491352Y-147867300D01*
X116491352Y-147867300D02*
X116527066Y-147795871D01*
X116527066Y-147795871D02*
X116527066Y-147153014D01*
X116027066Y-147903014D02*
X116098495Y-147867300D01*
X116098495Y-147867300D02*
X116134209Y-147795871D01*
X116134209Y-147795871D02*
X116134209Y-147153014D01*
X115741352Y-147903014D02*
X115741352Y-147403014D01*
X115741352Y-147153014D02*
X115777066Y-147188728D01*
X115777066Y-147188728D02*
X115741352Y-147224442D01*
X115741352Y-147224442D02*
X115705638Y-147188728D01*
X115705638Y-147188728D02*
X115741352Y-147153014D01*
X115741352Y-147153014D02*
X115741352Y-147224442D01*
X115384209Y-147903014D02*
X115384209Y-147403014D01*
X115384209Y-147474442D02*
X115348495Y-147438728D01*
X115348495Y-147438728D02*
X115277066Y-147403014D01*
X115277066Y-147403014D02*
X115169923Y-147403014D01*
X115169923Y-147403014D02*
X115098495Y-147438728D01*
X115098495Y-147438728D02*
X115062781Y-147510157D01*
X115062781Y-147510157D02*
X115062781Y-147903014D01*
X115062781Y-147510157D02*
X115027066Y-147438728D01*
X115027066Y-147438728D02*
X114955638Y-147403014D01*
X114955638Y-147403014D02*
X114848495Y-147403014D01*
X114848495Y-147403014D02*
X114777066Y-147438728D01*
X114777066Y-147438728D02*
X114741352Y-147510157D01*
X114741352Y-147510157D02*
X114741352Y-147903014D01*
X114384209Y-147903014D02*
X114384209Y-147403014D01*
X114384209Y-147153014D02*
X114419923Y-147188728D01*
X114419923Y-147188728D02*
X114384209Y-147224442D01*
X114384209Y-147224442D02*
X114348495Y-147188728D01*
X114348495Y-147188728D02*
X114384209Y-147153014D01*
X114384209Y-147153014D02*
X114384209Y-147224442D01*
X114134209Y-147403014D02*
X113848495Y-147403014D01*
X114027066Y-147153014D02*
X114027066Y-147795871D01*
X114027066Y-147795871D02*
X113991352Y-147867300D01*
X113991352Y-147867300D02*
X113919923Y-147903014D01*
X113919923Y-147903014D02*
X113848495Y-147903014D01*
X113312781Y-147867300D02*
X113384209Y-147903014D01*
X113384209Y-147903014D02*
X113527067Y-147903014D01*
X113527067Y-147903014D02*
X113598495Y-147867300D01*
X113598495Y-147867300D02*
X113634209Y-147795871D01*
X113634209Y-147795871D02*
X113634209Y-147510157D01*
X113634209Y-147510157D02*
X113598495Y-147438728D01*
X113598495Y-147438728D02*
X113527067Y-147403014D01*
X113527067Y-147403014D02*
X113384209Y-147403014D01*
X113384209Y-147403014D02*
X113312781Y-147438728D01*
X113312781Y-147438728D02*
X113277067Y-147510157D01*
X113277067Y-147510157D02*
X113277067Y-147581585D01*
X113277067Y-147581585D02*
X113634209Y-147653014D01*
X112955638Y-147903014D02*
X112955638Y-147403014D01*
X112955638Y-147545871D02*
X112919924Y-147474442D01*
X112919924Y-147474442D02*
X112884210Y-147438728D01*
X112884210Y-147438728D02*
X112812781Y-147403014D01*
X112812781Y-147403014D02*
X112741352Y-147403014D01*
X111991352Y-147403014D02*
X111848495Y-147903014D01*
X111848495Y-147903014D02*
X111705637Y-147545871D01*
X111705637Y-147545871D02*
X111562780Y-147903014D01*
X111562780Y-147903014D02*
X111419923Y-147403014D01*
X110812781Y-147903014D02*
X110812781Y-147510157D01*
X110812781Y-147510157D02*
X110848495Y-147438728D01*
X110848495Y-147438728D02*
X110919923Y-147403014D01*
X110919923Y-147403014D02*
X111062781Y-147403014D01*
X111062781Y-147403014D02*
X111134209Y-147438728D01*
X110812781Y-147867300D02*
X110884209Y-147903014D01*
X110884209Y-147903014D02*
X111062781Y-147903014D01*
X111062781Y-147903014D02*
X111134209Y-147867300D01*
X111134209Y-147867300D02*
X111169923Y-147795871D01*
X111169923Y-147795871D02*
X111169923Y-147724442D01*
X111169923Y-147724442D02*
X111134209Y-147653014D01*
X111134209Y-147653014D02*
X111062781Y-147617300D01*
X111062781Y-147617300D02*
X110884209Y-147617300D01*
X110884209Y-147617300D02*
X110812781Y-147581585D01*
X110527067Y-147403014D02*
X110348495Y-147903014D01*
X110348495Y-147903014D02*
X110169924Y-147403014D01*
X109598495Y-147867300D02*
X109669923Y-147903014D01*
X109669923Y-147903014D02*
X109812781Y-147903014D01*
X109812781Y-147903014D02*
X109884209Y-147867300D01*
X109884209Y-147867300D02*
X109919923Y-147795871D01*
X109919923Y-147795871D02*
X109919923Y-147510157D01*
X109919923Y-147510157D02*
X109884209Y-147438728D01*
X109884209Y-147438728D02*
X109812781Y-147403014D01*
X109812781Y-147403014D02*
X109669923Y-147403014D01*
X109669923Y-147403014D02*
X109598495Y-147438728D01*
X109598495Y-147438728D02*
X109562781Y-147510157D01*
X109562781Y-147510157D02*
X109562781Y-147581585D01*
X109562781Y-147581585D02*
X109919923Y-147653014D01*
X108348495Y-147403014D02*
X108348495Y-147903014D01*
X108669923Y-147403014D02*
X108669923Y-147795871D01*
X108669923Y-147795871D02*
X108634209Y-147867300D01*
X108634209Y-147867300D02*
X108562780Y-147903014D01*
X108562780Y-147903014D02*
X108455637Y-147903014D01*
X108455637Y-147903014D02*
X108384209Y-147867300D01*
X108384209Y-147867300D02*
X108348495Y-147831585D01*
X107991352Y-147403014D02*
X107991352Y-148153014D01*
X107991352Y-147438728D02*
X107919924Y-147403014D01*
X107919924Y-147403014D02*
X107777066Y-147403014D01*
X107777066Y-147403014D02*
X107705638Y-147438728D01*
X107705638Y-147438728D02*
X107669924Y-147474442D01*
X107669924Y-147474442D02*
X107634209Y-147545871D01*
X107634209Y-147545871D02*
X107634209Y-147760157D01*
X107634209Y-147760157D02*
X107669924Y-147831585D01*
X107669924Y-147831585D02*
X107705638Y-147867300D01*
X107705638Y-147867300D02*
X107777066Y-147903014D01*
X107777066Y-147903014D02*
X107919924Y-147903014D01*
X107919924Y-147903014D02*
X107991352Y-147867300D01*
X107312781Y-147403014D02*
X107312781Y-148153014D01*
X107312781Y-147438728D02*
X107241353Y-147403014D01*
X107241353Y-147403014D02*
X107098495Y-147403014D01*
X107098495Y-147403014D02*
X107027067Y-147438728D01*
X107027067Y-147438728D02*
X106991353Y-147474442D01*
X106991353Y-147474442D02*
X106955638Y-147545871D01*
X106955638Y-147545871D02*
X106955638Y-147760157D01*
X106955638Y-147760157D02*
X106991353Y-147831585D01*
X106991353Y-147831585D02*
X107027067Y-147867300D01*
X107027067Y-147867300D02*
X107098495Y-147903014D01*
X107098495Y-147903014D02*
X107241353Y-147903014D01*
X107241353Y-147903014D02*
X107312781Y-147867300D01*
X106348496Y-147867300D02*
X106419924Y-147903014D01*
X106419924Y-147903014D02*
X106562782Y-147903014D01*
X106562782Y-147903014D02*
X106634210Y-147867300D01*
X106634210Y-147867300D02*
X106669924Y-147795871D01*
X106669924Y-147795871D02*
X106669924Y-147510157D01*
X106669924Y-147510157D02*
X106634210Y-147438728D01*
X106634210Y-147438728D02*
X106562782Y-147403014D01*
X106562782Y-147403014D02*
X106419924Y-147403014D01*
X106419924Y-147403014D02*
X106348496Y-147438728D01*
X106348496Y-147438728D02*
X106312782Y-147510157D01*
X106312782Y-147510157D02*
X106312782Y-147581585D01*
X106312782Y-147581585D02*
X106669924Y-147653014D01*
X105991353Y-147903014D02*
X105991353Y-147403014D01*
X105991353Y-147545871D02*
X105955639Y-147474442D01*
X105955639Y-147474442D02*
X105919925Y-147438728D01*
X105919925Y-147438728D02*
X105848496Y-147403014D01*
X105848496Y-147403014D02*
X105777067Y-147403014D01*
X104848495Y-147903014D02*
X104919924Y-147867300D01*
X104919924Y-147867300D02*
X104955638Y-147795871D01*
X104955638Y-147795871D02*
X104955638Y-147153014D01*
X104562781Y-147903014D02*
X104562781Y-147403014D01*
X104562781Y-147153014D02*
X104598495Y-147188728D01*
X104598495Y-147188728D02*
X104562781Y-147224442D01*
X104562781Y-147224442D02*
X104527067Y-147188728D01*
X104527067Y-147188728D02*
X104562781Y-147153014D01*
X104562781Y-147153014D02*
X104562781Y-147224442D01*
X104205638Y-147903014D02*
X104205638Y-147403014D01*
X104205638Y-147474442D02*
X104169924Y-147438728D01*
X104169924Y-147438728D02*
X104098495Y-147403014D01*
X104098495Y-147403014D02*
X103991352Y-147403014D01*
X103991352Y-147403014D02*
X103919924Y-147438728D01*
X103919924Y-147438728D02*
X103884210Y-147510157D01*
X103884210Y-147510157D02*
X103884210Y-147903014D01*
X103884210Y-147510157D02*
X103848495Y-147438728D01*
X103848495Y-147438728D02*
X103777067Y-147403014D01*
X103777067Y-147403014D02*
X103669924Y-147403014D01*
X103669924Y-147403014D02*
X103598495Y-147438728D01*
X103598495Y-147438728D02*
X103562781Y-147510157D01*
X103562781Y-147510157D02*
X103562781Y-147903014D01*
X103205638Y-147903014D02*
X103205638Y-147403014D01*
X103205638Y-147153014D02*
X103241352Y-147188728D01*
X103241352Y-147188728D02*
X103205638Y-147224442D01*
X103205638Y-147224442D02*
X103169924Y-147188728D01*
X103169924Y-147188728D02*
X103205638Y-147153014D01*
X103205638Y-147153014D02*
X103205638Y-147224442D01*
X102955638Y-147403014D02*
X102669924Y-147403014D01*
X102848495Y-147153014D02*
X102848495Y-147795871D01*
X102848495Y-147795871D02*
X102812781Y-147867300D01*
X102812781Y-147867300D02*
X102741352Y-147903014D01*
X102741352Y-147903014D02*
X102669924Y-147903014D01*
D11*
X50000000Y-50000000D02*
X150000000Y-50000000D01*
X150000000Y-150000000D01*
X50000000Y-150000000D01*
X50000000Y-50000000D01*
M02*
