M48
; DRILL file {KiCad 9.0.3} date 2026-02-01T20:01:10-0800
; FORMAT={-:-/ absolute / metric / decimal}
; #@! TF.CreationDate,2026-02-01T20:01:10-08:00
; #@! TF.GenerationSoftware,Kicad,Pcbnew,9.0.3
; #@! TF.FileFunction,Plated,1,4,PTH
FMAT,2
METRIC
; #@! TA.AperFunction,Plated,PTH,ViaDrill
T1C0.150
; #@! TA.AperFunction,Plated,PTH,ComponentDrill
T2C1.500
; #@! TA.AperFunction,Plated,PTH,ComponentDrill
T3C1.700
%
G90
G05
T1
X54.5Y-60.5
X54.5Y-65.5
X54.5Y-70.5
X54.5Y-75.5
X54.5Y-80.5
X54.5Y-85.5
X54.5Y-90.5
X54.5Y-95.5
X54.5Y-100.5
X54.5Y-105.5
X54.5Y-110.5
X54.5Y-115.5
X54.5Y-120.5
X54.5Y-125.5
X54.5Y-130.5
X54.5Y-135.5
X54.5Y-140.5
X59.5Y-60.5
X59.5Y-65.5
X59.5Y-70.5
X59.5Y-75.5
X59.5Y-80.5
X59.5Y-85.5
X59.5Y-90.5
X59.5Y-95.5
X59.5Y-100.5
X59.5Y-105.5
X59.5Y-110.5
X59.5Y-115.5
X59.5Y-120.5
X59.5Y-125.5
X59.5Y-130.5
X59.5Y-135.5
X59.5Y-140.5
X64.5Y-60.5
X64.5Y-65.5
X64.5Y-75.5
X64.5Y-80.5
X64.5Y-85.5
X64.5Y-90.5
X64.5Y-100.5
X64.5Y-105.5
X64.5Y-110.5
X64.5Y-115.5
X64.5Y-125.5
X64.5Y-135.5
X64.5Y-140.5
X69.5Y-60.5
X69.5Y-65.5
X69.5Y-70.5
X69.5Y-75.5
X69.5Y-80.5
X69.5Y-85.5
X69.5Y-90.5
X69.5Y-95.5
X69.5Y-100.5
X69.5Y-105.5
X69.5Y-110.5
X69.5Y-115.5
X69.5Y-120.5
X69.5Y-125.5
X69.5Y-130.5
X69.5Y-135.5
X69.5Y-140.5
X70.8Y-70.229
X70.8Y-72.83
X71.4Y-69.2
X71.4Y-73.8
X72.1Y-69.2
X72.1Y-73.8
X72.8Y-69.2
X72.8Y-73.8
X73.37Y-70.23
X73.4Y-72.83
X74.5Y-60.5
X74.5Y-65.5
X74.5Y-70.5
X74.5Y-75.5
X74.5Y-80.5
X74.5Y-90.5
X74.5Y-95.5
X74.5Y-100.5
X74.5Y-105.5
X74.5Y-110.5
X74.5Y-115.5
X74.5Y-120.5
X74.5Y-125.5
X74.5Y-130.5
X74.5Y-135.5
X74.5Y-140.5
X79.5Y-60.5
X79.5Y-65.5
X79.5Y-70.5
X79.5Y-75.5
X79.5Y-80.5
X79.5Y-90.5
X79.5Y-100.5
X79.5Y-105.5
X79.5Y-110.5
X79.5Y-115.5
X79.5Y-120.5
X79.5Y-125.5
X79.5Y-130.5
X79.5Y-135.5
X79.5Y-140.5
X84.5Y-60.5
X84.5Y-65.5
X84.5Y-70.5
X84.5Y-75.5
X84.5Y-80.5
X84.5Y-90.5
X84.5Y-95.5
X84.5Y-100.5
X84.5Y-105.5
X84.5Y-110.5
X84.5Y-115.5
X84.5Y-120.5
X84.5Y-125.5
X84.5Y-130.5
X84.5Y-135.5
X84.5Y-140.5
X89.5Y-60.5
X89.5Y-65.5
X89.5Y-70.5
X89.5Y-75.5
X89.5Y-80.5
X89.5Y-85.5
X89.5Y-90.5
X89.5Y-95.5
X89.5Y-100.5
X89.5Y-105.5
X89.5Y-110.5
X89.5Y-115.5
X89.5Y-120.5
X89.5Y-125.5
X89.5Y-130.5
X89.5Y-135.5
X89.5Y-140.5
X93.09Y-123.24
X93.1Y-110.74
X93.39Y-124.3
X93.4Y-111.8
X94.09Y-124.3
X94.1Y-111.8
X94.5Y-60.5
X94.5Y-65.5
X94.5Y-70.5
X94.5Y-75.5
X94.5Y-80.5
X94.5Y-85.5
X94.5Y-90.5
X94.5Y-100.5
X94.5Y-105.5
X94.5Y-115.5
X94.5Y-120.5
X94.5Y-125.5
X94.5Y-140.5
X94.79Y-124.3
X94.8Y-111.8
X95.01Y-123.24
X95.02Y-110.74
X99.5Y-60.5
X99.5Y-65.5
X99.5Y-70.5
X99.5Y-75.5
X99.5Y-80.5
X99.5Y-85.5
X99.5Y-90.5
X99.5Y-95.5
X99.5Y-100.5
X99.5Y-105.5
X99.5Y-110.5
X99.5Y-115.5
X99.5Y-120.5
X99.5Y-125.5
X99.5Y-130.5
X99.5Y-135.5
X99.5Y-140.5
X104.5Y-60.5
X104.5Y-65.5
X104.5Y-70.5
X104.5Y-75.5
X104.5Y-80.5
X104.5Y-85.5
X104.5Y-90.5
X104.5Y-95.5
X104.5Y-100.5
X104.5Y-105.5
X104.5Y-110.5
X104.5Y-115.5
X104.5Y-120.5
X104.5Y-130.5
X104.5Y-135.5
X104.5Y-140.5
X109.5Y-60.5
X109.5Y-65.5
X109.5Y-70.5
X109.5Y-75.5
X109.5Y-80.5
X109.5Y-85.5
X109.5Y-90.5
X109.5Y-95.5
X109.5Y-100.5
X109.5Y-105.5
X109.5Y-110.5
X109.5Y-115.5
X109.5Y-120.5
X109.5Y-125.5
X109.5Y-130.5
X109.5Y-135.5
X109.5Y-140.5
X114.5Y-60.5
X114.5Y-65.5
X114.5Y-75.5
X114.5Y-80.5
X114.5Y-90.5
X114.5Y-95.5
X114.5Y-100.5
X114.5Y-105.5
X114.5Y-115.5
X114.5Y-120.5
X114.5Y-125.5
X114.5Y-130.5
X114.5Y-135.5
X114.5Y-140.5
X118.23Y-72.95
X119.03Y-85.33
X119.04Y-82.73
X119.5Y-60.5
X119.5Y-65.5
X119.5Y-75.5
X119.5Y-80.5
X119.5Y-90.5
X119.5Y-95.5
X119.5Y-100.5
X119.5Y-105.5
X119.5Y-110.5
X119.5Y-115.5
X119.5Y-120.5
X119.5Y-125.5
X119.5Y-130.5
X119.5Y-135.5
X119.5Y-140.5
X122.73Y-72.95
X123.13Y-72.95
X124.03Y-85.33
X124.5Y-60.5
X124.5Y-65.5
X124.5Y-75.5
X124.5Y-80.5
X124.5Y-90.5
X124.5Y-95.5
X124.5Y-100.5
X124.5Y-105.5
X124.5Y-110.5
X124.5Y-115.5
X124.5Y-120.5
X124.5Y-125.5
X124.5Y-130.5
X124.5Y-135.5
X124.5Y-140.5
X125.12Y-125.195
X125.4Y-126.0
X126.1Y-126.0
X126.8Y-126.0
X127.04Y-125.195
X127.23Y-72.95
X127.8Y-72.95
X129.03Y-82.73
X129.03Y-85.33
X129.5Y-60.5
X129.5Y-65.5
X129.5Y-75.5
X129.5Y-80.5
X129.5Y-90.5
X129.5Y-95.5
X129.5Y-100.5
X129.5Y-105.5
X129.5Y-110.5
X129.5Y-115.5
X129.5Y-120.5
X129.5Y-125.5
X129.5Y-130.5
X129.5Y-135.5
X129.5Y-140.5
X134.5Y-60.5
X134.5Y-65.5
X134.5Y-70.5
X134.5Y-75.5
X134.5Y-80.5
X134.5Y-85.5
X134.5Y-90.5
X134.5Y-95.5
X134.5Y-100.5
X134.5Y-105.5
X134.5Y-110.5
X134.5Y-115.5
X134.5Y-120.5
X134.5Y-125.5
X134.5Y-130.5
X134.5Y-135.5
X134.5Y-140.5
X139.5Y-60.5
X139.5Y-65.5
X139.5Y-70.5
X139.5Y-75.5
X139.5Y-80.5
X139.5Y-85.5
X139.5Y-90.5
X139.5Y-95.5
X139.5Y-100.5
X139.5Y-105.5
X139.5Y-110.5
X139.5Y-115.5
X139.5Y-120.5
X139.5Y-125.5
X139.5Y-130.5
X139.5Y-135.5
X139.5Y-140.5
X144.5Y-60.5
X144.5Y-65.5
X144.5Y-70.5
X144.5Y-75.5
X144.5Y-80.5
X144.5Y-85.5
X144.5Y-90.5
X144.5Y-95.5
X144.5Y-100.5
X144.5Y-105.5
X144.5Y-110.5
X144.5Y-115.5
X144.5Y-120.5
X144.5Y-125.5
X144.5Y-130.5
X144.5Y-135.5
X144.5Y-140.5
T2
X64.03Y-84.03
X64.03Y-96.53
X64.06Y-71.53
X64.06Y-109.09
X64.06Y-121.59
X64.06Y-134.09
X79.03Y-96.53
X94.06Y-84.03
X94.06Y-134.09
X106.09Y-84.03
X106.09Y-96.5
X106.26Y-71.65
X136.12Y-84.06
X136.26Y-71.62
T3
X61.49Y-81.49
X61.49Y-86.57
X61.49Y-93.99
X61.49Y-99.07
X61.52Y-68.99
X61.52Y-74.07
X61.52Y-106.55
X61.52Y-111.63
X61.52Y-119.05
X61.52Y-124.13
X61.52Y-131.55
X61.52Y-136.63
X66.57Y-81.49
X66.57Y-86.57
X66.57Y-93.99
X66.57Y-99.07
X66.6Y-68.99
X66.6Y-74.07
X66.6Y-106.55
X66.6Y-111.63
X66.6Y-119.05
X66.6Y-124.13
X66.6Y-131.55
X66.6Y-136.63
X76.49Y-93.99
X76.49Y-99.07
X81.57Y-93.99
X81.57Y-99.07
X91.52Y-81.49
X91.52Y-86.57
X91.52Y-131.55
X91.52Y-136.63
X96.6Y-81.49
X96.6Y-86.57
X96.6Y-131.55
X96.6Y-136.63
X103.55Y-81.49
X103.55Y-86.57
X103.55Y-93.96
X103.55Y-99.04
X103.72Y-69.11
X103.72Y-74.19
X108.63Y-81.49
X108.63Y-86.57
X108.63Y-93.96
X108.63Y-99.04
X108.8Y-69.11
X108.8Y-74.19
X133.58Y-81.52
X133.58Y-86.6
X133.72Y-69.08
X133.72Y-74.16
X138.66Y-81.52
X138.66Y-86.6
X138.8Y-69.08
X138.8Y-74.16
M30
