%TF.GenerationSoftware,KiCad,Pcbnew,9.0.3*%
%TF.CreationDate,2026-01-27T12:42:13-08:00*%
%TF.ProjectId,White paper,57686974-6520-4706-9170-65722e6b6963,rev?*%
%TF.SameCoordinates,Original*%
%TF.FileFunction,Copper,L2,Inr*%
%TF.FilePolarity,Positive*%
%FSLAX46Y46*%
G04 Gerber Fmt 4.6, Leading zero omitted, Abs format (unit mm)*
G04 Created by KiCad (PCBNEW 9.0.3) date 2026-01-27 12:42:13*
%MOMM*%
%LPD*%
G01*
G04 APERTURE LIST*
%TA.AperFunction,ComponentPad*%
%ADD10C,2.050000*%
%TD*%
%TA.AperFunction,ComponentPad*%
%ADD11C,2.250000*%
%TD*%
%TA.AperFunction,ViaPad*%
%ADD12C,0.250000*%
%TD*%
%TA.AperFunction,Conductor*%
%ADD13C,0.100000*%
%TD*%
%TA.AperFunction,Profile*%
%ADD14C,0.050000*%
%TD*%
G04 APERTURE END LIST*
D10*
%TO.N,Net-(J1-In)*%
%TO.C,J1*%
X64030000Y-84030000D03*
D11*
%TO.N,GND*%
X61490000Y-81490000D03*
X61490000Y-86570000D03*
X66570000Y-81490000D03*
X66570000Y-86570000D03*
%TD*%
D10*
%TO.N,Net-(J8-In)*%
%TO.C,J8*%
X106060000Y-96530000D03*
D11*
%TO.N,GND*%
X108600000Y-93990000D03*
X103520000Y-93990000D03*
X108600000Y-99070000D03*
X103520000Y-99070000D03*
%TD*%
D10*
%TO.N,Net-(J16-In)*%
%TO.C,J16*%
X121075000Y-96530000D03*
D11*
%TO.N,GND*%
X123615000Y-93990000D03*
X118535000Y-93990000D03*
X123615000Y-99070000D03*
X118535000Y-99070000D03*
%TD*%
D10*
%TO.N,Net-(J4-In)*%
%TO.C,J4*%
X94030000Y-121530000D03*
D11*
%TO.N,GND*%
X91490000Y-118990000D03*
X91490000Y-124070000D03*
X96570000Y-118990000D03*
X96570000Y-124070000D03*
%TD*%
D10*
%TO.N,Net-(J9-In)*%
%TO.C,J9*%
X136090000Y-140700000D03*
D11*
%TO.N,GND*%
X133550000Y-138160000D03*
X133550000Y-143240000D03*
X138630000Y-138160000D03*
X138630000Y-143240000D03*
%TD*%
D10*
%TO.N,Net-(J6-In)*%
%TO.C,J6*%
X136090000Y-84090000D03*
D11*
%TO.N,GND*%
X133550000Y-81550000D03*
X133550000Y-86630000D03*
X138630000Y-81550000D03*
X138630000Y-86630000D03*
%TD*%
D10*
%TO.N,Net-(J3-In)*%
%TO.C,J3*%
X64030000Y-121560000D03*
D11*
%TO.N,GND*%
X61490000Y-119020000D03*
X61490000Y-124100000D03*
X66570000Y-119020000D03*
X66570000Y-124100000D03*
%TD*%
D10*
%TO.N,Net-(J11-In)*%
%TO.C,J12*%
X94030000Y-96530000D03*
D11*
%TO.N,GND*%
X91490000Y-93990000D03*
X91490000Y-99070000D03*
X96570000Y-93990000D03*
X96570000Y-99070000D03*
%TD*%
D10*
%TO.N,Net-(J5-In)*%
%TO.C,J5*%
X106060000Y-84060000D03*
D11*
%TO.N,GND*%
X103520000Y-81520000D03*
X103520000Y-86600000D03*
X108600000Y-81520000D03*
X108600000Y-86600000D03*
%TD*%
D10*
%TO.N,Net-(J11-In)*%
%TO.C,J11*%
X64000000Y-96530000D03*
D11*
%TO.N,GND*%
X61460000Y-93990000D03*
X61460000Y-99070000D03*
X66540000Y-93990000D03*
X66540000Y-99070000D03*
%TD*%
D10*
%TO.N,Net-(J13-In)*%
%TO.C,J13*%
X64000000Y-109030000D03*
D11*
%TO.N,GND*%
X61460000Y-106490000D03*
X61460000Y-111570000D03*
X66540000Y-106490000D03*
X66540000Y-111570000D03*
%TD*%
D10*
%TO.N,Net-(J13-In)*%
%TO.C,J14*%
X79000000Y-109030000D03*
D11*
%TO.N,GND*%
X76460000Y-106490000D03*
X76460000Y-111570000D03*
X81540000Y-106490000D03*
X81540000Y-111570000D03*
%TD*%
D10*
%TO.N,Net-(J10-In)*%
%TO.C,J10*%
X136090000Y-96530000D03*
D11*
%TO.N,GND*%
X133550000Y-93990000D03*
X133550000Y-99070000D03*
X138630000Y-93990000D03*
X138630000Y-99070000D03*
%TD*%
D10*
%TO.N,Net-(J7-In)*%
%TO.C,J7*%
X106060000Y-140700000D03*
D11*
%TO.N,GND*%
X108600000Y-138160000D03*
X103520000Y-138160000D03*
X108600000Y-143240000D03*
X103520000Y-143240000D03*
%TD*%
D10*
%TO.N,Net-(J15-In)*%
%TO.C,J15*%
X121075000Y-140700000D03*
D11*
%TO.N,GND*%
X123615000Y-138160000D03*
X118535000Y-138160000D03*
X123615000Y-143240000D03*
X118535000Y-143240000D03*
%TD*%
D10*
%TO.N,Net-(J2-In)*%
%TO.C,J2*%
X94030000Y-84030000D03*
D11*
%TO.N,GND*%
X91490000Y-81490000D03*
X91490000Y-86570000D03*
X96570000Y-81490000D03*
X96570000Y-86570000D03*
%TD*%
D12*
%TO.N,Net-(J4-In)*%
X85200000Y-122860000D03*
X80500000Y-122860000D03*
X81000000Y-122860000D03*
X85000000Y-122860000D03*
X76000000Y-122860000D03*
%TO.N,Net-(J6-In)*%
X129000000Y-85360000D03*
X124000000Y-85360000D03*
X119000000Y-82760000D03*
X119000000Y-85360000D03*
X129000000Y-82760000D03*
%TD*%
D13*
%TO.N,Net-(J6-In)*%
X119010000Y-85360000D02*
X124000000Y-85360000D01*
%TD*%
D14*
X50000000Y-50000000D02*
X150000000Y-50000000D01*
X150000000Y-150000000D01*
X50000000Y-150000000D01*
X50000000Y-50000000D01*
M02*
