%TF.GenerationSoftware,KiCad,Pcbnew,9.0.3*%
%TF.CreationDate,2026-02-01T20:01:01-08:00*%
%TF.ProjectId,White paper,57686974-6520-4706-9170-65722e6b6963,rev?*%
%TF.SameCoordinates,Original*%
%TF.FileFunction,Copper,L1,Top*%
%TF.FilePolarity,Positive*%
%FSLAX46Y46*%
G04 Gerber Fmt 4.6, Leading zero omitted, Abs format (unit mm)*
G04 Created by KiCad (PCBNEW 9.0.3) date 2026-02-01 20:01:01*
%MOMM*%
%LPD*%
G01*
G04 APERTURE LIST*
G04 Aperture macros list*
%AMRoundRect*
0 Rectangle with rounded corners*
0 $1 Rounding radius*
0 $2 $3 $4 $5 $6 $7 $8 $9 X,Y pos of 4 corners*
0 Add a 4 corners polygon primitive as box body*
4,1,4,$2,$3,$4,$5,$6,$7,$8,$9,$2,$3,0*
0 Add four circle primitives for the rounded corners*
1,1,$1+$1,$2,$3*
1,1,$1+$1,$4,$5*
1,1,$1+$1,$6,$7*
1,1,$1+$1,$8,$9*
0 Add four rect primitives between the rounded corners*
20,1,$1+$1,$2,$3,$4,$5,0*
20,1,$1+$1,$4,$5,$6,$7,0*
20,1,$1+$1,$6,$7,$8,$9,0*
20,1,$1+$1,$8,$9,$2,$3,0*%
G04 Aperture macros list end*
%TA.AperFunction,SMDPad,CuDef*%
%ADD10RoundRect,0.200000X-0.275000X0.200000X-0.275000X-0.200000X0.275000X-0.200000X0.275000X0.200000X0*%
%TD*%
%TA.AperFunction,ComponentPad*%
%ADD11C,2.050000*%
%TD*%
%TA.AperFunction,ComponentPad*%
%ADD12C,2.250000*%
%TD*%
%TA.AperFunction,SMDPad,CuDef*%
%ADD13R,1.500000X1.000000*%
%TD*%
%TA.AperFunction,ViaPad*%
%ADD14C,0.250000*%
%TD*%
%TA.AperFunction,Conductor*%
%ADD15C,0.349250*%
%TD*%
%TA.AperFunction,Profile*%
%ADD16C,0.050000*%
%TD*%
G04 APERTURE END LIST*
D10*
%TO.P,R3,1*%
%TO.N,Net-(J2-In)*%
X94060000Y-121590000D03*
%TO.P,R3,2*%
%TO.N,GND*%
X94060000Y-123240000D03*
%TD*%
D11*
%TO.P,J10,1,In*%
%TO.N,Net-(J10-In)*%
X94060000Y-134090000D03*
D12*
%TO.P,J10,2,Ext*%
%TO.N,GND*%
X91520000Y-131550000D03*
X91520000Y-136630000D03*
X96600000Y-131550000D03*
X96600000Y-136630000D03*
%TD*%
D11*
%TO.P,J9,1,In*%
%TO.N,Net-(J10-In)*%
X64060000Y-134090000D03*
D12*
%TO.P,J9,2,Ext*%
%TO.N,GND*%
X61520000Y-131550000D03*
X61520000Y-136630000D03*
X66600000Y-131550000D03*
X66600000Y-136630000D03*
%TD*%
D11*
%TO.P,J2,1,In*%
%TO.N,Net-(J2-In)*%
X64060000Y-121590000D03*
D12*
%TO.P,J2,2,Ext*%
%TO.N,GND*%
X61520000Y-119050000D03*
X61520000Y-124130000D03*
X66600000Y-119050000D03*
X66600000Y-124130000D03*
%TD*%
D11*
%TO.P,J1,1,In*%
%TO.N,Net-(J1-In)*%
X64060000Y-71530000D03*
D12*
%TO.P,J1,2,Ext*%
%TO.N,GND*%
X61520000Y-68990000D03*
X61520000Y-74070000D03*
X66600000Y-68990000D03*
X66600000Y-74070000D03*
%TD*%
D10*
%TO.P,R2,1*%
%TO.N,Net-(J7-In)*%
X126080000Y-123545000D03*
%TO.P,R2,2*%
%TO.N,GND*%
X126080000Y-125195000D03*
%TD*%
%TO.P,R1,1*%
%TO.N,Net-(J8-In)*%
X94060000Y-109090000D03*
%TO.P,R1,2*%
%TO.N,GND*%
X94060000Y-110740000D03*
%TD*%
D11*
%TO.P,J4,1,In*%
%TO.N,Net-(J4-In)*%
X136260000Y-71620000D03*
D12*
%TO.P,J4,2,Ext*%
%TO.N,GND*%
X133720000Y-69080000D03*
X133720000Y-74160000D03*
X138800000Y-69080000D03*
X138800000Y-74160000D03*
%TD*%
D13*
%TO.P,JP2,1,A*%
%TO.N,Net-(J4-In)*%
X114545000Y-70350000D03*
%TO.P,JP2,2,C*%
%TO.N,Net-(J3-In)*%
X114545000Y-71650000D03*
%TO.P,JP2,3,B*%
%TO.N,Net-(J4-In)*%
X114545000Y-72950000D03*
%TD*%
D11*
%TO.P,J6,1,In*%
%TO.N,Net-(J6-In)*%
X136120000Y-84060000D03*
D12*
%TO.P,J6,2,Ext*%
%TO.N,GND*%
X133580000Y-81520000D03*
X133580000Y-86600000D03*
X138660000Y-81520000D03*
X138660000Y-86600000D03*
%TD*%
D11*
%TO.P,J3,1,In*%
%TO.N,Net-(J3-In)*%
X106260000Y-71650000D03*
D12*
%TO.P,J3,2,Ext*%
%TO.N,GND*%
X103720000Y-69110000D03*
X103720000Y-74190000D03*
X108800000Y-69110000D03*
X108800000Y-74190000D03*
%TD*%
D11*
%TO.P,J12,1,In*%
%TO.N,Net-(J11-In)*%
X94060000Y-84030000D03*
D12*
%TO.P,J12,2,Ext*%
%TO.N,GND*%
X91520000Y-81490000D03*
X91520000Y-86570000D03*
X96600000Y-81490000D03*
X96600000Y-86570000D03*
%TD*%
D11*
%TO.P,J5,1,In*%
%TO.N,Net-(J5-In)*%
X106090000Y-84030000D03*
D12*
%TO.P,J5,2,Ext*%
%TO.N,GND*%
X103550000Y-81490000D03*
X103550000Y-86570000D03*
X108630000Y-81490000D03*
X108630000Y-86570000D03*
%TD*%
D11*
%TO.P,J11,1,In*%
%TO.N,Net-(J11-In)*%
X64030000Y-84030000D03*
D12*
%TO.P,J11,2,Ext*%
%TO.N,GND*%
X61490000Y-81490000D03*
X61490000Y-86570000D03*
X66570000Y-81490000D03*
X66570000Y-86570000D03*
%TD*%
D11*
%TO.P,J8,1,In*%
%TO.N,Net-(J8-In)*%
X64060000Y-109090000D03*
D12*
%TO.P,J8,2,Ext*%
%TO.N,GND*%
X61520000Y-106550000D03*
X61520000Y-111630000D03*
X66600000Y-106550000D03*
X66600000Y-111630000D03*
%TD*%
D11*
%TO.P,J13,1,In*%
%TO.N,Net-(J13-In)*%
X64030000Y-96530000D03*
D12*
%TO.P,J13,2,Ext*%
%TO.N,GND*%
X61490000Y-93990000D03*
X61490000Y-99070000D03*
X66570000Y-93990000D03*
X66570000Y-99070000D03*
%TD*%
D11*
%TO.P,J14,1,In*%
%TO.N,Net-(J13-In)*%
X79030000Y-96530000D03*
D12*
%TO.P,J14,2,Ext*%
%TO.N,GND*%
X76490000Y-93990000D03*
X76490000Y-99070000D03*
X81570000Y-93990000D03*
X81570000Y-99070000D03*
%TD*%
D11*
%TO.P,J7,1,In*%
%TO.N,Net-(J7-In)*%
X106090000Y-96500000D03*
D12*
%TO.P,J7,2,Ext*%
%TO.N,GND*%
X108630000Y-93960000D03*
X103550000Y-93960000D03*
X108630000Y-99040000D03*
X103550000Y-99040000D03*
%TD*%
D13*
%TO.P,JP3,1,A*%
%TO.N,Net-(J6-In)*%
X116090000Y-82730000D03*
%TO.P,JP3,2,C*%
%TO.N,Net-(J5-In)*%
X116090000Y-84030000D03*
%TO.P,JP3,3,B*%
%TO.N,Net-(J6-In)*%
X116090000Y-85330000D03*
%TD*%
%TO.P,JP1,1,A*%
%TO.N,GND*%
X72060000Y-72830000D03*
%TO.P,JP1,2,C*%
%TO.N,Net-(J1-In)*%
X72060000Y-71530000D03*
%TO.P,JP1,3,B*%
%TO.N,GND*%
X72060000Y-70230000D03*
%TD*%
D14*
%TO.N,GND*%
X93390000Y-124300000D03*
X93090000Y-123240000D03*
X94790000Y-124300000D03*
X94090000Y-124300000D03*
X95010000Y-123240000D03*
X79500000Y-120500000D03*
X104500000Y-130500000D03*
X99500000Y-140500000D03*
X124500000Y-135500000D03*
X84500000Y-60500000D03*
X99500000Y-125500000D03*
X84500000Y-70500000D03*
X144500000Y-85500000D03*
X119500000Y-60500000D03*
X99500000Y-130500000D03*
X94500000Y-60500000D03*
X109500000Y-70500000D03*
X94500000Y-65500000D03*
X124500000Y-60500000D03*
X129500000Y-120500000D03*
X144500000Y-80500000D03*
X104500000Y-70500000D03*
X139500000Y-100500000D03*
X109500000Y-85500000D03*
X94500000Y-70500000D03*
X125119999Y-125195000D03*
X139500000Y-130500000D03*
X84500000Y-95500000D03*
X114500000Y-90500000D03*
X54500000Y-110500000D03*
X69500000Y-110500000D03*
X104500000Y-75500000D03*
X134500000Y-105500000D03*
X126100000Y-126000000D03*
X144500000Y-120500000D03*
X89500000Y-80500000D03*
X114500000Y-100500000D03*
X139500000Y-80500000D03*
X139500000Y-120500000D03*
X109500000Y-65500000D03*
X54500000Y-60500000D03*
X139500000Y-125500000D03*
X84500000Y-140500000D03*
X114500000Y-75500000D03*
X54500000Y-70500000D03*
X74500000Y-130500000D03*
X124500000Y-115500000D03*
X114500000Y-65500000D03*
X84500000Y-75500000D03*
X89500000Y-75500000D03*
X124500000Y-80500000D03*
X104500000Y-115500000D03*
X109500000Y-90500000D03*
X129500000Y-95500000D03*
X84500000Y-115500000D03*
X114500000Y-120500000D03*
X139500000Y-85500000D03*
X134500000Y-110500000D03*
X134500000Y-130500000D03*
X69500000Y-60500000D03*
X134500000Y-115500000D03*
X109500000Y-100500000D03*
X64500000Y-140500000D03*
X54500000Y-140500000D03*
X139500000Y-135500000D03*
X104500000Y-135500000D03*
X84500000Y-110500000D03*
X72800000Y-69200000D03*
X59500000Y-60500000D03*
X84500000Y-90500000D03*
X104500000Y-85500000D03*
X54500000Y-120500000D03*
X139500000Y-90500000D03*
X99500000Y-95500000D03*
X54500000Y-135500000D03*
X74500000Y-60500000D03*
X114500000Y-135500000D03*
X79500000Y-125500000D03*
X144500000Y-110500000D03*
X73400000Y-72830000D03*
X99500000Y-90500000D03*
X134500000Y-135500000D03*
X144500000Y-130500000D03*
X99500000Y-105500000D03*
X134500000Y-120500000D03*
X69500000Y-90500000D03*
X124500000Y-90500000D03*
X119500000Y-125500000D03*
X139500000Y-115500000D03*
X119500000Y-90500000D03*
X89500000Y-120500000D03*
X144500000Y-100500000D03*
X89500000Y-85500000D03*
X89500000Y-110500000D03*
X89500000Y-60500000D03*
X94500000Y-120500000D03*
X70800000Y-70229178D03*
X109500000Y-120500000D03*
X124500000Y-130500000D03*
X109500000Y-110500000D03*
X129500000Y-100500000D03*
X144500000Y-90500000D03*
X69500000Y-115500000D03*
X59500000Y-130500000D03*
X127039999Y-125195000D03*
X119500000Y-105500000D03*
X134500000Y-95500000D03*
X94500000Y-100500000D03*
X79500000Y-60500000D03*
X129500000Y-90500000D03*
X129500000Y-140500000D03*
X119500000Y-95500000D03*
X129500000Y-115500000D03*
X104500000Y-105500000D03*
X104500000Y-100500000D03*
X95020000Y-110740000D03*
X114500000Y-60500000D03*
X134500000Y-65500000D03*
X59500000Y-65500000D03*
X59500000Y-105500000D03*
X99500000Y-70500000D03*
X54500000Y-80500000D03*
X54500000Y-105500000D03*
X72100000Y-73800000D03*
X114500000Y-105500000D03*
X54500000Y-85500000D03*
X72100000Y-69200000D03*
X129500000Y-110500000D03*
X64500000Y-90500000D03*
X119500000Y-120500000D03*
X109500000Y-105500000D03*
X104500000Y-80500000D03*
X104500000Y-95500000D03*
X89500000Y-130500000D03*
X129500000Y-130500000D03*
X64500000Y-65500000D03*
X129500000Y-65500000D03*
X144500000Y-125500000D03*
X139500000Y-65500000D03*
X89500000Y-100500000D03*
X124500000Y-75500000D03*
X109500000Y-60500000D03*
X109500000Y-95500000D03*
X134500000Y-85500000D03*
X54500000Y-130500000D03*
X144500000Y-95500000D03*
X109500000Y-140500000D03*
X59500000Y-90500000D03*
X59500000Y-100500000D03*
X124500000Y-65500000D03*
X69500000Y-70500000D03*
X74500000Y-80500000D03*
X74500000Y-110500000D03*
X69500000Y-80500000D03*
X89500000Y-105500000D03*
X71400000Y-73800000D03*
X94500000Y-105500000D03*
X64500000Y-100500000D03*
X54500000Y-100500000D03*
X79500000Y-65500000D03*
X134500000Y-80500000D03*
X64500000Y-115500000D03*
X114500000Y-115500000D03*
X69500000Y-105500000D03*
X89500000Y-90500000D03*
X134500000Y-140500000D03*
X134500000Y-75500000D03*
X99500000Y-135500000D03*
X84500000Y-135500000D03*
X114500000Y-130500000D03*
X99500000Y-60500000D03*
X124500000Y-95500000D03*
X84500000Y-100500000D03*
X84500000Y-130500000D03*
X124500000Y-125500000D03*
X144500000Y-70500000D03*
X89500000Y-70500000D03*
X79500000Y-130500000D03*
X79500000Y-135500000D03*
X94500000Y-125500000D03*
X74500000Y-65500000D03*
X79500000Y-110500000D03*
X109500000Y-125500000D03*
X74500000Y-140500000D03*
X64500000Y-60500000D03*
X119500000Y-115500000D03*
X109500000Y-130500000D03*
X139500000Y-95500000D03*
X84500000Y-120500000D03*
X54500000Y-90500000D03*
X74500000Y-90500000D03*
X59500000Y-95500000D03*
X109500000Y-75500000D03*
X89500000Y-140500000D03*
X94500000Y-90500000D03*
X64500000Y-105500000D03*
X54500000Y-65500000D03*
X69500000Y-130500000D03*
X129500000Y-80500000D03*
X69500000Y-100500000D03*
X74500000Y-75500000D03*
X69500000Y-120500000D03*
X109500000Y-135500000D03*
X74500000Y-115500000D03*
X94100000Y-111800000D03*
X144500000Y-60500000D03*
X54500000Y-115500000D03*
X119500000Y-75500000D03*
X104500000Y-60500000D03*
X104500000Y-110500000D03*
X139500000Y-60500000D03*
X59500000Y-85500000D03*
X79500000Y-75500000D03*
X129500000Y-135500000D03*
X124500000Y-105500000D03*
X94500000Y-85500000D03*
X79500000Y-105500000D03*
X99500000Y-120500000D03*
X94800000Y-111800000D03*
X79500000Y-100500000D03*
X119500000Y-65500000D03*
X59500000Y-75500000D03*
X124500000Y-120500000D03*
X134500000Y-100500000D03*
X72800000Y-73800000D03*
X124500000Y-140500000D03*
X114500000Y-125500000D03*
X134500000Y-60500000D03*
X84500000Y-105500000D03*
X79500000Y-80500000D03*
X144500000Y-65500000D03*
X93400000Y-111800000D03*
X74500000Y-100500000D03*
X119500000Y-110500000D03*
X89500000Y-65500000D03*
X69500000Y-125500000D03*
X104500000Y-120500000D03*
X94500000Y-80500000D03*
X79500000Y-115500000D03*
X114500000Y-140500000D03*
X74500000Y-95500000D03*
X109500000Y-115500000D03*
X104500000Y-65500000D03*
X139500000Y-75500000D03*
X114500000Y-95500000D03*
X59500000Y-120500000D03*
X94500000Y-115500000D03*
X64500000Y-80500000D03*
X71400000Y-69200000D03*
X94500000Y-140500000D03*
X93100000Y-110740000D03*
X144500000Y-135500000D03*
X74500000Y-125500000D03*
X125400000Y-126000000D03*
X54500000Y-95500000D03*
X99500000Y-100500000D03*
X74500000Y-70500000D03*
X139500000Y-140500000D03*
X69500000Y-75500000D03*
X79500000Y-90500000D03*
X59500000Y-135500000D03*
X69500000Y-85500000D03*
X129500000Y-75500000D03*
X119500000Y-80500000D03*
X144500000Y-105500000D03*
X104500000Y-90500000D03*
X74500000Y-105500000D03*
X59500000Y-140500000D03*
X99500000Y-75500000D03*
X99500000Y-80500000D03*
X59500000Y-115500000D03*
X64500000Y-135500000D03*
X119500000Y-100500000D03*
X144500000Y-115500000D03*
X99500000Y-115500000D03*
X79500000Y-140500000D03*
X99500000Y-110500000D03*
X144500000Y-75500000D03*
X59500000Y-80500000D03*
X64500000Y-85500000D03*
X124500000Y-100500000D03*
X69500000Y-95500000D03*
X139500000Y-70500000D03*
X139500000Y-110500000D03*
X69500000Y-135500000D03*
X134500000Y-90500000D03*
X99500000Y-85500000D03*
X64500000Y-110500000D03*
X99500000Y-65500000D03*
X119500000Y-140500000D03*
X59500000Y-110500000D03*
X73370000Y-70230000D03*
X119500000Y-135500000D03*
X69500000Y-65500000D03*
X134500000Y-70500000D03*
X84500000Y-80500000D03*
X129500000Y-105500000D03*
X79500000Y-70500000D03*
X74500000Y-135500000D03*
X70800000Y-72830000D03*
X126800000Y-126000000D03*
X129500000Y-60500000D03*
X74500000Y-120500000D03*
X144500000Y-140500000D03*
X64500000Y-75500000D03*
X89500000Y-125500000D03*
X124500000Y-110500000D03*
X89500000Y-115500000D03*
X109500000Y-80500000D03*
X84500000Y-125500000D03*
X139500000Y-105500000D03*
X84500000Y-65500000D03*
X94500000Y-75500000D03*
X54500000Y-125500000D03*
X129500000Y-125500000D03*
X134500000Y-125500000D03*
X54500000Y-75500000D03*
X119500000Y-130500000D03*
X59500000Y-125500000D03*
X104500000Y-140500000D03*
X69500000Y-140500000D03*
X59500000Y-70500000D03*
X114500000Y-80500000D03*
X64500000Y-125500000D03*
X89500000Y-95500000D03*
X89500000Y-135500000D03*
%TO.N,Net-(J4-In)*%
X127800000Y-72950000D03*
X122730000Y-72950000D03*
X123130003Y-72950000D03*
X127230000Y-72950000D03*
X118230000Y-72950000D03*
%TO.N,Net-(J6-In)*%
X129030000Y-85330000D03*
X129030000Y-82730000D03*
X124030000Y-85330000D03*
X119040000Y-82730000D03*
X119030000Y-85330000D03*
%TD*%
D15*
%TO.N,Net-(J10-In)*%
X64060000Y-129860000D02*
X64060000Y-134090000D01*
X68380000Y-122289500D02*
X68380000Y-129860000D01*
X92390000Y-122289500D02*
X68380000Y-122289500D01*
X94060000Y-129920000D02*
X92390000Y-129920000D01*
X92390000Y-129920000D02*
X92390000Y-122289500D01*
X68380000Y-129860000D02*
X64060000Y-129860000D01*
X94060000Y-134090000D02*
X94060000Y-129920000D01*
%TO.N,GND*%
X94090000Y-123270000D02*
X94060000Y-123240000D01*
X94090000Y-124300000D02*
X94090000Y-123270000D01*
X93390000Y-124300000D02*
X94790000Y-124300000D01*
X93390000Y-123910000D02*
X94060000Y-123240000D01*
X93390000Y-124300000D02*
X93390000Y-123910000D01*
X94790000Y-123970000D02*
X94060000Y-123240000D01*
X94790000Y-124300000D02*
X94790000Y-123970000D01*
X94060000Y-123240000D02*
X95010000Y-123240000D01*
X93090000Y-123240000D02*
X94060000Y-123240000D01*
%TO.N,Net-(J2-In)*%
X94060000Y-121590000D02*
X64060000Y-121590000D01*
%TO.N,GND*%
X126800000Y-125915000D02*
X126080000Y-125195000D01*
X73370000Y-70230000D02*
X70800822Y-70230000D01*
X94800000Y-111480000D02*
X94060000Y-110740000D01*
X71400000Y-73490000D02*
X72060000Y-72830000D01*
X72060000Y-72830000D02*
X72060000Y-73740000D01*
X71400000Y-69200000D02*
X72800000Y-69200000D01*
X127039999Y-125195000D02*
X126080000Y-125195000D01*
X71400000Y-69570000D02*
X72060000Y-70230000D01*
X71400000Y-69200000D02*
X71400000Y-69570000D01*
X94800000Y-111800000D02*
X94800000Y-111480000D01*
X93100000Y-110740000D02*
X94060001Y-110740000D01*
X73400000Y-72830000D02*
X70800000Y-72830000D01*
X94100000Y-110780000D02*
X94060000Y-110740000D01*
X126100000Y-125215000D02*
X126080000Y-125195000D01*
X95020000Y-110740000D02*
X94060001Y-110740000D01*
X72800000Y-69200000D02*
X72800000Y-69490000D01*
X72000000Y-73800000D02*
X72800000Y-73800000D01*
X72800000Y-73800000D02*
X72800000Y-73570000D01*
X125119999Y-125195000D02*
X126080000Y-125195000D01*
X72100000Y-69200000D02*
X72100000Y-70190000D01*
X72800000Y-73570000D02*
X72060000Y-72830000D01*
X71400000Y-73800000D02*
X71400000Y-73490000D01*
X71400000Y-73800000D02*
X72000000Y-73800000D01*
X93400000Y-111800000D02*
X93400000Y-111400000D01*
X125400000Y-125875000D02*
X126080000Y-125195000D01*
X125400000Y-126000000D02*
X126800000Y-126000000D01*
X72800000Y-69490000D02*
X72060000Y-70230000D01*
X125400000Y-126000000D02*
X125400000Y-125875000D01*
X126100000Y-126000000D02*
X126100000Y-125215000D01*
X94100000Y-111800000D02*
X94100000Y-110780000D01*
X70800822Y-70230000D02*
X70800000Y-70229178D01*
X93400000Y-111400000D02*
X94060000Y-110740000D01*
X93400000Y-111800000D02*
X94800000Y-111800000D01*
X72060000Y-73740000D02*
X72000000Y-73800000D01*
X126800000Y-126000000D02*
X126800000Y-125915000D01*
X72100000Y-70190000D02*
X72060000Y-70230000D01*
%TO.N,Net-(J1-In)*%
X64060000Y-71530000D02*
X72060000Y-71530000D01*
%TO.N,Net-(J5-In)*%
X106090000Y-84030000D02*
X116090000Y-84030000D01*
%TO.N,Net-(J7-In)*%
X114090000Y-111515700D02*
X114090000Y-111376000D01*
X116090000Y-108670000D02*
X116090000Y-96500000D01*
X106090000Y-124392541D02*
X107531200Y-124392541D01*
X126090000Y-100746400D02*
X126810600Y-100746400D01*
X106090000Y-117270000D02*
X106090000Y-121039741D01*
X126090000Y-109826900D02*
X125369400Y-109826900D01*
X125369400Y-117510400D02*
X126090000Y-117510400D01*
X125090000Y-111503300D02*
X125090000Y-111643000D01*
X126090000Y-118488300D02*
X126090000Y-118628000D01*
X117090000Y-124817200D02*
X117090000Y-124677500D01*
X126369400Y-99349400D02*
X126810600Y-99349400D01*
X107090000Y-113342131D02*
X107090000Y-113739131D01*
X126090000Y-114017900D02*
X125369400Y-114017900D01*
X114369400Y-112493600D02*
X116090000Y-112493600D01*
X106090000Y-108651131D02*
X105590000Y-108651131D01*
X105590000Y-112842131D02*
X106090000Y-112842131D01*
X125090000Y-104518300D02*
X125090000Y-104658000D01*
X104648800Y-127186541D02*
X106090000Y-127186541D01*
X126090000Y-112620900D02*
X125369400Y-112620900D01*
X126090000Y-100047900D02*
X125369400Y-100047900D01*
X125090000Y-107312300D02*
X125090000Y-107452000D01*
X117090000Y-127611200D02*
X117090000Y-127471500D01*
X126090000Y-117510400D02*
X126369400Y-117510400D01*
X114369400Y-109699600D02*
X115810600Y-109699600D01*
X106590000Y-111445131D02*
X106090000Y-111445131D01*
X117810600Y-110398100D02*
X116090000Y-110398100D01*
X106090000Y-131470000D02*
X106090000Y-135970000D01*
X117810600Y-111795100D02*
X116090000Y-111795100D01*
X116810600Y-125795100D02*
X116090000Y-125795100D01*
X116090000Y-96500000D02*
X126090000Y-96500000D01*
X115369400Y-126493600D02*
X116090000Y-126493600D01*
X126090000Y-106334400D02*
X126810600Y-106334400D01*
X126810600Y-108429900D02*
X126090000Y-108429900D01*
X126090000Y-111223900D02*
X125369400Y-111223900D01*
X105090000Y-109151131D02*
X105090000Y-109548131D01*
X126090000Y-118970000D02*
X126080000Y-118980000D01*
X126090000Y-108429900D02*
X125369400Y-108429900D01*
X116369400Y-127192100D02*
X116090000Y-127192100D01*
X126090000Y-107731400D02*
X126810600Y-107731400D01*
X127090000Y-102422800D02*
X127090000Y-102562500D01*
X114090000Y-110118700D02*
X114090000Y-109979000D01*
X108090000Y-122157341D02*
X108090000Y-122436741D01*
X114369400Y-111096600D02*
X116090000Y-111096600D01*
X116090000Y-122870000D02*
X116090000Y-114170000D01*
X106090000Y-127186541D02*
X107531200Y-127186541D01*
X105531200Y-128583541D02*
X104648800Y-128583541D01*
X115369400Y-123699600D02*
X115810600Y-123699600D01*
X106090000Y-96500000D02*
X106090000Y-106754131D01*
X125369400Y-116113400D02*
X126090000Y-116113400D01*
X116090000Y-109280500D02*
X116090000Y-108670000D01*
X125369400Y-110525400D02*
X126090000Y-110525400D01*
X126090000Y-107032900D02*
X125369400Y-107032900D01*
X126810600Y-100047900D02*
X126369400Y-100047900D01*
X116810600Y-124398100D02*
X116090000Y-124398100D01*
X104090000Y-129142341D02*
X104090000Y-129421741D01*
X116090000Y-111795100D02*
X114369400Y-111795100D01*
X125369400Y-106334400D02*
X126090000Y-106334400D01*
X125369400Y-114716400D02*
X126090000Y-114716400D01*
X116090000Y-126493600D02*
X116810600Y-126493600D01*
X118090000Y-110817200D02*
X118090000Y-110677500D01*
X126090000Y-118628000D02*
X126090000Y-118970000D01*
X127090000Y-109407800D02*
X127090000Y-109547500D01*
X106090000Y-130818741D02*
X106090000Y-131470000D01*
X126090000Y-111922400D02*
X126810600Y-111922400D01*
X115369400Y-125096600D02*
X116090000Y-125096600D01*
X127090000Y-116392800D02*
X127090000Y-116532500D01*
X126090000Y-104937400D02*
X126810600Y-104937400D01*
X116090000Y-112493600D02*
X117810600Y-112493600D01*
X126090000Y-102143400D02*
X126810600Y-102143400D01*
X126090000Y-105635900D02*
X125369400Y-105635900D01*
X116090000Y-109420200D02*
X116090000Y-109280500D01*
X106090000Y-116136131D02*
X106090000Y-116533131D01*
X126810600Y-116811900D02*
X126090000Y-116811900D01*
X127090000Y-113598800D02*
X127090000Y-113738500D01*
X125090000Y-112900300D02*
X125090000Y-113040000D01*
X125090000Y-114297300D02*
X125090000Y-114437000D01*
X126080000Y-118980000D02*
X126080000Y-123545000D01*
X126090000Y-114716400D02*
X126810600Y-114716400D01*
X107090000Y-110548131D02*
X107090000Y-110945131D01*
X106090000Y-114239131D02*
X105590000Y-114239131D01*
X116090000Y-124398100D02*
X115810600Y-124398100D01*
X108090000Y-127745341D02*
X108090000Y-128024741D01*
X116090000Y-113192100D02*
X114369400Y-113192100D01*
X126369400Y-100047900D02*
X126090000Y-100047900D01*
X116090000Y-111096600D02*
X117810600Y-111096600D01*
X115810600Y-124398100D02*
X115369400Y-124398100D01*
X106090000Y-135970000D02*
X116090000Y-135970000D01*
X105590000Y-110048131D02*
X106090000Y-110048131D01*
X107531200Y-125789541D02*
X106090000Y-125789541D01*
X127090000Y-99628800D02*
X127090000Y-99768500D01*
X106090000Y-128583541D02*
X105531200Y-128583541D01*
X127090000Y-106613800D02*
X127090000Y-106753500D01*
X125369400Y-111922400D02*
X126090000Y-111922400D01*
X125090000Y-101724300D02*
X125090000Y-101864000D01*
X115090000Y-124118700D02*
X115090000Y-123979000D01*
X127090000Y-112201800D02*
X127090000Y-112341500D01*
X126090000Y-109128400D02*
X126810600Y-109128400D01*
X126810600Y-107032900D02*
X126090000Y-107032900D01*
X127090000Y-108010800D02*
X127090000Y-108150500D01*
X105090000Y-111945131D02*
X105090000Y-112342131D01*
X125090000Y-100327300D02*
X125090000Y-100467000D01*
X125090000Y-117091300D02*
X125090000Y-117231000D01*
X115090000Y-125515700D02*
X115090000Y-125376000D01*
X116369400Y-127890600D02*
X116810600Y-127890600D01*
X125369400Y-107731400D02*
X126090000Y-107731400D01*
X107531200Y-128583541D02*
X106090000Y-128583541D01*
X125369400Y-102143400D02*
X126090000Y-102143400D01*
X116810600Y-127192100D02*
X116369400Y-127192100D01*
X125090000Y-108709300D02*
X125090000Y-108849000D01*
X115810600Y-110398100D02*
X114369400Y-110398100D01*
X116090000Y-127192100D02*
X115369400Y-127192100D01*
X127090000Y-117789800D02*
X127090000Y-117929500D01*
X125369400Y-109128400D02*
X126090000Y-109128400D01*
X106090000Y-111445131D02*
X105590000Y-111445131D01*
X125369400Y-100746400D02*
X126090000Y-100746400D01*
X116090000Y-123420200D02*
X116090000Y-123280500D01*
X126090000Y-96500000D02*
X126090000Y-99070000D01*
X125090000Y-103121300D02*
X125090000Y-103261000D01*
X116090000Y-125795100D02*
X115369400Y-125795100D01*
X127090000Y-114995800D02*
X127090000Y-115135500D01*
X116369400Y-113192100D02*
X116090000Y-113192100D01*
X126810600Y-104238900D02*
X126090000Y-104238900D01*
X106648800Y-122995541D02*
X106090000Y-122995541D01*
X106090000Y-112842131D02*
X106590000Y-112842131D01*
X115090000Y-126912700D02*
X115090000Y-126773000D01*
X126810600Y-115414900D02*
X126090000Y-115414900D01*
X126090000Y-101444900D02*
X125369400Y-101444900D01*
X106090000Y-116533131D02*
X106090000Y-117270000D01*
X126090000Y-116811900D02*
X125369400Y-116811900D01*
X117090000Y-126214200D02*
X117090000Y-126074500D01*
X127090000Y-103819800D02*
X127090000Y-103959500D01*
X127090000Y-101025800D02*
X127090000Y-101165500D01*
X104090000Y-126348341D02*
X104090000Y-126627741D01*
X107090000Y-107754131D02*
X107090000Y-108151131D01*
X125369400Y-104937400D02*
X126090000Y-104937400D01*
X125090000Y-105915300D02*
X125090000Y-106055000D01*
X104648800Y-124392541D02*
X106090000Y-124392541D01*
X125369400Y-103540400D02*
X126090000Y-103540400D01*
X126810600Y-101444900D02*
X126090000Y-101444900D01*
X126810600Y-109826900D02*
X126090000Y-109826900D01*
X116090000Y-123280500D02*
X116090000Y-122870000D01*
X126810600Y-111223900D02*
X126090000Y-111223900D01*
X108090000Y-124951341D02*
X108090000Y-125230741D01*
X126810600Y-114017900D02*
X126090000Y-114017900D01*
X106590000Y-114239131D02*
X106090000Y-114239131D01*
X104090000Y-123554341D02*
X104090000Y-123833741D01*
X106648800Y-121598541D02*
X107531200Y-121598541D01*
X126090000Y-113319400D02*
X126810600Y-113319400D01*
X126090000Y-115414900D02*
X125369400Y-115414900D01*
X126090000Y-110525400D02*
X126810600Y-110525400D01*
X107531200Y-122995541D02*
X106648800Y-122995541D01*
X127090000Y-110804800D02*
X127090000Y-110944500D01*
X106590000Y-108651131D02*
X106090000Y-108651131D01*
X126810600Y-102841900D02*
X126090000Y-102841900D01*
X106090000Y-130539341D02*
X106090000Y-130818741D01*
X127090000Y-105216800D02*
X127090000Y-105356500D01*
X106090000Y-122995541D02*
X104648800Y-122995541D01*
X116090000Y-135970000D02*
X116090000Y-128170000D01*
X118090000Y-112214200D02*
X118090000Y-112074500D01*
X126090000Y-104238900D02*
X125369400Y-104238900D01*
X125090000Y-115694300D02*
X125090000Y-115834000D01*
X126090000Y-102841900D02*
X125369400Y-102841900D01*
X106090000Y-110048131D02*
X106590000Y-110048131D01*
X117810600Y-113192100D02*
X116369400Y-113192100D01*
X126810600Y-112620900D02*
X126090000Y-112620900D01*
X105090000Y-114739131D02*
X105090000Y-115136131D01*
X116369400Y-113890600D02*
X117810600Y-113890600D01*
X114090000Y-112912700D02*
X114090000Y-112773000D01*
X116090000Y-125096600D02*
X116810600Y-125096600D01*
X126090000Y-103540400D02*
X126810600Y-103540400D01*
X126090000Y-116113400D02*
X126810600Y-116113400D01*
X116090000Y-110398100D02*
X115810600Y-110398100D01*
X106090000Y-125789541D02*
X104648800Y-125789541D01*
X125369400Y-113319400D02*
X126090000Y-113319400D01*
X126810600Y-105635900D02*
X126090000Y-105635900D01*
X126369400Y-117510400D02*
X126810600Y-117510400D01*
X126810600Y-118208900D02*
X126369400Y-118208900D01*
X118090000Y-113611200D02*
X118090000Y-113471500D01*
X125090000Y-110106300D02*
X125090000Y-110246000D01*
X104648800Y-129980541D02*
X105531200Y-129980541D01*
X108090000Y-125230741D02*
G75*
G02*
X107531200Y-125789500I-558800J41D01*
G01*
X107090000Y-110945131D02*
G75*
G02*
X106590000Y-111445100I-500000J31D01*
G01*
X106590000Y-110048131D02*
G75*
G02*
X107089969Y-110548131I0J-499969D01*
G01*
X126810600Y-110525400D02*
G75*
G02*
X127090000Y-110804800I0J-279400D01*
G01*
X115090000Y-126773000D02*
G75*
G02*
X115369400Y-126493600I279400J0D01*
G01*
X104090000Y-126627741D02*
G75*
G03*
X104648800Y-127186500I558800J41D01*
G01*
X126810600Y-111922400D02*
G75*
G02*
X127090000Y-112201800I0J-279400D01*
G01*
X125090000Y-101864000D02*
G75*
G03*
X125369400Y-102143400I279400J0D01*
G01*
X107090000Y-113739131D02*
G75*
G02*
X106590000Y-114239100I-500000J31D01*
G01*
X116090000Y-114170000D02*
G75*
G02*
X116369400Y-113890600I279400J0D01*
G01*
X126810600Y-102143400D02*
G75*
G02*
X127090000Y-102422800I0J-279400D01*
G01*
X105590000Y-111445131D02*
G75*
G03*
X105090031Y-111945131I0J-499969D01*
G01*
X125090000Y-110246000D02*
G75*
G03*
X125369400Y-110525400I279400J0D01*
G01*
X104090000Y-123833741D02*
G75*
G03*
X104648800Y-124392500I558800J41D01*
G01*
X127090000Y-106753500D02*
G75*
G02*
X126810600Y-107032900I-279400J0D01*
G01*
X125369400Y-104238900D02*
G75*
G03*
X125090000Y-104518300I0J-279400D01*
G01*
X127090000Y-103959500D02*
G75*
G02*
X126810600Y-104238900I-279400J0D01*
G01*
X127090000Y-112341500D02*
G75*
G02*
X126810600Y-112620900I-279400J0D01*
G01*
X125090000Y-100467000D02*
G75*
G03*
X125369400Y-100746400I279400J0D01*
G01*
X126810600Y-107731400D02*
G75*
G02*
X127090000Y-108010800I0J-279400D01*
G01*
X125369400Y-102841900D02*
G75*
G03*
X125090000Y-103121300I0J-279400D01*
G01*
X118090000Y-113471500D02*
G75*
G03*
X117810600Y-113192100I-279400J0D01*
G01*
X117090000Y-124677500D02*
G75*
G03*
X116810600Y-124398100I-279400J0D01*
G01*
X105590000Y-115636131D02*
G75*
G02*
X106089969Y-116136131I0J-499969D01*
G01*
X118090000Y-110677500D02*
G75*
G03*
X117810600Y-110398100I-279400J0D01*
G01*
X115369400Y-124398100D02*
G75*
G02*
X115090000Y-124118700I0J279400D01*
G01*
X125369400Y-101444900D02*
G75*
G03*
X125090000Y-101724300I0J-279400D01*
G01*
X125369400Y-114017900D02*
G75*
G03*
X125090000Y-114297300I0J-279400D01*
G01*
X116090000Y-128170000D02*
G75*
G02*
X116369400Y-127890600I279400J0D01*
G01*
X107531200Y-127186541D02*
G75*
G02*
X108089959Y-127745341I0J-558759D01*
G01*
X114090000Y-109979000D02*
G75*
G02*
X114369400Y-109699600I279400J0D01*
G01*
X107531200Y-124392541D02*
G75*
G02*
X108089959Y-124951341I0J-558759D01*
G01*
X127090000Y-117929500D02*
G75*
G02*
X126810600Y-118208900I-279400J0D01*
G01*
X126810600Y-117510400D02*
G75*
G02*
X127090000Y-117789800I0J-279400D01*
G01*
X125090000Y-113040000D02*
G75*
G03*
X125369400Y-113319400I279400J0D01*
G01*
X125369400Y-115414900D02*
G75*
G03*
X125090000Y-115694300I0J-279400D01*
G01*
X107090000Y-108151131D02*
G75*
G02*
X106590000Y-108651100I-500000J31D01*
G01*
X105590000Y-108651131D02*
G75*
G03*
X105090031Y-109151131I0J-499969D01*
G01*
X127090000Y-115135500D02*
G75*
G02*
X126810600Y-115414900I-279400J0D01*
G01*
X125090000Y-115834000D02*
G75*
G03*
X125369400Y-116113400I279400J0D01*
G01*
X106590000Y-107254131D02*
G75*
G02*
X107089969Y-107754131I0J-499969D01*
G01*
X127090000Y-109547500D02*
G75*
G02*
X126810600Y-109826900I-279400J0D01*
G01*
X117090000Y-126074500D02*
G75*
G03*
X116810600Y-125795100I-279400J0D01*
G01*
X125369400Y-100047900D02*
G75*
G03*
X125090000Y-100327300I0J-279400D01*
G01*
X126810600Y-109128400D02*
G75*
G02*
X127090000Y-109407800I0J-279400D01*
G01*
X127090000Y-102562500D02*
G75*
G02*
X126810600Y-102841900I-279400J0D01*
G01*
X114090000Y-111376000D02*
G75*
G02*
X114369400Y-111096600I279400J0D01*
G01*
X125369400Y-109826900D02*
G75*
G03*
X125090000Y-110106300I0J-279400D01*
G01*
X125369400Y-116811900D02*
G75*
G03*
X125090000Y-117091300I0J-279400D01*
G01*
X114090000Y-112773000D02*
G75*
G02*
X114369400Y-112493600I279400J0D01*
G01*
X104090000Y-129421741D02*
G75*
G03*
X104648800Y-129980500I558800J41D01*
G01*
X125090000Y-103261000D02*
G75*
G03*
X125369400Y-103540400I279400J0D01*
G01*
X104648800Y-125789541D02*
G75*
G03*
X104090041Y-126348341I0J-558759D01*
G01*
X125090000Y-114437000D02*
G75*
G03*
X125369400Y-114716400I279400J0D01*
G01*
X127090000Y-99768500D02*
G75*
G02*
X126810600Y-100047900I-279400J0D01*
G01*
X105090000Y-112342131D02*
G75*
G03*
X105590000Y-112842100I500000J31D01*
G01*
X125090000Y-117231000D02*
G75*
G03*
X125369400Y-117510400I279400J0D01*
G01*
X125369400Y-107032900D02*
G75*
G03*
X125090000Y-107312300I0J-279400D01*
G01*
X126810600Y-104937400D02*
G75*
G02*
X127090000Y-105216800I0J-279400D01*
G01*
X126810600Y-113319400D02*
G75*
G02*
X127090000Y-113598800I0J-279400D01*
G01*
X104648800Y-122995541D02*
G75*
G03*
X104090041Y-123554341I0J-558759D01*
G01*
X125369400Y-105635900D02*
G75*
G03*
X125090000Y-105915300I0J-279400D01*
G01*
X118090000Y-112074500D02*
G75*
G03*
X117810600Y-111795100I-279400J0D01*
G01*
X126810600Y-99349400D02*
G75*
G02*
X127090000Y-99628800I0J-279400D01*
G01*
X125369400Y-108429900D02*
G75*
G03*
X125090000Y-108709300I0J-279400D01*
G01*
X116810600Y-127890600D02*
G75*
G03*
X117090000Y-127611200I0J279400D01*
G01*
X106090000Y-106754131D02*
G75*
G03*
X106590000Y-107254100I500000J31D01*
G01*
X104648800Y-128583541D02*
G75*
G03*
X104090041Y-129142341I0J-558759D01*
G01*
X125090000Y-106055000D02*
G75*
G03*
X125369400Y-106334400I279400J0D01*
G01*
X116810600Y-125096600D02*
G75*
G03*
X117090000Y-124817200I0J279400D01*
G01*
X125090000Y-107452000D02*
G75*
G03*
X125369400Y-107731400I279400J0D01*
G01*
X107531200Y-121598541D02*
G75*
G02*
X108089959Y-122157341I0J-558759D01*
G01*
X126369400Y-118208900D02*
G75*
G03*
X126090000Y-118488300I0J-279400D01*
G01*
X126810600Y-100746400D02*
G75*
G02*
X127090000Y-101025800I0J-279400D01*
G01*
X127090000Y-113738500D02*
G75*
G02*
X126810600Y-114017900I-279400J0D01*
G01*
X117810600Y-111096600D02*
G75*
G03*
X118090000Y-110817200I0J279400D01*
G01*
X125369400Y-112620900D02*
G75*
G03*
X125090000Y-112900300I0J-279400D01*
G01*
X115810600Y-109699600D02*
G75*
G03*
X116090000Y-109420200I0J279400D01*
G01*
X125090000Y-111643000D02*
G75*
G03*
X125369400Y-111922400I279400J0D01*
G01*
X117810600Y-113890600D02*
G75*
G03*
X118090000Y-113611200I0J279400D01*
G01*
X115369400Y-127192100D02*
G75*
G02*
X115090000Y-126912700I0J279400D01*
G01*
X105090000Y-115136131D02*
G75*
G03*
X105590000Y-115636100I500000J31D01*
G01*
X126810600Y-106334400D02*
G75*
G02*
X127090000Y-106613800I0J-279400D01*
G01*
X108090000Y-128024741D02*
G75*
G02*
X107531200Y-128583500I-558800J41D01*
G01*
X127090000Y-101165500D02*
G75*
G02*
X126810600Y-101444900I-279400J0D01*
G01*
X125090000Y-104658000D02*
G75*
G03*
X125369400Y-104937400I279400J0D01*
G01*
X114369400Y-113192100D02*
G75*
G02*
X114090000Y-112912700I0J279400D01*
G01*
X117090000Y-127471500D02*
G75*
G03*
X116810600Y-127192100I-279400J0D01*
G01*
X114369400Y-110398100D02*
G75*
G02*
X114090000Y-110118700I0J279400D01*
G01*
X115090000Y-123979000D02*
G75*
G02*
X115369400Y-123699600I279400J0D01*
G01*
X106090000Y-121039741D02*
G75*
G03*
X106648800Y-121598500I558800J41D01*
G01*
X126810600Y-114716400D02*
G75*
G02*
X127090000Y-114995800I0J-279400D01*
G01*
X115090000Y-125376000D02*
G75*
G02*
X115369400Y-125096600I279400J0D01*
G01*
X126810600Y-116113400D02*
G75*
G02*
X127090000Y-116392800I0J-279400D01*
G01*
X108090000Y-122436741D02*
G75*
G02*
X107531200Y-122995500I-558800J41D01*
G01*
X127090000Y-116532500D02*
G75*
G02*
X126810600Y-116811900I-279400J0D01*
G01*
X125369400Y-111223900D02*
G75*
G03*
X125090000Y-111503300I0J-279400D01*
G01*
X125090000Y-108849000D02*
G75*
G03*
X125369400Y-109128400I279400J0D01*
G01*
X115810600Y-123699600D02*
G75*
G03*
X116090000Y-123420200I0J279400D01*
G01*
X106590000Y-112842131D02*
G75*
G02*
X107089969Y-113342131I0J-499969D01*
G01*
X127090000Y-108150500D02*
G75*
G02*
X126810600Y-108429900I-279400J0D01*
G01*
X105590000Y-114239131D02*
G75*
G03*
X105090031Y-114739131I0J-499969D01*
G01*
X105090000Y-109548131D02*
G75*
G03*
X105590000Y-110048100I500000J31D01*
G01*
X117810600Y-112493600D02*
G75*
G03*
X118090000Y-112214200I0J279400D01*
G01*
X115369400Y-125795100D02*
G75*
G02*
X115090000Y-125515700I0J279400D01*
G01*
X127090000Y-105356500D02*
G75*
G02*
X126810600Y-105635900I-279400J0D01*
G01*
X126810600Y-103540400D02*
G75*
G02*
X127090000Y-103819800I0J-279400D01*
G01*
X126090000Y-99070000D02*
G75*
G03*
X126369400Y-99349400I279400J0D01*
G01*
X127090000Y-110944500D02*
G75*
G02*
X126810600Y-111223900I-279400J0D01*
G01*
X105531200Y-129980541D02*
G75*
G02*
X106089959Y-130539341I0J-558759D01*
G01*
X114369400Y-111795100D02*
G75*
G02*
X114090000Y-111515700I0J279400D01*
G01*
X116810600Y-126493600D02*
G75*
G03*
X117090000Y-126214200I0J279400D01*
G01*
%TO.N,Net-(J8-In)*%
X94060000Y-109090000D02*
X64060000Y-109090000D01*
%TO.N,Net-(J11-In)*%
X64030000Y-84030000D02*
X94060000Y-84030000D01*
%TO.N,Net-(J3-In)*%
X106260000Y-71650000D02*
X114545000Y-71650000D01*
%TO.N,Net-(J13-In)*%
X64030000Y-96530000D02*
X79030000Y-96530000D01*
%TO.N,Net-(J4-In)*%
X124230000Y-67302000D02*
X124230000Y-70350000D01*
X114545000Y-72950000D02*
X118240000Y-72950000D01*
X130840000Y-70350000D02*
X114545000Y-70350000D01*
X118230000Y-70350000D02*
X118230000Y-70096000D01*
X136260000Y-71620000D02*
X132110000Y-71620000D01*
X122230000Y-68318000D02*
X122230000Y-70350000D01*
X118240000Y-72950000D02*
X130780000Y-72950000D01*
X126230000Y-66286000D02*
X126230000Y-70350000D01*
X132110000Y-71620000D02*
X130840000Y-70350000D01*
X130780000Y-72950000D02*
X132110000Y-71620000D01*
X120240000Y-69334000D02*
X120240000Y-70350000D01*
%TO.N,Net-(J6-In)*%
X130700000Y-85330000D02*
X131970000Y-84060000D01*
X136120000Y-84060000D02*
X131970000Y-84060000D01*
X130700000Y-85330000D02*
X129030000Y-85330000D01*
X129030000Y-82730000D02*
X130640000Y-82730000D01*
X131970000Y-84060000D02*
X130640000Y-82730000D01*
X119040000Y-82730000D02*
X116090000Y-82730000D01*
X116090000Y-85330000D02*
X119040000Y-85330000D01*
%TD*%
D16*
X50000000Y-50000000D02*
X150000000Y-50000000D01*
X150000000Y-150000000D01*
X50000000Y-150000000D01*
X50000000Y-50000000D01*
M02*
