%TF.GenerationSoftware,KiCad,Pcbnew,9.0.3*%
%TF.CreationDate,2026-02-01T20:01:01-08:00*%
%TF.ProjectId,White paper,57686974-6520-4706-9170-65722e6b6963,rev?*%
%TF.SameCoordinates,Original*%
%TF.FileFunction,Soldermask,Top*%
%TF.FilePolarity,Negative*%
%FSLAX46Y46*%
G04 Gerber Fmt 4.6, Leading zero omitted, Abs format (unit mm)*
G04 Created by KiCad (PCBNEW 9.0.3) date 2026-02-01 20:01:01*
%MOMM*%
%LPD*%
G01*
G04 APERTURE LIST*
G04 Aperture macros list*
%AMRoundRect*
0 Rectangle with rounded corners*
0 $1 Rounding radius*
0 $2 $3 $4 $5 $6 $7 $8 $9 X,Y pos of 4 corners*
0 Add a 4 corners polygon primitive as box body*
4,1,4,$2,$3,$4,$5,$6,$7,$8,$9,$2,$3,0*
0 Add four circle primitives for the rounded corners*
1,1,$1+$1,$2,$3*
1,1,$1+$1,$4,$5*
1,1,$1+$1,$6,$7*
1,1,$1+$1,$8,$9*
0 Add four rect primitives between the rounded corners*
20,1,$1+$1,$2,$3,$4,$5,0*
20,1,$1+$1,$4,$5,$6,$7,0*
20,1,$1+$1,$6,$7,$8,$9,0*
20,1,$1+$1,$8,$9,$2,$3,0*%
G04 Aperture macros list end*
%ADD10RoundRect,0.250000X-0.325000X0.250000X-0.325000X-0.250000X0.325000X-0.250000X0.325000X0.250000X0*%
%ADD11C,2.250000*%
%ADD12C,2.450000*%
%ADD13C,3.400000*%
%ADD14RoundRect,0.100000X-0.750000X0.500000X-0.750000X-0.500000X0.750000X-0.500000X0.750000X0.500000X0*%
%ADD15RoundRect,0.100000X0.750000X-0.500000X0.750000X0.500000X-0.750000X0.500000X-0.750000X-0.500000X0*%
%TA.AperFunction,Profile*%
%ADD16C,0.050000*%
%TD*%
G04 APERTURE END LIST*
D10*
%TO.C,R3*%
X94060000Y-121590000D03*
X94060000Y-123240000D03*
%TD*%
D11*
%TO.C,J10*%
X94060000Y-134090000D03*
D12*
X91520000Y-131550000D03*
X91520000Y-136630000D03*
X96600000Y-131550000D03*
X96600000Y-136630000D03*
%TD*%
D11*
%TO.C,J9*%
X64060000Y-134090000D03*
D12*
X61520000Y-131550000D03*
X61520000Y-136630000D03*
X66600000Y-131550000D03*
X66600000Y-136630000D03*
%TD*%
D11*
%TO.C,J2*%
X64060000Y-121590000D03*
D12*
X61520000Y-119050000D03*
X61520000Y-124130000D03*
X66600000Y-119050000D03*
X66600000Y-124130000D03*
%TD*%
D11*
%TO.C,J1*%
X64060000Y-71530000D03*
D12*
X61520000Y-68990000D03*
X61520000Y-74070000D03*
X66600000Y-68990000D03*
X66600000Y-74070000D03*
%TD*%
D10*
%TO.C,R2*%
X126080000Y-123545000D03*
X126080000Y-125195000D03*
%TD*%
D13*
%TO.C,H1*%
X54500000Y-54500000D03*
%TD*%
D10*
%TO.C,R1*%
X94060000Y-109090000D03*
X94060000Y-110740000D03*
%TD*%
D13*
%TO.C,H3*%
X54500000Y-145500000D03*
%TD*%
%TO.C,H4*%
X145500000Y-145500000D03*
%TD*%
D11*
%TO.C,J4*%
X136260000Y-71620000D03*
D12*
X133720000Y-69080000D03*
X133720000Y-74160000D03*
X138800000Y-69080000D03*
X138800000Y-74160000D03*
%TD*%
D14*
%TO.C,JP2*%
X114545000Y-70350000D03*
X114545000Y-71650000D03*
X114545000Y-72950000D03*
%TD*%
D11*
%TO.C,J6*%
X136120000Y-84060000D03*
D12*
X133580000Y-81520000D03*
X133580000Y-86600000D03*
X138660000Y-81520000D03*
X138660000Y-86600000D03*
%TD*%
D11*
%TO.C,J3*%
X106260000Y-71650000D03*
D12*
X103720000Y-69110000D03*
X103720000Y-74190000D03*
X108800000Y-69110000D03*
X108800000Y-74190000D03*
%TD*%
D11*
%TO.C,J12*%
X94060000Y-84030000D03*
D12*
X91520000Y-81490000D03*
X91520000Y-86570000D03*
X96600000Y-81490000D03*
X96600000Y-86570000D03*
%TD*%
D11*
%TO.C,J5*%
X106090000Y-84030000D03*
D12*
X103550000Y-81490000D03*
X103550000Y-86570000D03*
X108630000Y-81490000D03*
X108630000Y-86570000D03*
%TD*%
D11*
%TO.C,J11*%
X64030000Y-84030000D03*
D12*
X61490000Y-81490000D03*
X61490000Y-86570000D03*
X66570000Y-81490000D03*
X66570000Y-86570000D03*
%TD*%
D11*
%TO.C,J8*%
X64060000Y-109090000D03*
D12*
X61520000Y-106550000D03*
X61520000Y-111630000D03*
X66600000Y-106550000D03*
X66600000Y-111630000D03*
%TD*%
D13*
%TO.C,H2*%
X145500000Y-54500000D03*
%TD*%
D11*
%TO.C,J13*%
X64030000Y-96530000D03*
D12*
X61490000Y-93990000D03*
X61490000Y-99070000D03*
X66570000Y-93990000D03*
X66570000Y-99070000D03*
%TD*%
D11*
%TO.C,J14*%
X79030000Y-96530000D03*
D12*
X76490000Y-93990000D03*
X76490000Y-99070000D03*
X81570000Y-93990000D03*
X81570000Y-99070000D03*
%TD*%
D11*
%TO.C,J7*%
X106090000Y-96500000D03*
D12*
X108630000Y-93960000D03*
X103550000Y-93960000D03*
X108630000Y-99040000D03*
X103550000Y-99040000D03*
%TD*%
D14*
%TO.C,JP3*%
X116090000Y-82730000D03*
X116090000Y-84030000D03*
X116090000Y-85330000D03*
%TD*%
D15*
%TO.C,JP1*%
X72060000Y-72830000D03*
X72060000Y-71530000D03*
X72060000Y-70230000D03*
%TD*%
D16*
X50000000Y-50000000D02*
X150000000Y-50000000D01*
X150000000Y-150000000D01*
X50000000Y-150000000D01*
X50000000Y-50000000D01*
M02*
