M48
; DRILL file {KiCad 9.0.3} date 2026-01-27T12:50:27-0800
; FORMAT={-:-/ absolute / metric / decimal}
; #@! TF.CreationDate,2026-01-27T12:50:27-08:00
; #@! TF.GenerationSoftware,Kicad,Pcbnew,9.0.3
; #@! TF.FileFunction,Plated,1,4,PTH
FMAT,2
METRIC
; #@! TA.AperFunction,Plated,PTH,ViaDrill
T1C0.150
; #@! TA.AperFunction,Plated,PTH,ComponentDrill
T2C1.500
; #@! TA.AperFunction,Plated,PTH,ComponentDrill
T3C1.700
%
G90
G05
T1
X76.0Y-122.86
X80.5Y-122.86
X81.0Y-122.86
X85.0Y-122.86
X85.2Y-122.86
X119.0Y-82.76
X119.0Y-85.36
X124.0Y-85.36
X129.0Y-82.76
X129.0Y-85.36
T2
X64.0Y-96.53
X64.0Y-109.03
X64.03Y-84.03
X64.03Y-121.56
X79.0Y-109.03
X94.03Y-84.03
X94.03Y-96.53
X94.03Y-121.53
X106.06Y-84.06
X106.06Y-96.53
X106.06Y-140.7
X121.075Y-96.53
X121.075Y-140.7
X136.09Y-84.09
X136.09Y-96.53
X136.09Y-140.7
T3
X61.46Y-93.99
X61.46Y-99.07
X61.46Y-106.49
X61.46Y-111.57
X61.49Y-81.49
X61.49Y-86.57
X61.49Y-119.02
X61.49Y-124.1
X66.54Y-93.99
X66.54Y-99.07
X66.54Y-106.49
X66.54Y-111.57
X66.57Y-81.49
X66.57Y-86.57
X66.57Y-119.02
X66.57Y-124.1
X76.46Y-106.49
X76.46Y-111.57
X81.54Y-106.49
X81.54Y-111.57
X91.49Y-81.49
X91.49Y-86.57
X91.49Y-93.99
X91.49Y-99.07
X91.49Y-118.99
X91.49Y-124.07
X96.57Y-81.49
X96.57Y-86.57
X96.57Y-93.99
X96.57Y-99.07
X96.57Y-118.99
X96.57Y-124.07
X103.52Y-81.52
X103.52Y-86.6
X103.52Y-93.99
X103.52Y-99.07
X103.52Y-138.16
X103.52Y-143.24
X108.6Y-81.52
X108.6Y-86.6
X108.6Y-93.99
X108.6Y-99.07
X108.6Y-138.16
X108.6Y-143.24
X118.535Y-93.99
X118.535Y-99.07
X118.535Y-138.16
X118.535Y-143.24
X123.615Y-93.99
X123.615Y-99.07
X123.615Y-138.16
X123.615Y-143.24
X133.55Y-81.55
X133.55Y-86.63
X133.55Y-93.99
X133.55Y-99.07
X133.55Y-138.16
X133.55Y-143.24
X138.63Y-81.55
X138.63Y-86.63
X138.63Y-93.99
X138.63Y-99.07
X138.63Y-138.16
X138.63Y-143.24
M30
